<?xml version="1.0" encoding="utf-8"?>
<svg width="320" height="100.00933965047201" viewBox="0 0 320 100.00933965047201" class="css-1j8o68f"
    xmlns='http://www.w3.org/2000/svg'>
    <defs id="SvgjsDefs2454">
        <linearGradient id="SvgjsLinearGradient2459">
            <stop id="SvgjsStop2460" stop-color="#8f5e25" offset="0"></stop>
            <stop id="SvgjsStop2461" stop-color="#fbf4a1" offset="0.5"></stop>
            <stop id="SvgjsStop2462" stop-color="#8f5e25" offset="1"></stop>
        </linearGradient>
    </defs>
    <g id="SvgjsG2455" featurekey="symbolFeature-0"
        transform="matrix(1.6666666269302368,0,0,1.6666666269302368,-3.3333333333333335,-3.3323566118876142)"
        fill="url(#SvgjsLinearGradient2459)">
        <title xmlns="http://www.w3.org/2000/svg">Geomeetry-color-samliam-plus-delete</title>
        <path xmlns="http://www.w3.org/2000/svg"
            d="M49,34.319a8.759,8.759,0,0,0-.168-1.7,9.722,9.722,0,0,0,1.073-17.6A8.449,8.449,0,0,0,50,13.766a8.839,8.839,0,0,0-8.241-8.792A7.068,7.068,0,0,0,32,3.239a7.068,7.068,0,0,0-9.759,1.735A8.839,8.839,0,0,0,14,13.766a8.449,8.449,0,0,0,.1,1.249,9.722,9.722,0,0,0,1.073,17.6,8.763,8.763,0,0,0,5.85,10.03c-.012.161-.018.322-.018.482a6.832,6.832,0,0,0,3.013,5.642,2.974,2.974,0,0,0,.388,4.76A2.967,2.967,0,0,0,24,55a3,3,0,0,0,3,3h.1a5,5,0,0,0,9.8,0H37a3,3,0,0,0,3-3,2.967,2.967,0,0,0-.4-1.471,2.974,2.974,0,0,0,.388-4.76A6.832,6.832,0,0,0,43,43.127c0-.16-.006-.321-.018-.482A8.807,8.807,0,0,0,49,34.319ZM23,43.127c0-.062.017-.125.02-.188A4.078,4.078,0,0,1,27,47h2a6.088,6.088,0,0,0-5.987-6.064l-.733-.01A6.832,6.832,0,0,1,17,34.319,6.7,6.7,0,0,1,17.147,33H20a6.006,6.006,0,0,1,6,6h2a8.009,8.009,0,0,0-8-8H16.605a8.024,8.024,0,0,1-3.347-2.013A8,8,0,0,0,21,21H19a6.006,6.006,0,0,1-6,6H12v.327a7.653,7.653,0,0,1-1-3.774,7.793,7.793,0,0,1,4-6.731V17h2a5.006,5.006,0,0,1,5,5h2a6.938,6.938,0,0,0-.685-3H24a5.006,5.006,0,0,0,5-5H27a3,3,0,0,1-3,3H22v.11A6.977,6.977,0,0,0,17,15h-.867A6.537,6.537,0,0,1,16,13.766a6.83,6.83,0,0,1,5.937-6.739A6.235,6.235,0,0,0,28.058,12H29V10h-.942a4.233,4.233,0,0,1-4.216-3.8A5.011,5.011,0,0,1,31,5.007V23.638L29.965,24.88a5.779,5.779,0,0,1-7.45,1.263l-1.03,1.714A7.749,7.749,0,0,0,31,26.7v20.3A5.048,5.048,0,0,1,28,48,4.943,4.943,0,0,1,23,43.127ZM32,60a3.006,3.006,0,0,1-2.829-2h5.658A3.006,3.006,0,0,1,32,60Zm5-4H27a1,1,0,0,1,0-2H37a1,1,0,0,1,0,2Zm1-4H26a1,1,0,0,1,0-2H38a1,1,0,0,1,0,2Zm1.988-11.055A6.076,6.076,0,0,0,34,47h2a4.069,4.069,0,0,1,4.01-4.055l.97-.011c0,.065.02.129.02.193A4.943,4.943,0,0,1,36,48a5.048,5.048,0,0,1-3-1.007V26.713a7.71,7.71,0,0,0,9.517,1.165l-1.034-1.711A5.745,5.745,0,0,1,34.038,24.9L33,23.64V5.007A5.011,5.011,0,0,1,40.158,6.2,4.233,4.233,0,0,1,35.942,10H35v2h.942a6.235,6.235,0,0,0,6.121-4.973A6.83,6.83,0,0,1,48,13.766a6.621,6.621,0,0,1-.134,1.241A7.98,7.98,0,0,0,41.765,18H40a3,3,0,0,1-3-3H35a5.006,5.006,0,0,0,5,5h.589A7.945,7.945,0,0,0,40,23h2a6.006,6.006,0,0,1,6-6h1v-.178a7.793,7.793,0,0,1,4,6.731A7.666,7.666,0,0,1,52.175,27H51a5.006,5.006,0,0,1-5-5H44a7,7,0,0,0,6.742,6.987A8.024,8.024,0,0,1,47.4,31H46a8.009,8.009,0,0,0-8,8h2a6.006,6.006,0,0,1,6-6h.853A6.7,6.7,0,0,1,47,34.319a6.833,6.833,0,0,1-5.279,6.607Z">
        </path>
        <rect xmlns="http://www.w3.org/2000/svg" x="7" y="4" width="2" height="10"
            transform="translate(-4 9.998) rotate(-53.119)"></rect>
        <rect xmlns="http://www.w3.org/2000/svg" x="51" y="8" width="10" height="2"
            transform="translate(5.805 35.41) rotate(-36.881)"></rect>
        <rect xmlns="http://www.w3.org/2000/svg" x="3" y="35" width="10" height="2"
            transform="translate(-20.005 12.005) rotate(-36.881)"></rect>
        <rect xmlns="http://www.w3.org/2000/svg" x="55" y="31" width="2" height="10"
            transform="translate(-6.4 59.2) rotate(-53.13)"></rect>
        <rect xmlns="http://www.w3.org/2000/svg" x="2" y="21" width="6" height="2"></rect>
        <rect xmlns="http://www.w3.org/2000/svg" x="56" y="21" width="6" height="2"></rect>
        <rect xmlns="http://www.w3.org/2000/svg" x="12.879" y="44.879" width="6" height="2"
            transform="translate(-27.79 24.665) rotate(-45)"></rect>
        <rect xmlns="http://www.w3.org/2000/svg" x="47.121" y="42.879" width="2" height="6"
            transform="translate(-18.347 47.464) rotate(-45)"></rect>
    </g>
    <g id="SvgjsG2456" featurekey="nameFeature-0"
        transform="matrix(2.212388038635254,0,0,2.212388038635254,119.8230133456934,2.123896080451579)" fill="#f0d450">
        <path
            d="M5.68 40 l-0.16 -0.08 c-0.04 -0.08 -0.12 -0.12 -0.2 -0.12 s-0.24 -0.08 -0.36 -0.16 s-0.4 -0.24 -0.68 -0.32 c-0.24 -0.08 -0.44 -0.2 -0.44 -0.24 s-0.12 -0.2 -0.28 -0.32 c-0.16 -0.16 -0.36 -0.4 -0.44 -0.56 c-0.12 -0.2 -0.24 -0.32 -0.28 -0.32 s-0.12 -0.2 -0.16 -0.44 l-0.04 -0.32 l0.04 -0.12 c0.04 0 0.08 -0.16 0.08 -0.36 s0 -0.56 0.04 -0.8 l0 -1.04 c0 -0.36 0.04 -0.6 0.08 -0.6 s0.08 -0.24 0.08 -0.48 c0 -0.28 0.04 -0.84 0.12 -1.28 l0.16 -0.96 c0.04 -0.08 0.08 -0.44 0.12 -0.8 c0 -0.32 0.12 -0.88 0.2 -1.2 c0.12 -0.48 0.24 -1.2 0.24 -1.56 l0 -0.16 c0 -0.08 0 -0.12 0.04 -0.12 s0.12 -0.2 0.16 -0.4 l0.28 -0.92 c0.08 -0.24 0.16 -0.68 0.2 -1.04 c0.04 -0.32 0.12 -0.68 0.2 -0.8 c0.08 -0.08 0.12 -0.16 0.12 -0.24 s-0.04 -0.12 -0.08 -0.12 l-0.12 0.04 c-0.04 0 -0.04 -0.04 -0.04 -0.08 c0.04 -0.12 0.08 -0.16 0.16 -0.16 l0.04 0 c0.04 0 0.08 -0.08 0.08 -0.16 c0 -0.12 0.04 -0.28 0.12 -0.36 c0.04 -0.04 0.08 -0.16 0.08 -0.24 c0 -0.04 0.08 -0.48 0.2 -0.88 c0.08 -0.36 0.16 -0.72 0.16 -0.92 l0 -0.08 c0 -0.08 0.04 -0.2 0.12 -0.2 c0.12 0 0.12 -0.08 0.12 -0.28 l0 -0.12 c0 -0.12 0.04 -0.2 0.08 -0.24 s0.08 -0.04 0.08 -0.12 l0 -0.12 c0 -0.2 0.04 -0.48 0.12 -0.56 s0.16 -0.6 0.16 -0.96 l-0.04 -0.32 l-0.04 -0.16 l0.08 0.12 c0.08 0 0.16 -0.12 0.24 -0.32 l0.08 -0.36 l0 -0.08 c0 -0.08 0.2 -0.48 0.32 -0.56 l0.04 -0.12 l-0.04 -0.2 l0.08 -0.6 l-0.04 -0.16 c0 -0.04 0.04 -0.04 0.08 -0.04 l0.04 0 c0.04 0 0.08 -0.08 0.08 -0.16 c0.04 -0.12 0.04 -0.24 0.04 -0.28 c0.04 -0.32 0.36 -1.4 0.4 -1.48 l0.04 -0.08 l-0.04 -0.08 l0.04 -0.24 c0.08 -0.08 0.16 -0.36 0.2 -0.56 c0 -0.2 0.08 -0.56 0.16 -0.76 c0.08 -0.36 0.12 -0.56 0.12 -0.68 c0 -0.08 0 -0.12 -0.08 -0.12 l-0.12 0.04 l0.04 -0.2 l0.08 -0.12 l0.04 0 c0.04 0.04 0.08 0.08 0.12 0.08 s0.08 -0.04 0.08 -0.12 l0 -0.08 c0 -0.08 -0.12 -0.12 -0.24 -0.12 c-0.08 0 -0.16 0 -0.16 0.08 c-0.08 0.2 -2.12 1.76 -2.32 1.76 c-0.04 0 -0.08 0.04 -0.08 0.08 s-0.12 0.12 -0.24 0.24 l-0.56 0.48 c-0.16 0.16 -0.28 0.32 -0.36 0.32 l-0.04 0 c-0.12 0 -0.32 0.24 -0.32 0.4 l0 0.04 c0 0.08 -0.08 0.2 -0.2 0.32 s-0.24 0.28 -0.24 0.32 l0 0.04 c0 0.04 0.2 0.08 0.44 0.12 c0.28 0.04 0.4 0.08 0.4 0.12 s-0.04 0.12 -0.12 0.2 l-0.12 0.16 l0.04 0.04 l0.2 -0.04 c0 0.04 -0.12 0.08 -0.28 0.16 l-0.36 0.16 l0.08 0 l0.96 -0.12 l-0.12 0.08 c-1.16 0.56 -1.72 0.8 -1.84 0.8 l-0.04 0 l0 -0.08 c0 -0.04 -0.08 -0.08 -0.2 -0.08 c-0.16 0 -0.44 -0.16 -0.88 -0.52 c-0.28 -0.28 -0.56 -0.48 -0.56 -0.56 l0 -0.04 l-0.08 -0.2 c-0.16 -0.24 -0.76 -1.44 -0.76 -1.6 l0 -0.04 c0 -0.16 0.24 -0.56 0.96 -1.44 c0.32 -0.44 0.68 -0.84 0.76 -0.84 c0.04 0 0.12 0 0.12 -0.08 s0.2 -0.2 0.4 -0.4 c0.2 -0.16 0.4 -0.32 0.4 -0.4 c0 -0.16 0.4 -0.56 0.76 -0.72 c0.16 -0.08 0.28 -0.16 0.28 -0.24 l0 -0.04 l0.12 0 c0.2 0 1 -0.56 1 -0.72 c0 -0.08 0.68 -0.6 1.16 -0.84 c0.2 -0.08 0.48 -0.24 0.6 -0.32 l0.64 -0.36 c0.24 -0.08 0.48 -0.2 0.52 -0.28 s0.16 -0.12 0.28 -0.12 c0.08 0 0.16 -0.04 0.16 -0.12 c0 -0.04 0.12 -0.12 0.32 -0.12 c0.32 -0.08 0.76 -0.6 0.76 -0.88 l0 -0.04 c0 -0.04 0.04 -0.12 0.12 -0.16 s0.12 -0.12 0.12 -0.2 l0 -0.04 c0 -0.12 0.12 -0.16 0.4 -0.16 l0.24 0 c0.28 0 0.36 0.04 0.4 0.24 s0.16 0.28 0.32 0.28 c0.08 0 0.2 -0.04 0.28 -0.08 l0.32 -0.16 l0.4 -0.08 c0.16 -0.04 0.32 -0.12 0.32 -0.16 s0.04 -0.04 0.04 -0.04 l0.12 0 c0.08 0 0.16 -0.04 0.2 -0.08 c0.08 -0.08 0.12 -0.12 0.16 -0.12 l0.04 0.04 c0 0.08 0.04 0.08 0.12 0.08 c0.12 0 0.28 -0.04 0.48 -0.16 c0.16 -0.12 0.4 -0.2 0.48 -0.2 s0.36 -0.08 0.56 -0.16 l0.48 -0.08 l0.24 0.04 l0.04 -0.04 l-0.08 -0.12 l0.36 0.04 l0.28 -0.08 c0.12 -0.04 0.44 -0.08 0.72 -0.08 l0.56 -0.08 c0.08 -0.08 0.28 -0.16 0.36 -0.16 s0.12 0.04 0.12 0.08 l0 0.04 l0.04 0.04 l0.12 -0.04 c0.28 -0.08 1.2 -0.2 1.48 -0.2 l0.36 0.04 l0.68 -0.04 l0.4 0 c0.12 0 0.2 0 0.2 0.04 l0.12 0.04 l0.36 -0.12 c0.08 0 0.12 0.04 0.12 0.08 c0.04 0.04 0.16 0.04 0.32 0.04 l0.4 0 c0.56 0 1.56 0.12 1.6 0.24 c0 0.04 0.16 0.08 0.36 0.12 c0.64 0.08 1.72 0.64 2.56 1.32 c0.16 0.12 0.32 0.2 0.36 0.2 s0.12 0.08 0.16 0.2 s0.16 0.2 0.2 0.2 s0.08 0.04 0.12 0.12 c0 0.08 0.12 0.24 0.24 0.36 c0.72 0.68 1.76 2.72 1.76 3.36 l0 0.08 l0.04 0.48 l0.08 0.28 c0 0.28 -0.16 0.44 -0.4 0.44 c-0.12 0 -0.2 0.04 -0.2 0.16 l0 0.44 c0 0.04 0.04 0.08 0.08 0.08 c0.12 -0.04 0.2 -0.08 0.2 -0.16 s-0.04 -0.12 -0.08 -0.16 l-0.04 -0.08 c0 -0.04 0.04 -0.04 0.12 -0.08 l0.12 0 c0.04 0 0.04 0 0.04 0.08 l0 0.12 c0 0.12 -0.04 0.28 -0.08 0.36 l0.04 0.36 c0 0.24 -0.2 0.6 -0.36 0.6 l-0.12 0 c-0.04 0 -0.08 0.04 -0.12 0.08 c0 0.04 0 0.04 0.04 0.04 l0.12 -0.04 l0.04 0.04 c0 0.12 -0.04 0.16 -0.12 0.16 s-0.16 -0.04 -0.24 -0.08 c-0.12 -0.12 -0.2 -0.16 -0.28 -0.16 c-0.04 0 -0.04 0.04 -0.04 0.08 l0 0.04 c0 0.08 -0.04 0.24 -0.16 0.36 l-0.08 0.16 l0.04 0.08 l0.08 0.04 l0 -0.08 c0 -0.04 0.04 -0.08 0.08 -0.08 c0.08 0 0.12 0 0.12 0.04 l0 0.04 c0 0.2 -0.16 0.28 -0.4 0.32 c-0.28 0.04 -0.52 0.16 -0.52 0.28 l0.04 0.12 c0 0.04 0 0.04 -0.04 0.04 l-0.08 0.04 l0.04 0.12 c0 0.04 -0.04 0.08 -0.12 0.12 c-0.12 0 -0.24 0.12 -0.28 0.24 c-0.08 0.24 -0.08 0.28 -0.08 0.48 c0 0.04 -0.08 0.12 -0.2 0.12 c-0.08 0.04 -0.16 0.12 -0.16 0.2 l0 0.04 c0 0.08 -0.04 0.12 -0.12 0.12 s-0.12 0 -0.12 -0.04 l0.12 -0.28 l0 -0.04 c-0.04 0 -0.12 0.08 -0.2 0.2 l-0.2 0.32 l0.08 -0.04 c0.08 0 0.12 0 0.12 0.08 c0 0.04 -0.08 0.12 -0.16 0.16 l-0.16 0.08 l0 0.04 c0 0.04 -0.12 0.08 -0.28 0.08 c-0.12 0 -0.16 0 -0.16 0.04 l0.36 0.32 l-0.12 0.08 c-0.08 0.04 -0.2 0.12 -0.28 0.12 s-0.16 0.12 -0.24 0.2 c-0.2 0.24 -0.48 0.4 -0.76 0.44 c-0.12 0 -0.32 0.04 -0.44 0.12 l-0.16 0.12 l0.04 0.04 l0.12 -0.04 c0.12 0 0.28 0.04 0.28 0.08 l0 0.04 c0 0.12 -0.56 0.36 -0.8 0.36 l-0.2 -0.04 c-0.08 0 -0.16 0.04 -0.2 0.08 l-0.12 0.08 l0.12 -0.04 c0.12 0 0.28 0 0.36 0.04 l0.08 0.08 c0 0.04 -0.08 0.04 -0.24 0.04 c-0.2 0 -0.28 0.04 -0.28 0.12 s-0.04 0.16 -0.08 0.16 c-0.12 0 -0.28 0.2 -0.32 0.4 c-0.04 0.08 -0.08 0.12 -0.16 0.12 l-0.04 0 c-0.08 0 -0.28 0.12 -0.48 0.36 c-0.16 0.2 -0.44 0.4 -0.6 0.44 c-0.16 0 -0.4 0.2 -0.56 0.36 c-0.36 0.4 -0.76 0.68 -0.92 0.68 l-0.04 0 c-0.04 0 -0.08 0.04 -0.08 0.08 c0.04 0.04 0.08 0.08 0.12 0.08 s0.08 0.04 0.08 0.08 l0 0.04 c-0.04 0.04 -0.08 0.04 -0.16 0.04 l-0.08 0 c-0.16 0 -0.52 0.16 -0.52 0.32 c0 0.04 -0.12 0.12 -0.24 0.12 s-0.16 0.04 -0.16 0.04 c0.12 0.04 0.16 0.08 0.16 0.12 s-0.12 0.08 -0.24 0.08 c-0.16 0 -0.4 0.08 -0.52 0.12 l-0.16 0.08 l0.16 0.04 c0.12 0 0.24 0.04 0.24 0.08 s-0.04 0.08 -0.08 0.08 l-0.28 -0.08 c-0.08 0 -0.16 0.04 -0.16 0.12 l0.16 0.16 l-0.12 0 c-0.12 0 -0.32 0.08 -0.48 0.2 c-0.16 0.08 -0.28 0.12 -0.36 0.12 l-0.04 0 c-0.04 0 -0.08 0.04 -0.12 0.08 c-0.08 0.16 -0.68 0.6 -0.8 0.6 l-0.04 -0.04 l0.16 -0.16 l-0.12 -0.04 c-0.12 0 -0.48 0.4 -0.48 0.52 c0 0.04 -0.08 0.12 -0.16 0.16 c-0.12 0.04 -0.28 0.12 -0.32 0.2 c-0.08 0.08 -0.2 0.12 -0.32 0.12 c-0.08 0 -0.16 0.08 -0.16 0.16 l0 0.04 c0 0.04 -0.04 0.08 -0.12 0.08 s-0.12 0.04 -0.12 0.12 c0 0.04 -0.12 0.08 -0.28 0.08 c-0.2 0 -0.24 0.04 -0.24 0.12 l0 0.08 c0 0.12 -0.04 0.2 -0.08 0.2 l-0.08 -0.04 l0.04 -0.08 c0 -0.04 0 -0.08 -0.04 -0.08 l-0.08 0.04 c-0.08 0.04 -0.2 0.04 -0.2 0.04 c-0.04 0 -0.04 0.08 -0.04 0.16 l0 0.04 c0 0.08 -0.12 0.16 -0.24 0.24 l-0.36 0.16 l0.16 -0.16 l-0.04 -0.04 c-0.08 0 -0.2 0.08 -0.24 0.16 c-0.08 0.08 -0.2 0.12 -0.28 0.12 s-0.2 0.12 -0.28 0.2 c-0.08 0.12 -0.2 0.2 -0.24 0.2 s-0.48 0.16 -0.92 0.36 c-0.4 0.2 -0.64 0.28 -0.8 0.28 l-0.16 -0.08 c-0.28 -0.2 -0.48 -0.4 -0.48 -0.56 c-0.04 -0.08 -0.16 -0.24 -0.36 -0.4 s-0.32 -0.4 -0.4 -0.68 c-0.08 -0.4 -0.16 -0.56 -0.28 -0.56 s-0.24 0.16 -0.36 0.56 c-0.08 0.4 -0.2 0.6 -0.28 0.6 c-0.04 0 -0.08 -0.12 -0.08 -0.28 l0 -0.12 c0 -0.12 0 -0.2 0.04 -0.2 s0.04 -0.04 0.04 -0.12 c0 -0.04 0.04 -0.2 0.12 -0.36 c0.12 -0.12 0.16 -0.32 0.16 -0.44 l0 -0.12 l0.04 -0.32 c0.08 -0.16 0.08 -0.36 0.08 -0.48 c0 -0.08 0 -0.16 0.04 -0.16 c0.08 0 0.2 -0.36 0.2 -0.56 l-0.04 -0.2 c0 -0.04 0.04 -0.04 0.12 -0.08 s0.16 -0.16 0.16 -0.32 l0 -0.12 c0 -0.2 0.04 -0.4 0.12 -0.4 l0.04 -0.04 l-0.08 -0.32 c0 -0.08 0.04 -0.2 0.08 -0.28 c0.08 -0.12 0.16 -0.28 0.16 -0.36 l0 -0.08 c0 -0.16 0.12 -0.56 0.2 -0.56 s0.16 0.08 0.16 0.16 s-0.04 0.12 -0.08 0.16 s-0.08 0.12 -0.08 0.2 l0 0.08 l0.08 0.16 l-0.04 0.08 c-0.04 0 -0.12 0.16 -0.12 0.28 s-0.12 0.56 -0.24 0.96 s-0.2 0.8 -0.2 0.88 l0 0.08 c0 0.04 -0.04 0.08 -0.08 0.08 l-0.08 0.08 l0.08 0.04 c0.16 0 0.72 -0.2 1.08 -0.4 c0.08 -0.04 0.2 -0.08 0.28 -0.08 l0.04 0 l0.04 0.08 l-0.08 0.04 c-0.04 0.04 -0.08 0.08 -0.08 0.16 l0.04 0.04 l0.08 -0.08 c0.08 -0.04 0.12 -0.16 0.12 -0.24 l0 -0.04 c0 -0.12 0.2 -0.24 0.32 -0.24 l0.12 0.04 l0.16 0.08 c0.04 0 0.08 -0.04 0.08 -0.08 l-0.04 -0.12 l0.08 -0.12 c0.12 -0.12 0.28 -0.2 0.36 -0.2 c0.04 0 0.04 0 0.04 0.04 l0 0.04 c0 0.08 0.08 0.12 0.24 0.12 l0.24 -0.04 c0.12 -0.04 0.2 -0.12 0.2 -0.16 l-0.04 -0.16 c0 -0.04 0 -0.08 0.04 -0.08 s0.04 0 0.04 -0.04 l-0.08 -0.04 l-0.08 -0.08 c0.08 0 0.16 0 0.28 0.08 l0.16 0.04 l0.08 -0.04 c0.04 -0.08 0.16 -0.12 0.24 -0.12 l0.16 0 l-0.12 -0.04 c-0.08 -0.04 -0.16 -0.12 -0.2 -0.2 l0.04 -0.08 l0.08 0 c0.08 0 0.16 -0.04 0.24 -0.12 c0.08 -0.12 0.16 -0.16 0.36 -0.16 l0.2 0 c0.2 0 0.32 0 0.32 -0.04 l-0.08 -0.08 l-0.04 -0.12 l0.16 0.04 c0.08 0 0.12 0 0.12 -0.04 c0.04 -0.08 0.12 -0.08 0.2 -0.08 l0.04 0 c0.04 0 0.12 -0.08 0.16 -0.16 c0.04 -0.2 0.16 -0.28 0.36 -0.28 c0.16 0 0.28 -0.04 0.28 -0.08 l-0.04 -0.08 c0 -0.16 0.2 -0.4 0.32 -0.4 s0.28 -0.12 0.36 -0.24 c0.12 -0.12 0.2 -0.2 0.24 -0.2 l0.08 0 c0.04 0 0.04 0 0.04 -0.04 c0 -0.08 0.08 -0.12 0.16 -0.12 c0.12 0 0.44 -0.2 0.72 -0.44 s0.6 -0.44 0.76 -0.44 c0.12 0 0.24 -0.04 0.28 -0.12 c0 -0.08 0.12 -0.16 0.2 -0.2 c0.12 -0.04 0.28 -0.16 0.32 -0.28 c0.12 -0.16 0.28 -0.2 0.72 -0.24 c0.04 0 0.08 -0.04 0.08 -0.08 l-0.04 -0.12 c0 -0.12 0.08 -0.16 0.24 -0.24 l0.32 -0.08 l0.12 0 l-0.08 -0.16 l0.08 -0.16 l-0.04 -0.2 l0.04 -0.04 l0.12 0.04 c0.12 0 0.32 -0.08 0.52 -0.2 s0.44 -0.24 0.52 -0.24 s0.12 0 0.12 -0.08 l-0.08 -0.24 c0 -0.04 0.04 -0.04 0.08 -0.04 l0.08 0.04 c0.04 0 0.08 -0.04 0.12 -0.08 c0 -0.04 0.08 -0.04 0.12 -0.04 l0.16 0 l-0.04 -0.08 c0 -0.04 0.04 -0.04 0.12 -0.04 l0.04 0 c0.08 0 0.12 -0.08 0.12 -0.16 l0 -0.04 c0 -0.12 0.08 -0.2 0.2 -0.28 c0.16 -0.08 0.28 -0.2 0.28 -0.28 c0.04 -0.08 0.12 -0.12 0.24 -0.12 c0.08 0 0.2 -0.12 0.24 -0.24 s0.16 -0.28 0.24 -0.28 c0.2 -0.08 0.92 -0.88 0.92 -1.04 l0 -0.04 c0 -0.04 0 -0.04 0.04 -0.04 l0.12 0 c0.16 0 0.32 -0.08 0.52 -0.32 c0.12 -0.16 0.32 -0.28 0.4 -0.28 s0.12 -0.04 0.12 -0.08 l-0.04 -0.08 l-0.12 0.04 l0.28 -0.36 c0.32 -0.4 1 -1.6 1 -1.72 l0.2 -0.4 c0.24 -0.32 0.4 -0.84 0.4 -1.08 l-0.08 -0.2 l0.08 -0.2 c0 -0.2 -0.32 -0.36 -0.92 -0.6 c-1.08 -0.44 -2.52 -0.64 -4.52 -0.64 l-0.2 0 c-1.04 0 -3.12 0.24 -4.24 0.48 c-0.28 0.08 -0.64 0.12 -0.8 0.12 c-0.16 0.04 -0.36 0.08 -0.4 0.12 s-0.32 0.08 -0.56 0.12 c-0.72 0.08 -1.12 0.2 -1.12 0.32 c0 0.04 -0.12 0.12 -0.32 0.16 c-0.16 0.04 -0.4 0.08 -0.52 0.16 l-0.36 0.12 c-0.48 0.04 -0.8 0.28 -0.88 0.64 l-0.04 0.24 l0.04 0.12 c0.04 0 0.08 -0.04 0.08 -0.12 l0 -0.04 l0.04 0.08 c0 0.24 -0.12 0.76 -0.32 1.44 s-0.24 0.88 -0.32 0.88 l-0.08 -0.04 l-0.08 -0.16 l0 -0.08 l-0.08 0 c-0.04 0 -0.08 0.04 -0.08 0.12 s-0.04 0.2 -0.12 0.24 c-0.04 0.08 -0.08 0.24 -0.08 0.36 l0 0.12 c0 0.04 0 0.12 -0.04 0.12 c-0.08 0 -0.08 0.04 -0.08 0.08 c0 0.08 0.08 0.12 0.2 0.12 c0.16 0 0.28 0.16 0.28 0.28 c0 0.08 -0.04 0.12 -0.12 0.16 c-0.04 0.04 -0.08 0.12 -0.08 0.2 l0 0.12 c0 0.12 -0.04 0.48 -0.12 0.72 l-0.16 0.56 c0 0.08 0 0.12 -0.08 0.16 c-0.08 0.08 -0.16 0.32 -0.16 0.48 l0 0.08 l-0.08 0.04 c-0.04 0 -0.08 -0.04 -0.08 -0.08 s-0.04 -0.08 -0.08 -0.08 c-0.08 0 -0.28 0.2 -0.32 0.36 c0 0.16 0.04 0.24 0.12 0.24 c0.04 0 0.08 -0.04 0.08 -0.16 s0.08 -0.16 0.12 -0.16 s0.12 0.08 0.12 0.24 c0 0.2 -0.04 0.28 -0.2 0.28 s-0.28 0.04 -0.28 0.12 c0 0.04 0.04 0.08 0.12 0.08 l0.24 -0.04 c0.08 0 0.12 0.04 0.12 0.08 s-0.04 0.12 -0.12 0.2 l-0.08 0.16 l0 0.08 c0 0.16 -0.04 0.44 -0.12 0.44 l-0.04 0.04 l0.04 0.24 c0 0.08 -0.04 0.12 -0.08 0.16 l-0.12 0.04 c-0.08 0 -0.12 -0.04 -0.12 -0.16 l0.08 -0.44 c0.08 -0.28 0.12 -0.52 0.12 -0.6 l-0.04 -0.04 c-0.08 0 -0.24 0.32 -0.24 0.52 c0 0.16 -0.04 0.28 -0.08 0.32 l-0.12 0.32 l-0.2 0.68 l-0.08 0.52 l0 0.08 c0 0.08 -0.04 0.16 -0.08 0.16 c-0.08 0.04 -0.12 0.16 -0.12 0.32 l0 0.12 c0 0.12 -0.04 0.24 -0.08 0.28 l-0.04 0.12 l0.04 0.04 l-0.12 0.32 c-0.12 0.2 -0.16 0.36 -0.16 0.44 s0 0.12 0.08 0.12 c0.04 0 0.12 0.04 0.12 0.08 l-0.04 0.08 l-0.2 -0.04 c-0.04 0 -0.04 0 -0.04 0.08 l0.04 0.36 l0.04 0.12 c0 0.04 -0.04 0.04 -0.04 0.04 l-0.12 -0.04 l0 0.08 c0 0.08 -0.04 0.2 -0.08 0.28 c-0.12 0.16 -0.16 0.36 -0.16 0.52 s-0.04 0.4 -0.12 0.56 c-0.08 0.12 -0.12 0.24 -0.12 0.32 l0.04 0.24 c0 0.08 -0.04 0.12 -0.08 0.12 s-0.08 0.04 -0.08 0.08 l0.04 0.08 l0 0.12 l-0.04 0.24 l-0.08 0.16 l0 0.08 c0 0.08 -0.04 0.2 -0.08 0.28 c-0.08 0.12 -0.2 0.44 -0.24 0.72 l-0.24 1.12 c-0.12 0.32 -0.16 0.56 -0.16 0.76 c0 0.16 0.04 0.24 0.12 0.24 c0.12 0 0.28 -0.24 0.28 -0.36 l-0.04 -0.2 l0.04 -0.04 c0.12 0 0.16 -0.2 0.16 -0.36 c0 -0.08 0 -0.16 -0.04 -0.16 s-0.04 -0.04 -0.04 -0.08 s0 -0.04 0.08 -0.08 l0.16 -0.08 l0.04 0.08 l-0.12 0.52 c-0.08 0.28 -0.12 0.52 -0.12 0.64 l0 0.04 l-0.44 1.84 c-0.08 0.4 -0.16 0.64 -0.24 0.64 c-0.04 0 -0.08 -0.12 -0.08 -0.32 s-0.04 -0.36 -0.08 -0.36 c-0.12 0 -0.4 0.68 -0.4 0.96 l0.04 0.08 c0.04 0.04 0.04 0.12 0.04 0.2 l0 0.12 c-0.04 0.16 -0.04 0.36 -0.04 0.48 s-0.04 0.28 -0.12 0.32 l-0.04 0.08 c0 0.04 0 0.08 0.08 0.12 l0.12 0.08 l-0.12 0 c-0.08 0 -0.16 0.08 -0.16 0.16 l0 0.12 c0 0.08 -0.04 0.2 -0.08 0.24 c-0.04 0.12 -0.08 0.32 -0.08 0.44 l0 0.12 c0 0.16 -0.04 0.32 -0.08 0.48 s-0.08 0.32 -0.08 0.44 l0.04 0.2 l-0.08 0.16 c-0.04 0.12 -0.08 0.28 -0.08 0.4 l0 0.12 c0 0.08 -0.04 0.12 -0.12 0.16 s-0.16 0.08 -0.16 0.12 l0 0.12 l-0.04 0.08 c-0.12 0 -0.16 0.04 -0.16 0.08 l0.16 0.08 l0.16 0 l-0.2 0.12 c-0.12 0.04 -0.16 0.08 -0.16 0.12 l0.04 0.04 c0.12 0 0.2 0 0.2 0.04 l0 0.12 c0.08 0.16 0.12 0.32 0.12 0.48 c0 0.12 0 0.24 -0.04 0.32 l-0.04 0.28 l0.04 0.2 l0.08 0.16 c0.04 0 0.08 -0.08 0.12 -0.2 c0.04 -0.16 0.04 -0.32 0.04 -0.36 l-0.04 -0.08 l0.08 -0.16 l0.04 -0.24 l0 -0.08 l-0.04 -0.04 c0 -0.04 0.04 -0.04 0.12 -0.04 l0.12 0 c0.08 0 0.08 0.08 0.08 0.2 s0 0.28 -0.08 0.4 c-0.04 0.12 -0.04 0.32 -0.04 0.48 l-0.12 0.92 c0 0.04 0 0.12 0.04 0.12 c0.08 0.12 0.2 0.72 0.2 1 l-0.04 0.12 l0 0.44 c0 0.08 0 0.12 -0.04 0.12 l-0.12 0 l-0.16 0.08 c-0.08 0.12 -0.12 0.16 -0.2 0.16 z M21.32 5 c0.08 0 0.12 -0.04 0.12 -0.04 c0 -0.04 -0.08 -0.08 -0.12 -0.12 l-0.08 0 l0 0.04 c0 0.08 0.04 0.12 0.08 0.12 z M22.28 5.560000000000002 l-0.04 -0.12 l-0.16 -0.16 l-0.08 0.04 l0 0.04 c0 0.08 0.08 0.12 0.28 0.2 z M20.04 5.399999999999999 l0.08 -0.04 l-0.04 -0.04 c0 -0.04 -0.04 -0.04 -0.04 -0.04 l-0.08 0.04 l0 0.04 z M21.68 5.399999999999999 l0.08 -0.04 l0 -0.04 l-0.08 -0.04 l-0.08 0.04 c0 0.04 0.04 0.08 0.08 0.08 z M23.24 5.640000000000001 l0.08 -0.04 c0.08 0 0.16 -0.08 0.16 -0.08 c-0.04 -0.04 -0.08 -0.04 -0.16 -0.04 s-0.16 0.04 -0.16 0.08 z M17.92 5.560000000000002 l0 -0.04 l-0.08 -0.04 l-0.08 0.04 c0 0.04 0 0.04 0.08 0.04 l0.08 0 z M22.68 5.560000000000002 l-0.04 -0.04 c0 -0.04 -0.04 -0.04 -0.04 -0.04 c-0.04 0 -0.08 0 -0.08 0.04 l0 0.04 l0.16 0 z M19.08 5.640000000000001 l-0.04 -0.04 l-0.24 0 l-0.04 0.04 l0.32 0 z M24.2 5.880000000000003 c0.04 0 0.08 -0.04 0.08 -0.12 l-0.04 -0.08 c-0.04 0 -0.08 0.04 -0.12 0.08 c0 0.08 0 0.12 0.08 0.12 z M19.2 5.960000000000001 c0.12 0 0.2 -0.04 0.2 -0.04 l0 -0.04 l-0.32 0 l-0.04 0.04 c0 0.04 0.04 0.04 0.16 0.04 z M17.16 6.200000000000003 c0.12 0 0.28 -0.04 0.28 -0.12 l-0.24 -0.04 c-0.12 0 -0.2 0.04 -0.2 0.08 l0 0.04 c0.04 0.04 0.08 0.04 0.16 0.04 z M20.64 6.159999999999997 c0.12 0 0.16 0 0.16 -0.04 l-0.04 -0.04 l-0.24 0 l0 0.04 s0.04 0.04 0.12 0.04 z M16.68 6.240000000000002 l-0.04 -0.04 c0 -0.04 -0.04 -0.04 -0.04 -0.04 l-0.08 0.04 l0 0.04 l0.16 0 z M16.24 6.359999999999999 l0.08 -0.04 l-0.04 -0.04 l-0.08 -0.04 l-0.04 0.08 z M20.24 6.600000000000001 c0.12 0 0.2 0 0.28 -0.08 l0.08 -0.04 l-0.04 -0.04 l-0.16 0.04 c-0.16 0 -0.28 0 -0.32 -0.04 l-0.12 -0.04 l-0.32 0.08 l0.2 0.08 z M22.28 6.560000000000002 c0.16 0 0.28 -0.04 0.28 -0.08 l-0.32 -0.04 c-0.16 0 -0.24 0 -0.24 0.04 l0.08 0.04 c0.04 0.04 0.12 0.04 0.2 0.04 z M21.44 6.520000000000003 l-0.16 -0.08 l-0.12 0.04 l0 0.04 l0.28 0 z M20.8 6.600000000000001 l0 -0.04 l-0.04 -0.08 l-0.04 0 l0 0.08 l0.04 0.04 l0.04 0 z M19.44 6.640000000000001 l0 -0.04 l-0.16 -0.08 c-0.08 -0.04 -0.12 -0.04 -0.2 -0.04 c-0.04 0 -0.08 0 -0.12 0.04 c0 0.04 0.08 0.08 0.24 0.08 z M23.56 6.68 c0.12 0 0.2 0 0.2 -0.04 c-0.04 -0.08 -0.12 -0.08 -0.24 -0.08 c-0.08 0 -0.16 0 -0.2 0.04 c0 0.04 0.08 0.08 0.24 0.08 z M16.08 6.640000000000001 l0.08 -0.04 l-0.04 -0.04 l-0.12 0 l0 0.04 z M17.64 7.039999999999999 l0 -0.2 c0 -0.08 0 -0.12 -0.04 -0.16 l-0.08 -0.04 c-0.04 0 -0.04 0.04 -0.04 0.12 l0.04 0.16 c0.08 0.08 0.08 0.12 0.12 0.12 z M18.84 6.840000000000003 l0.08 -0.04 l-0.04 -0.04 l-0.12 0 l0 0.04 z M17.36 6.920000000000002 l0 -0.04 l-0.08 -0.04 c-0.04 0 -0.04 0 -0.04 0.04 l0 0.04 l0.12 0 z M16.56 7.119999999999997 c0.04 0 0.08 -0.04 0.12 -0.08 l0.04 -0.08 l-0.04 -0.04 c-0.04 0 -0.12 0 -0.2 -0.04 l-0.08 -0.04 l-0.04 0.04 l0.04 0.08 c0.04 0.12 0.12 0.16 0.16 0.16 z M16.08 7.119999999999997 c0.08 0 0.16 0 0.16 -0.04 l-0.08 -0.08 c-0.04 -0.04 -0.08 -0.04 -0.12 -0.04 s-0.08 0 -0.12 0.04 l-0.04 0.08 c0 0.04 0.08 0.04 0.2 0.04 z M15.44 7.32 c0.08 0 0.12 -0.04 0.12 -0.04 c0 -0.04 -0.04 -0.04 -0.08 -0.04 l-0.08 0 l-0.04 0.04 c0 0.04 0.04 0.04 0.08 0.04 z M13.32 7.399999999999999 c0.08 0 0.12 -0.04 0.12 -0.04 l0 -0.04 l-0.08 -0.04 l-0.12 0 l-0.12 0.08 c0 0.04 0.08 0.04 0.2 0.04 z M14.96 7.600000000000001 c0.04 0 0.12 0 0.2 -0.08 l0.08 -0.08 l-0.04 -0.08 l-0.04 0 l-0.16 0.08 z M14.68 7.520000000000003 l0.08 -0.04 l-0.04 -0.04 l-0.12 0 l0 0.04 z M12.96 7.799999999999997 l0.08 -0.04 l-0.08 -0.04 s-0.04 0 -0.04 0.04 c0 0 0 0.04 0.04 0.04 z M12.72 8.280000000000001 l0 -0.2 c0 -0.08 -0.04 -0.12 -0.08 -0.12 l-0.04 0 l-0.04 0.08 l0.04 0.12 c0.04 0.08 0.08 0.12 0.12 0.12 z M29.04 9.04 l0.04 -0.08 l-0.04 -0.04 c0 -0.04 -0.04 -0.04 -0.04 -0.04 c-0.04 0 -0.04 0.04 -0.04 0.08 c0.04 0.04 0.04 0.08 0.08 0.08 z M11.6 10.32 c0.04 0 0.08 -0.08 0.12 -0.2 l0.04 -0.48 l0.04 -0.12 l-0.04 -0.04 l-0.12 0.2 c-0.08 0.16 -0.12 0.36 -0.12 0.48 c0 0.08 0.04 0.16 0.08 0.16 z M7.36 10.239999999999998 l0.08 -0.04 l0 -0.04 l-0.16 0 c0 0.04 0 0.08 0.08 0.08 z M11.24 11.36 c0.04 0 0.08 -0.08 0.16 -0.2 c0.04 -0.12 0.12 -0.24 0.16 -0.24 l0.04 -0.04 l-0.04 -0.16 c0 -0.08 0.04 -0.12 0.12 -0.12 s0.16 0 0.16 -0.04 l0 -0.04 c-0.04 -0.04 -0.08 -0.04 -0.16 -0.04 l-0.12 0 c-0.12 0 -0.2 0.04 -0.2 0.16 l0 0.12 c0 0.16 -0.04 0.32 -0.08 0.4 c-0.04 0.04 -0.04 0.12 -0.04 0.2 z M6.36 10.8 c0.08 0 0.16 -0.04 0.28 -0.12 l0.08 -0.12 c0 -0.04 0 -0.04 -0.08 -0.04 s-0.2 0.08 -0.28 0.16 l-0.04 0.08 c0 0.04 0 0.04 0.04 0.04 z M7.36 10.719999999999999 l0.08 -0.04 l-0.04 -0.04 l-0.12 0 l0 0.04 z M7.04 11 c0.04 0 0.08 -0.04 0.08 -0.08 l0.04 -0.08 l-0.04 -0.04 l-0.08 0.12 l0 0.08 z M29.2 10.920000000000002 l0.08 -0.04 l-0.08 -0.08 l-0.08 0.04 l0 0.04 z M6.48 11.120000000000001 c0.04 0 0.08 -0.04 0.08 -0.12 l0.04 -0.04 l-0.04 -0.04 l-0.12 0.16 z M6.48 11.399999999999999 c0.08 0 0.24 -0.08 0.32 -0.16 s0.12 -0.12 0.12 -0.16 l-0.28 0.04 c-0.12 0.08 -0.24 0.12 -0.24 0.2 c0 0.04 0.04 0.08 0.08 0.08 z M3.84 11.48 c0 0 0.08 -0.04 0.12 -0.16 l0.08 -0.12 l-0.12 0.08 l-0.12 0.16 c0 0.04 0 0.04 0.04 0.04 z M5.32 11.600000000000001 l0.08 -0.12 l0 -0.08 c-0.04 0 -0.08 0.04 -0.12 0.08 c0 0.08 0 0.12 0.04 0.12 z M5.96 11.719999999999999 c0.08 -0.04 0.16 -0.08 0.16 -0.12 l0 -0.04 c0 -0.04 0 -0.04 -0.04 -0.04 l-0.08 0 c-0.08 0 -0.2 0.04 -0.2 0.12 l0 0.04 c0 0.04 0.04 0.04 0.08 0.04 l0.08 0 z M28.88 12.36 c0.12 0 0.24 -0.04 0.28 -0.12 c0 -0.08 0 -0.12 -0.08 -0.12 l-0.12 0.04 c-0.12 0 -0.2 0.08 -0.2 0.12 s0.08 0.08 0.12 0.08 z M10 12.68 c0.04 0 0.12 -0.08 0.2 -0.16 c0.12 -0.12 0.16 -0.24 0.16 -0.24 l-0.04 0 c-0.08 0.04 -0.32 0.32 -0.32 0.4 z M28.64 12.84 c0.08 -0.04 0.16 -0.12 0.16 -0.16 c0 -0.08 0 -0.12 -0.04 -0.12 c-0.08 0 -0.2 0.08 -0.2 0.2 c0 0.04 0.04 0.08 0.08 0.08 z M5.04 12.96 c0.04 0 0.08 -0.04 0.08 -0.12 l0 -0.04 l-0.12 -0.08 l-0.28 -0.04 c0 0.04 0.04 0.08 0.08 0.12 c0.08 0.08 0.16 0.16 0.24 0.16 z M4.52 12.84 c0.04 0 0.04 -0.04 0.04 -0.04 l-0.08 -0.04 s-0.04 0 -0.04 0.04 z M10.8 14.36 l0.08 -0.04 l0.04 -0.08 l-0.2 -0.4 l0.04 -0.08 c0.04 0 0.12 0 0.16 0.08 l-0.04 -0.08 l-0.04 -0.16 c0 -0.04 0.04 -0.08 0.08 -0.12 c0.08 -0.04 0.08 -0.08 0.08 -0.12 c0 -0.08 0 -0.12 -0.04 -0.2 c-0.04 -0.12 -0.04 -0.16 -0.08 -0.2 c-0.04 0 -0.08 0.08 -0.12 0.2 c-0.08 0.12 -0.12 0.32 -0.12 0.44 s0 0.24 -0.04 0.28 c-0.04 0 -0.08 0.12 -0.08 0.24 l0 0.08 c0 0.04 0 0.04 0.04 0.04 l0.12 0 c0.04 0 0.08 0.04 0.08 0.08 s0 0.04 0.04 0.04 z M27.48 13.8 l0.08 -0.04 l0.04 -0.08 l0 -0.08 s0 -0.04 -0.04 -0.04 l-0.04 0 l-0.08 0.16 z M25.64 14.120000000000001 l0.08 -0.04 l0 -0.04 l-0.08 -0.04 l-0.04 0.08 s0 0.04 0.04 0.04 z M9.68 14.600000000000001 l0.2 -0.24 l-0.08 -0.04 c-0.04 0 -0.12 0.04 -0.12 0.12 l0 0.16 z M25.4 14.48 c0.12 0 0.2 -0.04 0.2 -0.08 c0 -0.08 -0.04 -0.08 -0.08 -0.08 s-0.12 0 -0.2 0.08 l-0.08 0.08 l0.16 0 z M10.52 14.68 c0.08 0 0.08 -0.04 0.08 -0.16 c0 -0.04 -0.04 -0.08 -0.08 -0.08 l-0.04 0 l-0.08 0.16 c0.04 0.04 0.08 0.08 0.12 0.08 z M24.16 14.8 c0.08 0 0.16 -0.04 0.24 -0.12 l0.08 -0.08 l-0.04 0 c-0.08 0 -0.16 0.04 -0.24 0.08 l-0.08 0.08 z M24.72 14.879999999999999 l0.08 -0.04 l-0.04 -0.04 l-0.12 0 l0 0.04 z M10.32 15.280000000000001 c0.08 0 0.16 -0.08 0.2 -0.16 l0.04 -0.12 l-0.04 -0.08 c0 -0.04 -0.04 -0.04 -0.08 -0.04 c-0.12 0 -0.24 0.12 -0.24 0.24 c0.04 0.08 0.08 0.16 0.12 0.16 z M7.44 15.16 l0.08 -0.04 c0.04 -0.08 0.04 -0.16 0.04 -0.2 l-0.04 0 c-0.04 0 -0.08 0.04 -0.08 0.12 l0 0.12 z M23.8 15.32 l0.12 -0.04 c0.08 0 0.16 -0.08 0.16 -0.12 s0 -0.08 -0.04 -0.08 l-0.2 0.04 c-0.08 0.04 -0.12 0.12 -0.12 0.12 c0 0.04 0 0.08 0.08 0.08 z M9.24 15.64 l0.16 -0.16 c0.12 -0.12 0.16 -0.24 0.16 -0.24 c-0.08 0 -0.12 0.08 -0.2 0.2 z M8.12 16.04 l0.08 -0.04 l-0.08 -0.04 c-0.04 0 -0.04 0 -0.04 0.04 z M24.48 16.36 l0.28 -0.04 l-0.2 -0.12 l-0.16 -0.04 c-0.08 0 -0.12 0 -0.12 0.08 l0.04 0.08 c0.04 0.04 0.08 0.04 0.16 0.04 z M24.08 16.32 l-0.04 -0.04 c0 -0.04 -0.04 -0.04 -0.08 -0.04 c0 0 -0.04 0 -0.04 0.04 l0 0.04 l0.16 0 z M22.96 16.44 c0.04 0 0.04 -0.04 0.04 -0.04 l0 -0.04 l-0.12 0 l0 0.04 z M21.92 16.72 l0.24 -0.12 l0.08 -0.12 l-0.04 -0.04 c-0.2 0 -0.4 0.12 -0.4 0.2 c0 0.04 0.04 0.08 0.12 0.08 z M22.84 16.88 c0.04 0 0.08 -0.04 0.12 -0.08 l0.08 -0.08 c0 -0.04 -0.04 -0.08 -0.12 -0.12 c-0.04 -0.04 -0.12 -0.04 -0.16 -0.04 l-0.16 0.08 c-0.04 0.04 -0.08 0.04 -0.08 0.08 l0.16 -0.04 c0.08 0 0.12 0.04 0.12 0.12 z M23.6 17 c0.08 0 0.12 -0.04 0.16 -0.08 c0 -0.04 -0.04 -0.08 -0.12 -0.08 s-0.12 0.04 -0.12 0.04 l0 0.04 c0 0.04 0.04 0.08 0.08 0.08 z M22.6 17 c0.08 0 0.12 0 0.12 -0.04 l-0.08 -0.04 c-0.04 0 -0.08 0 -0.12 0.04 l-0.04 0.04 l0.12 0 z M24.64 17.36 c0.04 0 0.12 -0.04 0.2 -0.12 l0.08 -0.16 l0 -0.04 c-0.12 0 -0.28 0.24 -0.28 0.32 z M22.24 17.36 c0.04 0 0.08 0 0.08 -0.04 l0.08 -0.12 l-0.04 -0.04 l-0.08 -0.04 c-0.08 0 -0.12 0.08 -0.12 0.16 l0 0.04 z M20.36 18.12 l0.2 -0.08 c0.12 -0.08 0.2 -0.16 0.2 -0.2 l-0.08 -0.12 c0 -0.04 0.04 -0.04 0.12 -0.04 s0.28 -0.08 0.36 -0.24 c0.12 -0.12 0.16 -0.2 0.16 -0.24 l-0.04 -0.04 c-0.04 0 -0.12 0.04 -0.24 0.16 c-0.08 0.12 -0.28 0.24 -0.36 0.24 c-0.12 0 -0.2 0.08 -0.2 0.16 c0 0.04 -0.04 0.12 -0.16 0.12 c-0.08 0 -0.16 0 -0.16 0.08 c0.04 0.04 0.08 0.08 0.12 0.08 c0.08 0 0.08 0.04 0.08 0.08 l0 0.04 z M21.76 17.68 l0 -0.04 l-0.08 -0.04 l-0.08 0.04 c0 0.04 0.04 0.04 0.08 0.04 l0.08 0 z M19.64 17.88 l0.08 -0.08 l0 -0.08 c0 -0.04 0 -0.04 -0.04 -0.04 c-0.08 0 -0.12 0.04 -0.12 0.12 c0.04 0.04 0.04 0.08 0.08 0.08 z M22.28 18.2 c0.04 0 0.12 -0.04 0.16 -0.12 c0.08 -0.12 0.24 -0.2 0.32 -0.2 s0.08 0 0.08 -0.04 l-0.04 0 c0 -0.04 -0.04 -0.04 -0.08 -0.04 c-0.16 0.04 -0.44 0.2 -0.44 0.36 l0 0.04 z M20 18.08 l0.08 -0.04 l0 -0.04 c0 -0.08 -0.04 -0.12 -0.08 -0.12 s-0.08 0.04 -0.08 0.08 l0 0.04 c0 0.04 0.04 0.08 0.08 0.08 z M9.8 18.92 l-0.04 -0.04 l-0.08 -0.16 l0.04 -0.16 c0 -0.12 0 -0.28 -0.04 -0.36 l0 -0.04 c0 -0.12 0.12 -0.24 0.24 -0.24 l0.08 0 c0.04 0.04 0.08 0.08 0.08 0.16 c0 0.12 -0.08 0.28 -0.16 0.36 c-0.04 0.04 -0.08 0.2 -0.08 0.32 s0 0.16 -0.04 0.16 z M22.08 18.2 c0.04 0 0.08 -0.04 0.08 -0.08 l-0.16 -0.12 l-0.04 0.08 c0 0.04 0.04 0.12 0.12 0.12 z M20.96 18.28 c0.08 0 0.16 -0.08 0.16 -0.16 l0 -0.08 c-0.04 0 -0.08 0 -0.12 0.04 c-0.12 0.08 -0.2 0.12 -0.2 0.16 z M8.56 18.52 c0.04 0 0.08 -0.04 0.16 -0.16 c0.08 -0.08 0.08 -0.16 0.08 -0.2 s0 -0.08 -0.04 -0.08 l-0.04 0 c-0.12 0.04 -0.2 0.2 -0.2 0.4 z M20.04 18.44 l-0.08 -0.08 c-0.08 -0.04 -0.2 -0.08 -0.28 -0.08 s-0.12 0 -0.12 0.08 c0 0.04 0.16 0.08 0.28 0.08 l0.2 0 z M19.08 18.36 l-0.04 -0.04 c0 -0.04 -0.04 -0.04 -0.08 -0.04 c0 0 -0.04 0 -0.04 0.04 l0 0.04 l0.16 0 z M20.28 18.48 l0.08 -0.04 l-0.04 -0.04 l-0.08 -0.04 l-0.04 0.08 z M22.12 18.48 l0.08 -0.04 l-0.04 -0.04 l-0.08 -0.04 l-0.04 0.08 z M20.4 18.64 c0.12 0 0.24 0 0.32 -0.04 s0.12 -0.12 0.12 -0.16 s0 -0.04 -0.04 -0.04 l-0.48 0.24 l0.08 0 z M21.44 18.76 l0.08 -0.08 l0 -0.12 c-0.04 0 -0.08 0.04 -0.12 0.12 c0 0.04 0 0.08 0.04 0.08 z M19.16 18.84 c0.04 0 0.08 -0.04 0.08 -0.08 c0 -0.08 0.04 -0.08 0.08 -0.08 l0.08 0.04 l0.2 -0.12 c0 -0.04 -0.08 -0.04 -0.16 -0.04 c-0.12 0 -0.24 0.08 -0.28 0.16 l-0.04 0.08 c0 0.04 0 0.04 0.04 0.04 z M21.72 18.88 c0.04 0 0.04 -0.08 0.08 -0.16 l0 -0.12 l-0.04 0 l-0.08 0.16 z M7.12 18.84 l0 -0.04 l-0.08 -0.08 l-0.08 -0.04 l-0.04 0.08 c0.04 0.04 0.08 0.08 0.12 0.08 l0.08 0 z M18.96 18.96 l0 -0.12 c0 -0.04 -0.04 -0.08 -0.12 -0.08 l-0.04 0.04 l0.04 0.04 c0.04 0.08 0.08 0.12 0.12 0.12 z M22.92 18.84 l0 -0.04 l-0.08 -0.04 c-0.04 0 -0.04 0 -0.04 0.04 l0 0.04 l0.12 0 z M19.8 19.04 c0.04 0 0.08 -0.04 0.08 -0.08 c-0.04 -0.08 -0.04 -0.12 -0.08 -0.12 l-0.08 0.16 z M21.44 19.04 l0.08 -0.04 l-0.04 0 c0 -0.04 -0.04 -0.04 -0.08 -0.04 c0 0 -0.04 0 -0.04 0.04 z M8.44 19.2 l-0.04 -0.16 c0 -0.04 0 -0.04 -0.04 -0.04 l0 0.08 c0 0.08 0.04 0.12 0.04 0.12 l0.04 0 z M9.56 19.84 c-0.08 0 -0.12 -0.08 -0.16 -0.12 l-0.04 -0.12 c0 -0.2 0.16 -0.56 0.24 -0.56 c0.04 0 0.08 0.04 0.08 0.08 l-0.12 0.4 l0.04 0.24 c0 0.04 0 0.08 -0.04 0.08 z M19.32 19.4 c0.12 0 0.2 -0.08 0.2 -0.12 l0 -0.04 c0 -0.04 -0.08 -0.08 -0.2 -0.08 s-0.2 0.04 -0.2 0.08 l0.08 0.12 z M18.64 19.24 l0.08 -0.04 l0 -0.04 l-0.16 0 c0 0.04 0.04 0.08 0.08 0.08 z M19.92 20.2 c0.08 0 0.16 -0.08 0.16 -0.24 c0.04 -0.12 0.08 -0.2 0.16 -0.2 l0.04 0 c0.04 0 0.16 -0.12 0.24 -0.24 l0.12 -0.24 c0 -0.04 0 -0.04 -0.04 -0.04 c-0.08 0 -0.6 0.44 -0.6 0.52 l0 0.04 l-0.08 0.2 l-0.12 0.16 c0 0.04 0.04 0.04 0.12 0.04 z M6.76 19.52 l0.16 -0.08 l0 -0.08 c0 -0.04 0 -0.08 -0.04 -0.08 c0 0 -0.08 0.04 -0.12 0.12 l-0.04 0.08 c0 0.04 0 0.04 0.04 0.04 z M8.2 20.28 l0.08 -0.04 c0.08 -0.04 0.12 -0.16 0.12 -0.28 l0 -0.08 c0 -0.12 0.04 -0.2 0.08 -0.24 l0.04 -0.08 c0 -0.04 -0.04 -0.08 -0.12 -0.12 c-0.04 -0.04 -0.08 -0.04 -0.12 -0.04 s-0.04 0.04 -0.04 0.08 c0 0.08 -0.04 0.16 -0.12 0.16 l-0.04 0.04 l0.08 0.08 c0.08 0.08 0.12 0.12 0.12 0.2 l-0.16 0.24 z M21.96 19.52 l0 -0.04 c0 -0.04 -0.04 -0.04 -0.08 -0.04 l-0.16 0.04 c0 0.04 0.04 0.04 0.12 0.04 l0.12 0 z M16.76 21.28 c0.08 0 0.24 -0.04 0.44 -0.2 c0.16 -0.16 0.28 -0.24 0.32 -0.24 l0 0.08 c0 0.04 0 0.08 0.04 0.08 c0.08 0 0.12 -0.04 0.12 -0.12 s0.12 -0.16 0.28 -0.24 c0.32 -0.16 0.72 -0.6 0.72 -0.76 l0 -0.04 c-0.04 0 -0.12 0.04 -0.16 0.12 s-0.12 0.16 -0.16 0.16 c-0.08 0 -0.28 0.12 -0.44 0.28 s-0.36 0.28 -0.44 0.28 c-0.12 0 -0.6 0.28 -0.84 0.48 l0.08 0.12 l0.04 0 z M19.28 20.2 c0.08 0 0.12 -0.04 0.16 -0.08 c0 -0.04 0.04 -0.08 0.08 -0.08 l0.12 0.04 l0 -0.04 c-0.04 -0.04 -0.08 -0.04 -0.12 -0.04 l-0.08 0 c-0.12 0 -0.24 0.04 -0.24 0.08 l0 0.04 c0 0.04 0.04 0.08 0.08 0.08 z M19.56 20.4 c0.04 0 0.08 -0.04 0.08 -0.08 l0.04 -0.08 l-0.04 -0.04 l-0.12 0.16 z M20.6 20.4 l0.12 -0.04 c0.04 -0.04 0.08 -0.08 0.08 -0.12 c0 0 0 -0.04 -0.04 -0.04 s-0.08 0.04 -0.12 0.08 z M17 20.4 l0.08 -0.04 l-0.04 -0.04 l-0.12 0 l0 0.04 z M16.76 20.6 c0.04 0 0.08 -0.04 0.08 -0.08 c-0.04 -0.08 -0.08 -0.12 -0.12 -0.12 c-0.08 0 -0.08 0.04 -0.08 0.12 c0 0.04 0.04 0.08 0.12 0.08 z M8.28 20.8 c0.08 0 0.12 -0.04 0.12 -0.04 l0 -0.04 l-0.2 0 l-0.04 0.04 z M6.88 21 l0.08 -0.12 c0 -0.04 0 -0.08 -0.08 -0.08 c-0.04 0 -0.08 0.04 -0.08 0.08 c0 0.08 0.04 0.12 0.08 0.12 z M6.6 20.96 c0 -0.04 0 -0.12 -0.04 -0.12 c0 -0.04 0 -0.04 -0.04 -0.04 l0 0.08 l0.04 0.08 l0.04 0 z M7.96 21.08 l0.08 -0.08 c0 -0.08 0 -0.12 -0.08 -0.12 c-0.04 0 -0.08 0.04 -0.08 0.12 c0 0.04 0.04 0.08 0.08 0.08 z M17.84 21.28 l0.36 -0.12 c0.12 -0.04 0.24 -0.08 0.24 -0.16 c0 -0.04 -0.04 -0.08 -0.08 -0.08 c-0.12 0 -0.4 0.08 -0.52 0.2 l-0.08 0.12 z M7.96 21.36 c0.04 0 0.08 0 0.08 -0.04 l-0.12 -0.08 l-0.08 -0.04 l0 0.08 c0 0.04 0.04 0.08 0.12 0.08 z M17.92 21.56 c0.08 0 0.12 -0.04 0.12 -0.04 l0 -0.04 c0 -0.04 0 -0.04 -0.04 -0.04 l-0.04 -0.04 l-0.2 0.12 c0 0.04 0.08 0.04 0.16 0.04 z M7.84 21.8 c0.04 -0.08 0.04 -0.16 0.04 -0.24 l-0.04 -0.04 c-0.04 0 -0.04 0.04 -0.08 0.12 c0 0.12 0.04 0.16 0.04 0.16 l0.04 0 z M14.64 21.76 c0.08 0 0.16 0 0.16 -0.04 c0 -0.08 -0.12 -0.12 -0.2 -0.12 l-0.04 0.08 l0 0.04 z M16 21.96 l0.08 -0.04 l-0.04 -0.04 l-0.12 0 l0 0.04 z M17.52 22.04 l0.04 -0.08 l-0.04 -0.08 l-0.04 0 c-0.04 0 -0.04 0.04 -0.04 0.08 c0.04 0.08 0.04 0.08 0.08 0.08 z M14.44 22.16 l0.08 -0.12 c0 -0.04 0 -0.08 -0.08 -0.08 c-0.04 0 -0.08 0.04 -0.08 0.08 c0 0.08 0.04 0.12 0.08 0.12 z M11.8 22.04 l-0.12 0 c-0.08 0 -0.08 0 -0.08 -0.04 l0.04 0 c0 -0.04 0.04 -0.04 0.08 -0.04 s0.08 0 0.08 0.04 l0 0.04 z M14.12 22.32 c0.04 0 0.04 0 0.04 -0.04 l0 -0.12 c-0.04 -0.12 -0.04 -0.2 -0.08 -0.2 s-0.08 0.04 -0.16 0.12 l-0.04 0.12 c0 0.04 0 0.04 0.08 0.08 z M16.76 22.32 c0.04 0 0.04 0 0.04 -0.04 l-0.12 -0.28 c0 -0.04 0 -0.04 -0.04 -0.04 l-0.04 0.04 l-0.04 0.08 c0 0.12 0.12 0.24 0.2 0.24 z M15.04 22.36 c0.12 0 0.32 -0.08 0.48 -0.16 c0.16 -0.12 0.28 -0.16 0.28 -0.2 l-0.4 0.12 c-0.24 0.08 -0.4 0.16 -0.4 0.2 z M13.52 22.16 l0.08 -0.04 l-0.04 -0.04 l-0.08 -0.04 l-0.04 0.08 z M16.32 22.36 c0.04 0 0.08 -0.04 0.08 -0.08 l0 -0.04 c-0.04 -0.04 -0.12 -0.08 -0.2 -0.08 c-0.04 0 -0.04 0 -0.04 0.04 l0 0.04 c0 0.04 0.08 0.12 0.16 0.12 z M17.48 22.36 l0.08 -0.12 c0 -0.04 -0.04 -0.08 -0.12 -0.08 l-0.08 0.04 l0 0.04 c0.04 0.04 0.08 0.12 0.12 0.12 z M7.72 22.24 l0.04 -0.04 l0 -0.04 l-0.12 0 l0 0.04 z M7.32 22.32 l0.04 -0.08 c0 -0.04 -0.08 -0.08 -0.2 -0.08 l-0.2 0 c0 0.04 0.04 0.04 0.12 0.08 z M7.72 22.52 l0 -0.04 l-0.04 -0.12 c-0.04 0 -0.04 0.04 -0.04 0.08 c0 0.08 0.04 0.08 0.08 0.08 z M15.6 23.12 c0.04 0 0.08 -0.04 0.08 -0.12 c0 -0.04 0.04 -0.08 0.12 -0.08 s0.2 -0.12 0.32 -0.24 l0.16 -0.2 c0 -0.04 -0.08 -0.04 -0.2 -0.04 c-0.08 0 -0.16 0 -0.16 0.04 l0.08 0.04 c0.08 0.04 0.08 0.04 0.08 0.08 l-0.08 0.08 c-0.04 0.04 -0.2 0.08 -0.28 0.08 c-0.12 0 -0.2 0.08 -0.2 0.2 c0 0.08 0.04 0.16 0.08 0.16 z M14.64 22.8 c0.08 0 0.12 -0.04 0.12 -0.08 s-0.04 -0.08 -0.08 -0.08 c-0.08 0 -0.12 0.04 -0.16 0.08 c0 0.04 0.04 0.08 0.12 0.08 z M16.16 22.96 l0.2 -0.04 c0.08 -0.04 0.16 -0.12 0.16 -0.16 l-0.04 0 l-0.16 0.08 z M12.28 22.96 c0.08 -0.04 0.16 -0.08 0.16 -0.12 l0 -0.04 s0 -0.04 -0.04 -0.04 s-0.08 0.04 -0.12 0.08 c-0.12 0.04 -0.2 0.12 -0.2 0.12 l0.2 0 z M14.16 23.12 c0.04 0 0.08 -0.04 0.08 -0.12 c0 -0.04 -0.08 -0.08 -0.12 -0.08 s-0.08 0.04 -0.08 0.08 c0 0.08 0.08 0.12 0.12 0.12 z M7.32 23.4 c0.04 0 0.12 -0.08 0.2 -0.2 c0.08 -0.08 0.12 -0.2 0.12 -0.2 l-0.2 0.2 z M12.04 23.6 l0.28 -0.12 c0.12 -0.04 0.2 -0.2 0.2 -0.32 c0 -0.08 -0.04 -0.12 -0.04 -0.12 c-0.04 0 -0.04 0.04 -0.08 0.08 l-0.24 0.32 c-0.08 0.08 -0.12 0.12 -0.12 0.16 z M15.24 23.32 l0.08 -0.04 l0 -0.04 l-0.08 -0.04 l-0.08 0.04 c0 0.04 0.04 0.08 0.08 0.08 z M14.88 23.44 l0.2 -0.08 c0 -0.04 -0.08 -0.04 -0.16 -0.04 s-0.12 0.04 -0.12 0.04 l0 0.04 c0 0.04 0.04 0.04 0.08 0.04 z M7.32 23.68 c0.08 0 0.12 -0.04 0.12 -0.08 s-0.04 -0.08 -0.12 -0.08 c-0.04 0 -0.08 0.04 -0.12 0.08 c0 0.04 0.04 0.08 0.12 0.08 z M14.6 23.68 c0.08 0 0.12 0 0.12 -0.04 l-0.12 -0.04 l-0.08 0.04 l-0.04 0.04 l0.12 0 z M12.72 24 c0.08 0 0.16 -0.08 0.24 -0.16 l0.12 -0.12 l-0.12 0 l-0.24 0.08 c-0.08 0 -0.08 0.04 -0.08 0.08 c0 0.08 0.04 0.12 0.08 0.12 z M11.64 23.88 l0 -0.04 l-0.08 -0.04 l-0.08 0.04 c0 0.04 0 0.04 0.08 0.04 l0.08 0 z M14.36 24.08 l-0.04 -0.16 c-0.04 -0.04 -0.08 -0.08 -0.12 -0.08 l-0.04 0 l-0.04 0.08 l0.08 0.08 z M13.36 24 c0.08 0 0.12 -0.04 0.12 -0.04 l0 -0.04 l-0.16 0 l-0.04 0.04 z M12.24 24.08 c0.08 0 0.12 0 0.12 -0.04 l-0.24 -0.08 l-0.16 0 c-0.04 0 -0.04 0 -0.04 0.04 c0.04 0.04 0.2 0.08 0.32 0.08 z M10.08 24.28 c0.04 0 0.08 -0.04 0.08 -0.08 l-0.04 -0.12 c-0.04 0 -0.08 0.04 -0.12 0.12 c0 0.04 0 0.08 0.08 0.08 z M15.88 24.36 c-0.04 0 -0.08 -0.04 -0.08 -0.08 s0.04 -0.08 0.08 -0.08 c0.08 0 0.08 0.04 0.08 0.08 z M7.08 24.439999999999998 l0.2 -0.08 l0.08 -0.08 l-0.16 0 c-0.12 0 -0.2 0.04 -0.2 0.08 s0.04 0.08 0.08 0.08 z M11.88 24.560000000000002 c0.08 0 0.24 -0.04 0.32 -0.12 l0.08 -0.12 c0 -0.04 0 -0.04 -0.04 -0.04 s-0.16 0.04 -0.28 0.16 l-0.12 0.08 c0 0.04 0 0.04 0.04 0.04 z M11.28 24.880000000000003 c0.04 0 0.08 -0.08 0.08 -0.12 l0 -0.04 c0 -0.04 0 -0.04 -0.04 -0.04 c-0.08 0 -0.08 0.04 -0.08 0.08 z M12.4 24.84 l-0.04 -0.04 c0 -0.04 -0.04 -0.04 -0.08 -0.04 c0 0 -0.04 0 -0.04 0.04 l0 0.04 l0.16 0 z M12.12 25.04 l0 -0.04 l-0.04 -0.12 c-0.04 0 -0.04 0.04 -0.04 0.08 c0 0.08 0.04 0.08 0.08 0.08 z M6.84 25.72 c0.04 0 0.12 -0.04 0.2 -0.12 s0.16 -0.16 0.2 -0.16 c0.08 0 0.12 -0.04 0.12 -0.12 l0 -0.04 l0.16 0.04 l-0.2 -0.16 c-0.04 0 -0.04 0 -0.08 0.08 c0 0.04 -0.08 0.12 -0.12 0.12 c-0.08 0 -0.2 0.08 -0.28 0.16 l-0.08 0.16 c0 0.04 0.04 0.04 0.08 0.04 z M6.84 25.32 c0 -0.04 0 -0.12 -0.04 -0.12 c0 -0.04 0 -0.04 -0.04 -0.04 l0 0.08 l0.04 0.08 l0.04 0 z M4.88 25.8 c0 -0.04 0 -0.08 -0.04 -0.12 c0 -0.04 0 -0.04 -0.04 -0.04 l0 0.08 l0.04 0.08 l0.04 0 z M5.28 26 l0.04 -0.08 l-0.08 -0.08 c-0.04 0 -0.04 0.04 -0.04 0.08 l0.04 0.08 l0.04 0 z M6.72 26.4 l0 -0.04 l-0.08 -0.04 l-0.08 0.04 c0 0.04 0.04 0.04 0.08 0.04 l0.08 0 z M6.52 27.04 c0.08 -0.04 0.12 -0.08 0.12 -0.12 l-0.16 -0.04 c-0.08 0 -0.12 0.04 -0.12 0.12 c0 0.04 0.08 0.04 0.16 0.04 z M6.08 27.2 c0.08 0 0.12 -0.04 0.12 -0.12 c-0.04 -0.04 -0.04 -0.08 -0.08 -0.08 s-0.04 0.04 -0.08 0.08 l0 0.04 c0 0.04 0 0.08 0.04 0.08 z M6.48 27.68 c0.04 0 0.08 -0.08 0.08 -0.16 c-0.04 -0.08 -0.04 -0.12 -0.08 -0.12 l-0.08 0.12 c0 0.08 0.04 0.16 0.08 0.16 z M5.88 27.84 l0.04 -0.08 l-0.08 -0.08 c-0.04 0 -0.04 0.04 -0.04 0.08 l0.04 0.08 l0.04 0 z M7.16 28.2 l0.08 -0.04 c0.04 -0.08 0.04 -0.2 0.04 -0.28 s-0.04 -0.12 -0.12 -0.12 l-0.12 0.16 l0 0.08 c0 0.12 0.08 0.2 0.12 0.2 z M6.12 28.52 l0.4 -0.08 l0.16 -0.08 l-0.24 0 c-0.2 0 -0.36 0.04 -0.36 0.08 l-0.04 0.04 c0 0.04 0.04 0.04 0.08 0.04 z M7.04 28.84 c0.04 0 0.12 -0.08 0.12 -0.16 l0.04 -0.2 l-0.04 -0.08 l-0.04 0 l-0.08 0.04 c-0.04 0.08 -0.08 0.16 -0.08 0.24 s0.04 0.16 0.08 0.16 z M6.08 28.84 l0.08 -0.04 l-0.04 -0.04 l-0.12 0 l0 0.04 z M7 29.16 c0.08 -0.04 0.16 -0.08 0.16 -0.12 l0 -0.04 l-0.04 -0.08 l-0.16 0.08 c-0.12 0.04 -0.16 0.08 -0.16 0.12 s0.04 0.04 0.12 0.04 l0.08 0 z M5.56 29.759999999999998 l0.08 -0.16 c0 -0.04 -0.04 -0.04 -0.04 -0.04 l-0.08 0 l-0.08 0.16 l0.08 0.04 l0.04 0 z M5.48 30.08 l0.08 -0.08 c0 -0.04 0 -0.08 -0.08 -0.08 c-0.04 0 -0.08 0.04 -0.08 0.08 s0.04 0.08 0.08 0.08 z M5.88 30.240000000000002 l0.08 -0.04 l0.04 -0.08 l-0.12 -0.16 c-0.04 0 -0.04 0.04 -0.04 0.16 c0 0.08 0 0.12 0.04 0.12 z M7 30.6 c-0.08 0 -0.12 -0.04 -0.12 -0.12 c0.04 -0.04 0.08 -0.08 0.16 -0.08 c0.04 0 0.08 0.04 0.08 0.08 l0 0.04 c0 0.04 -0.04 0.08 -0.12 0.08 z M5.72 30.96 l0 -0.04 l-0.08 -0.04 s-0.04 0 -0.04 0.04 l0 0.04 l0.12 0 z M5.24 31.16 c0.04 0 0.08 -0.04 0.08 -0.08 l0.04 -0.08 l-0.04 -0.04 l-0.12 0.16 z M5.68 31.439999999999998 c0.08 0 0.16 -0.04 0.16 -0.08 c-0.04 -0.04 -0.12 -0.08 -0.2 -0.08 s-0.12 0.04 -0.12 0.08 s0.08 0.08 0.16 0.08 z M5.68 31.759999999999998 l0.12 -0.04 l-0.12 -0.12 l-0.08 0 l-0.04 0.04 z M6.48 32.72 l-0.16 -0.04 c0 -0.16 0.24 -0.64 0.36 -0.64 c0.08 0 0.12 0.04 0.12 0.08 c-0.16 0.44 -0.24 0.6 -0.32 0.6 z M5.44 32.88 l0.08 -0.04 c0.04 -0.04 0.08 -0.08 0.08 -0.12 l-0.08 -0.32 l-0.04 -0.04 s-0.08 0.04 -0.12 0.12 l-0.08 0.12 c0 0.04 0 0.08 0.04 0.08 c0.08 0.04 0.12 0.08 0.12 0.16 l0 0.04 z M6.32 34.16 c-0.08 0 -0.12 -0.04 -0.16 -0.08 c0 -0.04 0.04 -0.2 0.12 -0.36 l0.04 -0.4 l0 -0.16 c0 -0.2 0.04 -0.32 0.08 -0.32 s0.08 0.04 0.12 0.12 c0.04 0.04 0.04 0.16 0.04 0.28 c0 0.36 -0.12 0.92 -0.24 0.92 z M5.4 33.64 l0 -0.04 l-0.04 -0.08 c-0.04 0 -0.04 0 -0.04 0.08 l0.04 0.04 l0.04 0 z M5.24 33.84 l0 -0.04 l-0.04 -0.08 l-0.04 0 l0 0.08 l0.04 0.04 l0.04 0 z M6.2 34.92 c-0.04 0 -0.04 -0.08 -0.04 -0.2 c0 -0.08 0.04 -0.12 0.04 -0.12 c0.04 0 0.04 0 0.04 0.04 l0.04 0.12 z M5.12 35.04 c0.08 0 0.12 -0.04 0.12 -0.04 l-0.08 -0.04 l-0.12 0 l-0.04 0.04 c0 0.04 0.04 0.04 0.12 0.04 z M5.08 37.36 l0.08 -0.08 l-0.04 -0.08 l-0.04 0 c-0.04 0 -0.04 0.04 -0.04 0.08 z M5.68 38.04 c0.04 0 0.08 -0.04 0.08 -0.16 l0.04 -0.2 c0 -0.16 -0.08 -0.32 -0.16 -0.32 c-0.04 0 -0.08 0.04 -0.08 0.2 l0 0.24 c0.04 0.16 0.08 0.24 0.12 0.24 z M28.279999999999998 18.76 c-0.52 0 -0.68 -0.16 -1.4 -0.56 c-0.48 -0.28 -0.6 -0.36 -0.6 -0.48 c0.32 -1.04 -0.08 -0.68 0.44 -1.64 l-0.08 0 l-0.04 -0.08 c0 -0.16 0.08 -0.28 0.16 -0.48 l0.24 -0.6 l0 -0.08 c0.16 0 0.16 -0.4 0.28 -0.68 c0 -0.16 0.04 -0.48 0.28 -0.72 c0.08 -0.08 0.12 -0.2 0.12 -0.24 c0.04 -0.24 0.16 -0.32 0.16 -0.4 l0.36 -0.72 c0 -0.12 0.48 -0.6 0.48 -0.84 l-0.04 -0.04 c0.16 0 0.6 -0.72 0.72 -0.72 c0 0.12 -0.12 0.08 -0.12 0.32 c0 0.28 -0.44 0.48 -0.44 0.6 c0.08 0.08 0 0.04 0.08 0.08 c0.12 0 0.44 -0.6 0.44 -0.6 l0 -0.04 c0.16 0 0 -0.16 0.16 -0.16 l0.36 -0.24 l0.04 0.04 l-0.04 0.28 c0.16 -0.24 0.28 -0.32 0.44 -0.32 c0.08 0 0.12 0.04 0.12 0.12 l0 0.16 c0.04 0 0.16 -0.12 0.44 -0.24 l-0.28 0.6 c0.04 0 0.08 -0.08 0.16 -0.2 c0 0 0.12 0.16 0.16 0.16 c0.08 -0.16 0.12 -0.24 0.16 -0.24 c0.08 0.08 0.16 0.08 0.16 0.32 c0 0.08 0 0.16 0.04 0.16 l0.16 -0.08 c0 0.08 -0.16 0.24 -0.4 0.76 l0 0.04 c0.12 0 0.24 -0.2 0.48 -0.56 l0 0.12 c0 0.12 -1 1.8 -1 1.96 c0 0.08 -0.08 0.16 -0.16 0.4 l0.04 0.16 c0.04 0 0.04 -0.04 0.04 -0.16 c0.52 -1 0.64 -1.32 0.8 -1.32 l0.04 0.04 c-0.44 1 -1.08 2.16 -1.08 2.32 l0 0.04 c-0.12 0.44 -0.24 0.64 -0.24 0.8 c0 0.28 -0.28 0.64 -0.28 0.76 c0 0.04 0.04 0.08 0.08 0.08 l-0.2 0.44 l0.04 0.08 c0 0.2 -0.16 0.6 -0.24 0.6 l0.04 0.2 l-0.12 0.12 c0.08 0.04 0.16 0.08 0.16 0.2 c-0.16 0.36 -0.48 0.16 -0.48 0.32 l0 0.04 l-0.12 0.08 l-0.08 -0.04 z M28.799999999999997 11.68 c0.04 0 0.08 -0.04 0.08 -0.08 l-0.08 0 l-0.08 0.04 l0.04 0.04 l0.04 0 z M27.68 13.719999999999999 c0.24 -0.12 0.44 -0.88 0.92 -1.64 c0.08 -0.12 0.12 -0.24 0.12 -0.32 l-0.04 -0.04 c-0.2 0 -0.12 0.32 -0.24 0.32 c-0.08 0 -0.08 0.08 -0.08 0.12 l0 0.04 c0 0.12 -0.2 0.4 -0.36 0.4 l-0.04 0.04 l0.08 0.28 l-0.08 0.08 c-0.08 0 -0.24 0.56 -0.32 0.56 c-0.04 0 -0.08 0.04 -0.08 0.08 s0.04 0.08 0.08 0.08 l0.04 0 z M27.84 13.36 l0 -0.12 l0.08 -0.12 l0.04 0.04 c-0.04 0.12 -0.04 0.2 -0.12 0.2 z M30.88 12.239999999999998 l0.08 -0.08 l-0.04 -0.08 c-0.04 0.04 -0.08 0.04 -0.08 0.12 c0 0.04 0 0.04 0.04 0.04 z M27.279999999999998 14.879999999999999 c0.08 0 0.24 -0.32 0.36 -1.04 c-0.2 0.08 -0.2 0.48 -0.36 0.6 c-0.04 0 -0.04 0.04 -0.04 0.08 l0.04 0.08 c-0.08 0.04 -0.08 0.04 -0.08 0.2 z M28.48 36.52 l-0.08 -0.04 c-0.04 0 -0.12 0 -0.12 -0.08 l0.04 -0.04 l-0.08 -0.04 l-0.08 0.16 l-0.12 -0.04 l-0.04 0.08 c-0.08 0 -0.56 -0.32 -0.72 -0.32 l-0.04 0 c-0.2 0 -0.16 -0.08 -0.48 -0.16 c0 -0.08 -0.52 -0.24 -0.52 -0.36 s-0.32 -0.2 -0.32 -0.36 c0.08 -0.24 0.16 -0.24 0.16 -0.56 c-0.04 -0.44 -0.08 -0.68 -0.08 -1 c0 -0.24 0.04 -0.4 0.08 -0.52 c0 -0.16 -0.04 -0.2 -0.12 -0.36 c0 -0.04 0.08 -0.08 0.16 -0.12 c-0.12 0 -0.16 0 -0.16 -0.4 l0.04 -0.24 l-0.04 -1.2 l0.08 -0.52 l0 -0.16 c0 -0.08 0.08 -0.2 0.08 -0.36 l-0.08 -0.48 c0 -0.12 0.04 -0.16 0.08 -0.16 s0.04 0 0.04 0.04 l-0.08 0.12 c0.08 -0.04 0.16 -0.08 0.16 -0.12 c0 -0.08 -0.08 -0.04 -0.12 -0.16 c0 -0.12 0.24 -0.2 0.24 -0.32 s-0.2 -0.16 -0.2 -0.36 c0.04 -0.2 0.08 -0.28 0.08 -0.48 c0 -0.08 0 -0.24 0.12 -0.44 l-0.12 -0.12 c0.12 -0.12 -0.04 -0.36 0.16 -0.8 l-0.04 0 l0.04 -0.2 l0 -0.52 c0.04 -0.24 0 -0.12 0.12 -0.36 c-0.04 -0.04 -0.08 -0.08 -0.08 -0.36 c0 -0.24 0.08 -0.4 0.08 -0.72 l0.08 -1.2 c0 -0.84 -0.12 -1.4 -0.2 -1.84 c0 -0.12 0.04 -0.08 0.12 -0.2 l-0.04 -0.04 c0.16 -0.28 0.28 -0.2 1.04 -0.32 c0.2 0 0.12 0.08 0.24 0.08 l0.88 0.08 c0.28 0 0.48 0.28 0.64 0.28 l0.04 0 l0.04 0.08 l0 0.16 c0.16 0.6 0.28 0.68 0.28 1.2 l0 0.28 c0 0.72 0.08 0.72 0.2 0.72 l-0.12 0.16 l0.04 0.2 l-0.08 -0.04 l-0.04 0.04 c0 1.28 -0.08 1.24 -0.08 1.72 l0.04 0.04 c-0.08 0 -0.16 0.16 -0.16 0.52 l0.04 0.16 c0 0.08 -0.04 0.08 -0.08 0.12 l0.04 0.16 l-0.08 0.8 l-0.08 0.44 c0 0.44 -0.16 1.6 -0.16 2.36 l0.04 0.36 c0.08 -0.52 0.04 -0.88 0.12 -0.88 l0.08 0 l-0.08 0.24 c0 0.56 0.04 0.36 0.04 0.56 c-0.08 0.16 -0.04 0.56 -0.16 0.56 l-0.04 -0.04 c0 -0.12 0.08 -0.16 0.08 -0.24 l-0.08 -0.04 c-0.04 0 -0.08 0.04 -0.08 0.12 c0.04 0.08 0.04 0.24 0.04 0.36 l0 0.2 c0.04 0 0.08 -0.08 0.16 -0.2 l0 0.08 c0 0.4 -0.16 0.16 -0.16 0.36 s0.04 0.6 0.08 0.6 l0.04 -0.12 l-0.04 -0.08 l0 -0.24 l0.04 -0.12 c0.12 0.08 0.12 0.12 0.12 0.28 c-0.04 0.08 -0.04 0.36 -0.04 0.6 l0.04 0.32 l-0.04 0.28 l-0.08 -0.12 c-0.04 0 -0.04 0.16 -0.08 0.48 l0.04 0.24 l0.08 -0.12 l-0.04 -0.16 c0 -0.08 0.04 -0.2 0.08 -0.2 c0.2 0 0.16 2 0.28 2.12 c0.04 0 0.08 0.08 0.08 0.16 c0 0.2 -0.32 0.4 -0.56 0.4 c-0.12 0 -0.16 0 -0.16 0.08 l0 0.04 c0 0.04 -0.04 0.04 -0.08 0.08 z M29.759999999999998 23.48 l-0.04 -0.2 l0.04 -0.2 c0.04 0 0.08 0 0.12 0.04 l-0.08 0.12 l0.04 0.12 c0 0.08 -0.04 0.12 -0.08 0.12 z M29.56 27.2 l-0.08 -0.04 l0.12 -0.08 c0 0.04 0 0.12 -0.04 0.12 z M29.36 28.759999999999998 l0 -0.24 l0.08 -0.08 l0.04 0.04 z M29.36 29.08 l-0.08 -0.08 l0.04 -0.16 c0.12 0 0.16 0.04 0.16 0.12 c0 0.04 -0.04 0.08 -0.12 0.12 z M29.28 29.759999999999998 l-0.04 -0.08 c0 -0.04 0.04 -0.2 0.12 -0.2 l0.04 0.04 c0 0.08 -0.04 0.2 -0.12 0.24 z M29.2 33.04 l0 -0.12 l-0.04 -0.08 s-0.04 0.04 -0.04 0.16 z M29.16 34.36 l0.04 -0.04 l0.04 -0.16 c0 -0.08 0 -0.12 -0.04 -0.12 l-0.04 0 l0 0.32 z M36.28 36.52 l-0.04 -0.04 l-0.04 0.04 l-0.04 -0.2 c0 -0.04 -0.04 -0.08 -0.12 -0.08 l-0.08 0 l0.04 0.04 l0.04 0.12 l0 0.04 l-0.12 0.04 c-0.08 0 -0.16 -0.04 -0.16 -0.08 s-0.08 -0.08 -0.2 -0.12 c-0.08 -0.04 -0.2 -0.12 -0.24 -0.2 c-0.08 -0.08 -0.2 -0.12 -0.44 -0.16 c-0.24 0 -0.36 -0.08 -0.48 -0.2 c-0.12 -0.08 -0.16 -0.16 -0.16 -0.2 l-0.2 -0.16 c-0.12 -0.12 -0.2 -0.24 -0.2 -0.28 c0 -0.08 0 -0.12 -0.04 -0.12 s-0.04 -0.32 -0.04 -0.64 c0 -0.36 0 -0.8 -0.04 -1 l-0.04 -0.64 c0 -0.2 0 -0.36 -0.04 -0.4 l0 -0.04 c0.04 0 0.08 -0.16 0.08 -0.28 l-0.08 -0.32 l0.04 -0.04 c0.04 0 0.04 -0.08 0.04 -0.2 l0 -0.72 c0 -0.16 -0.04 -0.2 -0.08 -0.2 l-0.08 0.04 c0 -0.04 0 -0.04 0.08 -0.12 s0.12 -0.2 0.12 -0.6 c0 -0.24 0 -0.4 -0.04 -0.4 l-0.08 0.08 c-0.04 0 -0.08 -0.08 -0.08 -0.2 s0.04 -0.24 0.08 -0.24 c0.08 -0.04 0.08 -0.16 0.08 -0.28 s0 -0.24 -0.08 -0.24 l-0.04 0 l0.04 -0.08 c0.04 -0.08 0.08 -0.2 0.08 -0.28 l0.04 -0.32 c0 -0.28 -0.04 -0.4 -0.08 -0.4 l-0.04 -0.08 c0 -0.04 0 -0.04 0.04 -0.04 s0.08 -0.08 0.08 -0.2 l0.04 -0.44 c0 -0.04 0 -0.04 -0.04 -0.04 l-0.08 0.04 l0.04 -0.04 c0.04 -0.08 0.04 -0.16 0.04 -0.24 c-0.04 -0.04 -0.04 -0.44 -0.04 -0.8 c-0.04 -0.36 -0.04 -1.08 -0.04 -1.6 l0 -0.92 c0.24 0 0.36 0 0.6 -0.08 c0.16 0 0.32 0.04 0.4 0.08 c0.12 0.08 0.28 0.12 0.36 0.12 l0.12 0 c0 0.04 0.04 0.04 0.04 0.04 l0.04 0 c0.08 0 0.12 0.04 0.12 0.08 c0 0.08 0.36 0.32 0.48 0.32 l0.16 0.04 c0 0.04 0.04 0.08 0.12 0.08 c0.12 0.04 0.16 0.08 0.16 0.16 c0 0.04 0.04 0.12 0.12 0.16 l0.08 0.2 c0 0.08 0.04 0.2 0.12 0.32 c0.12 0.16 0.12 0.32 0.12 1.32 l0.04 1.24 l0.04 0.04 c0.04 0 0.08 -0.08 0.24 -0.36 l0.24 -0.48 c0.04 -0.12 0.16 -0.32 0.24 -0.4 l0.04 -0.12 l0 -0.16 c0 -0.24 0.16 -0.52 0.4 -0.6 c0.08 -0.04 0.08 -0.12 0.08 -0.16 c-0.04 -0.04 -0.04 -0.08 -0.08 -0.08 l-0.04 0 s-0.04 0 -0.04 -0.04 l0.08 -0.04 c0.16 0 0.32 -0.12 0.32 -0.28 s0.08 -0.32 0.12 -0.32 s0.12 -0.04 0.16 -0.12 c0 -0.08 0.08 -0.16 0.12 -0.16 s0.04 -0.04 0.04 -0.04 l0 -0.04 l0.08 -0.16 c0.04 -0.08 0.08 -0.2 0.12 -0.2 c0 -0.04 0.04 -0.04 0.04 -0.04 c0.04 0 0.12 -0.04 0.16 -0.12 l0.16 -0.08 c0.08 0 0.16 0 0.16 -0.08 c0.08 -0.08 0.72 -0.24 1.28 -0.24 c0.4 0 1.08 0.08 1.08 0.16 c0 0 0.04 0.04 0.12 0.04 s0.2 0.04 0.28 0.08 c0.32 0.2 0.48 0.28 0.56 0.28 l0.12 0 l0 0.08 c0 0.04 0.04 0.08 0.2 0.08 c0.24 0 0.92 0.44 0.92 0.56 l0.04 0.08 l0.04 0 c0.08 0 0.16 0.08 0.2 0.16 l0.32 0.44 c0.16 0.2 0.2 0.36 0.2 0.44 l-0.04 0.08 l0.08 0 c0.04 0 0.04 0 0.04 0.04 l0 0.12 c0 0.04 0 0.04 0.04 0.04 l0.08 0 c0.04 0 0.08 0.04 0.12 0.12 c0.08 0.08 0.08 0.12 0.08 0.2 l-0.04 0.12 l-0.04 0.08 c0 0.04 0 0.04 0.04 0.04 s0.08 0.08 0.08 0.2 c0 0.08 0.04 0.28 0.12 0.36 l0.08 0.16 l-0.04 0.12 l0.08 0.28 l-0.04 0.08 c-0.04 0 -0.04 0.04 -0.04 0.08 l0.04 0.08 c0.04 0.08 0.04 0.2 0.04 0.32 c0 0.16 0 0.32 -0.08 0.4 l0 0.04 l0.04 -0.04 l0.04 0.48 c0 0.4 -0.04 0.84 -0.08 0.88 s-0.04 0.12 -0.04 0.2 c0 0.04 0 0.08 0.04 0.08 l0.12 0 l-0.04 0.12 l-0.08 0.04 l0 -0.08 l-0.04 0.04 l0.08 0.16 l-0.04 0.08 c-0.04 0.04 -0.04 0.12 -0.04 0.16 l0 0.08 l0.08 0 l0 0.04 c0 0.04 0 0.08 -0.04 0.12 c-0.04 0 -0.08 0.08 -0.08 0.16 l-0.04 0.08 l0.04 0.04 c0.04 0 0.04 0.08 0.04 0.16 c0 0.2 -0.04 0.44 -0.08 0.52 l-0.04 0.12 l0.12 0.28 l-0.08 0.16 l-0.04 0 l0.04 0.04 l0.08 0.2 l-0.12 0.24 l0.04 0.12 l0.04 0.44 c0 0.56 -0.08 1.48 -0.16 1.52 c-0.04 0 -0.04 0.04 -0.04 0.04 l0 0.04 l-0.08 0.08 l0 -0.08 l-0.04 -0.04 l-0.24 0.12 l-0.24 -0.08 l-0.04 0.04 l0.04 0.04 c0.04 0.04 0.04 0.12 0.04 0.12 l-0.04 0 l0 -0.04 l-0.08 0 l-0.04 0.08 l0 0.04 l-0.04 0 c-0.08 0 -0.08 -0.04 -0.08 -0.08 s-0.08 -0.08 -0.12 -0.08 l-0.36 -0.04 l0.04 0.04 c0 0.08 -0.08 0.24 -0.2 0.24 c-0.04 0 -0.04 -0.04 -0.04 -0.08 l0.08 -0.16 l0.04 -0.04 l-0.32 0.04 c-0.04 0 -0.08 -0.04 -0.08 -0.12 l0 -0.08 l-0.04 0.04 c-0.04 0.04 -0.12 0.04 -0.2 0.04 c-0.16 0 -0.36 -0.04 -0.4 -0.16 c-0.04 -0.08 -0.12 -0.2 -0.24 -0.32 s-0.24 -0.28 -0.24 -0.32 l0 -0.04 l-0.04 -0.08 c-0.04 -0.04 -0.04 -0.16 -0.04 -0.48 l0.04 -1.64 c0.04 -0.72 0.12 -1.32 0.16 -1.36 l0.04 -0.08 l-0.08 -0.28 c0 -0.16 0.08 -0.32 0.12 -0.32 c0.04 -0.04 0.08 -0.08 0.08 -0.12 s0 -0.04 -0.04 -0.04 l-0.04 0 c-0.04 0 -0.04 -0.04 -0.04 -0.08 l0.04 -0.08 l-0.04 0 l-0.08 -0.04 c0 -0.04 0.04 -0.12 0.12 -0.16 l0.04 -0.16 l0 -0.36 l0.08 -1.88 c0 -0.32 -0.04 -0.48 -0.12 -0.76 c-0.12 -0.52 -0.24 -0.76 -0.36 -0.8 l-0.08 0 c-0.24 0 -0.72 0.4 -0.84 0.68 c0 0.12 -0.04 0.2 -0.08 0.2 s-0.08 0.04 -0.08 0.12 c0 0.04 -0.04 0.12 -0.08 0.12 l-0.04 0.08 l0 0.04 c0 0.08 -0.04 0.16 -0.08 0.2 l-0.12 0.16 c0 -0.04 0 -0.04 -0.04 -0.04 s-0.12 0.12 -0.24 0.36 l-0.16 0.36 l0 0.08 c0 0.08 -0.04 0.12 -0.12 0.16 s-0.12 0.12 -0.12 0.16 l0 0.04 l0.12 -0.16 l0 0.08 c-0.04 0.04 -0.08 0.08 -0.12 0.08 s-0.12 0.12 -0.2 0.32 c-0.12 0.2 -0.2 0.28 -0.24 0.28 l-0.08 -0.04 l0 0.08 c0 0.16 -0.12 0.4 -0.2 0.4 l-0.04 0 l0.04 0.04 l-0.16 0.48 l-0.24 0.48 c0 0.04 0 0.04 -0.04 0.04 s-0.12 0.16 -0.16 0.36 c-0.12 0.32 -0.16 0.4 -0.32 0.68 l-0.12 0.36 c-0.04 0.12 -0.08 0.24 -0.12 0.24 l-0.04 0.16 c0 0.04 -0.04 0.12 -0.08 0.12 c-0.2 0 -0.24 0.04 -0.24 0.12 s0 0.12 0.04 0.12 l0.12 -0.08 l0.08 -0.04 l0 0.08 l-0.04 0.12 c-0.04 0 -0.12 0.24 -0.2 0.52 l-0.2 0.64 c-0.04 0.08 -0.12 0.48 -0.12 0.64 l-0.16 1 l0.08 0.44 l-0.08 0.28 c-0.08 0.24 -0.08 0.2 -0.08 0.28 c0 0.04 -0.12 0.08 -0.24 0.08 c-0.32 0 -0.6 0.16 -0.6 0.24 l0 0.08 c0 0.04 0 0.08 -0.04 0.08 z M38.4 23.88 c0 0 0.04 -0.08 0.12 -0.12 l0.12 -0.16 c0 0.04 -0.04 0.08 -0.08 0.12 c-0.04 0.08 -0.12 0.12 -0.16 0.16 z M38.4 24.08 c-0.04 0 -0.04 0 -0.04 -0.08 l0 -0.04 l0.04 0 l0 0.12 z M39.68 26.32 l0.04 -0.12 l-0.04 0 c-0.04 0 -0.04 0.08 -0.04 0.08 c0 0.04 0 0.04 0.04 0.04 z M39.36 26.8 l0.08 -0.12 l-0.08 0 l-0.08 0.08 c0 0.04 0.04 0.04 0.08 0.04 z M40.519999999999996 27.04 l-0.04 -0.04 l0 -0.04 c0 -0.04 0.04 -0.04 0.08 -0.04 l0 0.04 z M45.24 26.92 l0.08 -0.08 c0 -0.04 0 -0.04 -0.04 -0.04 l-0.08 0.04 z M45.28 28.04 l0.04 -0.08 l-0.04 -0.08 l-0.04 0.08 z M38.92 29.439999999999998 l0.04 -0.04 l-0.04 -0.04 c0 -0.04 0 -0.08 0.04 -0.12 s0.08 -0.08 0.08 -0.12 c-0.04 0 -0.08 0.04 -0.12 0.08 l-0.12 0.16 z M38.48 30.36 l-0.04 -0.08 l-0.08 0.04 c0 0.04 0.04 0.04 0.08 0.04 l0.04 0 z M38.28 30.759999999999998 c0 -0.04 0 -0.08 -0.04 -0.08 l-0.08 -0.04 l0 0.04 c0 0.04 0.04 0.08 0.08 0.08 l0.04 0 z M45.08 31.8 l0 -0.24 c0 -0.16 0 -0.24 -0.04 -0.24 l-0.04 0.24 c0 0.16 0.04 0.24 0.08 0.24 z M45.24 32.04 l0 -0.12 c-0.04 0 -0.04 0.04 -0.04 0.04 l0 0.08 l0.04 0 z M43.92 35.08 c-0.04 0 -0.08 0 -0.08 -0.04 l0.12 -0.08 l0.08 0.04 c0 0.04 -0.08 0.08 -0.12 0.08 z M53.84 38.8 c-0.12 0 -0.24 -0.04 -0.32 -0.12 l-0.28 -0.24 c-0.12 -0.16 -0.56 -0.4 -0.76 -0.4 l-0.08 0 l-0.56 -0.32 c-0.32 -0.2 -0.44 -0.28 -0.6 -0.28 l-0.28 0.04 c-0.24 0.04 -0.8 0.04 -1.2 0.04 c-0.76 0 -0.76 0 -1.24 -0.28 c-0.52 -0.32 -0.64 -0.4 -0.64 -0.48 l0 -0.04 c0 -0.04 -0.08 -0.12 -0.16 -0.2 c-0.12 -0.12 -0.24 -0.24 -0.24 -0.28 s-0.08 -0.2 -0.24 -0.36 c-0.12 -0.12 -0.2 -0.32 -0.24 -0.36 c0 -0.08 -0.04 -0.2 -0.12 -0.32 s-0.12 -0.32 -0.12 -0.52 c0 -0.36 0 -0.36 0.32 -0.4 c0.2 -0.04 0.76 -0.08 1.24 -0.12 c0.44 0 0.88 -0.04 0.92 -0.08 s0.28 -0.04 0.52 -0.08 c0.8 -0.04 0.88 -0.04 0.92 -0.48 l0 -0.84 c0 -0.4 0.08 -0.92 0.16 -0.92 c0.04 0 0.08 -0.04 0.08 -0.08 s-0.04 -0.12 -0.12 -0.16 c-0.04 -0.04 -0.04 -0.08 -0.04 -0.2 s0 -0.32 0.04 -0.6 l0.08 -0.92 c0 -0.32 0.08 -0.56 0.12 -0.56 s0.08 -0.04 0.08 -0.08 l-0.04 -0.12 c-0.04 -0.12 -0.08 -0.32 -0.08 -0.56 c0 -0.4 0.08 -0.96 0.2 -1.48 c0.04 -0.04 0.04 -0.2 0.04 -0.32 l0 -0.2 c0 -0.36 0.04 -0.8 0.08 -1.04 c0.04 -0.12 0.08 -0.44 0.08 -0.72 c0.04 -0.24 0.08 -0.48 0.12 -0.48 s0.04 -0.12 0.04 -0.28 l0 -0.16 c0 -0.12 0 -0.2 0.04 -0.2 c0.04 -0.04 0.08 -0.08 0.08 -0.16 l-0.04 -0.2 l0 -0.24 c0 -0.24 0.04 -0.44 0.16 -0.6 c0.04 -0.04 0.04 -0.08 0.04 -0.16 l0 -0.28 c0 -0.48 0.08 -1.08 0.2 -1.08 l0.04 -0.04 l-0.08 -0.28 l0.04 -0.24 c0.08 -0.12 0.08 -0.28 0.08 -0.4 l0 -0.2 c0 -0.32 0.04 -0.84 0.12 -0.84 c0.04 0 0.04 -0.12 0.04 -0.24 l0.04 -0.6 c0.04 -0.16 0.08 -0.52 0.08 -0.76 c0.04 -0.4 0.24 -2.08 0.32 -2.28 l0 -0.2 c0 -0.04 0.04 -0.04 0.08 -0.04 s0.04 -0.12 0.04 -0.2 l0 -0.32 c0 -0.52 0.04 -1.44 0.16 -2.32 l0.04 -1.28 c0 -0.08 0 -0.12 0.04 -0.12 c0.08 -0.04 0.08 -0.08 0.08 -0.12 l-0.12 -0.04 l-0.2 0.08 l-0.48 0.08 c-0.32 0.04 -1.76 0.36 -1.8 0.4 c0 0.04 -0.04 0.08 -0.08 0.08 s-0.04 -0.04 -0.04 -0.08 l-0.08 -0.04 c-0.2 0 -0.76 0.12 -0.96 0.2 c-0.08 0.04 -0.16 0.04 -0.24 0.04 c-0.04 0 -0.12 0 -0.2 -0.04 c-0.24 -0.12 -0.92 -0.76 -0.92 -0.88 c-0.04 -0.08 -0.04 -0.12 -0.08 -0.12 c-0.16 -0.08 -0.48 -0.76 -0.56 -1.16 l-0.04 -0.28 c0 -0.28 0.12 -0.4 0.52 -0.72 c0.28 -0.2 1.28 -0.44 2.12 -0.44 c0.36 0 0.72 -0.04 1.64 -0.2 c0.2 -0.04 0.48 -0.04 0.6 -0.08 c0.12 0 0.28 -0.04 0.28 -0.08 c0.04 -0.04 0.24 -0.12 0.52 -0.16 c0.24 -0.04 0.44 -0.12 0.48 -0.16 c0.08 -0.08 0.12 -0.4 0.24 -1.28 c0 -0.24 0.04 -0.32 0.2 -0.36 l0.16 -0.04 l0.16 0.08 c0.04 0.04 0.12 0.12 0.2 0.12 c0.12 0 0.84 0.4 0.92 0.52 l0.32 0.24 l0.2 0.04 c0.12 0 0.28 -0.04 0.56 -0.16 c0.56 -0.2 0.76 -0.24 1.12 -0.28 c0.16 0 0.4 -0.08 0.56 -0.16 c0.2 -0.04 0.44 -0.12 0.56 -0.12 s0.32 -0.04 0.36 -0.12 l0.2 -0.04 c0.04 0 0.08 0 0.08 -0.04 s0.08 -0.08 0.2 -0.08 c0.56 0 1.2 -0.12 1.36 -0.2 c0.16 -0.12 0.76 -0.2 1 -0.2 l0.08 0 c0.04 0 0.12 0 0.2 -0.04 c0.12 -0.08 0.4 -0.12 0.72 -0.12 l0.56 0.04 c0.16 0 0.36 0 0.44 -0.04 l0.12 0 c0.12 0 0.28 0.04 0.4 0.12 c0 0.04 -0.04 0.08 -0.12 0.16 l-0.08 0.04 c0 0.04 0.12 0.08 0.32 0.12 c0.4 0.04 0.52 0.16 0.56 0.36 c0 0.08 0.12 0.2 0.2 0.28 s0.12 0.12 0.12 0.16 l-0.08 0.2 l0.08 0.12 l0.16 0.04 c0.04 0 0.08 0.12 0.08 0.2 l-0.04 0.12 c-0.04 0 -0.04 0 -0.04 0.04 l0 0.04 c0 0.08 -0.16 0.12 -0.52 0.2 c-0.28 0.04 -0.44 0.04 -0.44 0.08 l0.44 0 c0.36 0 0.6 0.04 0.6 0.08 c-0.04 0.04 -0.16 0.08 -0.28 0.08 c-0.32 0 -0.48 0.08 -0.48 0.16 l0 0.08 c0 0.08 -0.24 0.12 -1.52 0.24 c-0.48 0.04 -0.92 0.12 -0.96 0.16 l-0.12 0.04 l-0.08 -0.04 l-0.16 0.04 c-0.12 0.12 -0.88 0.24 -1.48 0.24 c-0.12 0 -0.2 0 -0.2 0.04 l0.08 0.04 l0.04 0.08 l-0.12 0 c-0.12 0 -0.24 0 -0.28 0.04 l-0.08 0.04 l-0.08 -0.04 l-0.24 0.08 c-0.08 0.04 -0.2 0.08 -0.28 0.08 l-0.04 0 c-0.08 0 -0.12 0 -0.12 0.04 s-0.04 0.08 -0.12 0.08 s-0.08 -0.04 -0.08 -0.12 l-0.08 0.04 c-0.08 0.08 -0.16 0.16 -0.2 0.16 c-0.12 0 -0.92 0.32 -0.92 0.4 c0 0.04 0.04 0.04 0.08 0.04 l0.24 -0.12 c0.08 -0.04 0.24 -0.08 0.36 -0.08 s0.4 -0.08 0.6 -0.12 l0.32 -0.08 c0 0.04 0 0.04 -0.08 0.12 c-0.08 0.04 -0.32 0.12 -0.52 0.16 s-0.48 0.08 -0.6 0.16 c-0.16 0.08 -0.32 0.12 -0.44 0.16 c-0.24 0.04 -0.96 0.24 -1.12 0.32 c-0.08 0 -0.12 0.12 -0.12 0.2 c-0.04 0.08 -0.08 0.56 -0.16 1.04 s-0.16 1.16 -0.16 1.52 c-0.04 0.32 -0.08 0.68 -0.12 0.8 l-0.08 0.88 c-0.04 1.08 -0.16 1.64 -0.32 1.72 c-0.04 0.04 -0.08 0.04 -0.08 0.08 l0.04 0 l-0.04 0.08 l-0.04 0.04 l0.2 -0.04 c0.04 0 0.04 0.08 0.04 0.2 l0 0.32 c-0.04 0.08 -0.08 0.48 -0.12 0.88 l-0.08 1.04 l-0.08 0.48 c-0.04 0.68 -0.32 2.92 -0.44 3.52 l-0.08 0.88 c0 0.12 0 0.24 -0.04 0.24 l-0.04 0.4 c0 0.2 -0.04 0.4 -0.08 0.4 l-0.04 0.08 l0.08 0.16 l-0.04 0.04 c-0.04 0 -0.08 0.16 -0.12 0.36 c0 0.6 -0.2 1.52 -0.28 1.52 s-0.12 0.08 -0.12 0.16 l0 0.08 l0.08 -0.04 l0.08 -0.08 c0.04 0 0.04 0.12 0.04 0.32 c0 0.16 -0.04 0.36 -0.08 0.44 c-0.04 0.04 -0.04 0.08 -0.04 0.12 c0.04 0.04 0.04 0.16 0.04 0.28 c-0.08 0.4 -0.32 3.2 -0.4 4.4 c0 0.24 -0.04 0.56 -0.08 0.68 l-0.04 0.52 c0 0.2 0 0.24 0.08 0.24 l0.16 0 c0.16 0 0.28 -0.04 0.32 -0.08 c0 -0.04 0.2 -0.08 0.4 -0.08 c0.48 0 0.6 -0.04 0.6 -0.08 l-0.12 -0.08 c0 -0.04 0 -0.04 0.04 -0.04 c0.08 0 0.2 0.04 0.24 0.08 l0.12 0.04 l0.12 -0.04 c0.08 -0.04 0.24 -0.08 0.44 -0.08 l0.56 -0.12 c0.16 -0.04 0.48 -0.12 0.68 -0.12 l0.96 -0.2 c0.32 -0.08 0.76 -0.2 1 -0.2 c0.2 0 0.36 -0.08 0.4 -0.08 c0 -0.04 0.08 -0.08 0.12 -0.08 l1.28 -0.12 c0.2 0 0.36 0.04 0.4 0.08 l0.04 0.04 c0 0.04 -0.12 0.08 -0.32 0.12 l-0.28 0.04 c0 0.04 0.08 0.04 0.16 0.04 l0.8 -0.08 c0.12 0 0.16 0 0.2 0.04 s0.12 0.08 0.2 0.08 s0.16 0.08 0.24 0.24 c0.04 0.12 0.12 0.24 0.2 0.28 l0.04 0.04 l-0.04 0.08 c-0.08 0 -0.08 0.04 -0.08 0.08 s0.04 0.08 0.16 0.08 c0.08 0 0.12 0 0.12 0.04 l-0.04 0.12 c-0.04 0.08 -0.04 0.2 -0.04 0.24 l0 0.04 l-0.12 0.08 c-0.44 0.08 -0.68 0.12 -0.68 0.16 l0.08 0.04 l0.32 -0.04 c0.12 0 0.2 0.04 0.2 0.04 c0 0.08 -0.16 0.12 -0.36 0.16 c-0.16 0.04 -0.36 0.12 -0.4 0.16 l-0.08 0.08 l-0.04 -0.04 c0 -0.04 -0.04 -0.08 -0.08 -0.08 s-0.08 0.04 -0.08 0.12 l0 0.04 c0 0.04 0 0.08 -0.04 0.08 l-0.08 0.04 c0 0.04 0.08 0.04 0.12 0.04 l0.24 0 c0.08 0 0.08 0 0.08 0.04 s-0.12 0.12 -0.32 0.16 c-0.16 0 -0.48 0.12 -0.72 0.2 c-0.24 0.12 -0.56 0.2 -0.72 0.28 c-0.64 0.16 -2.04 0.44 -2.4 0.48 l-0.48 0.12 c-0.04 0.04 -0.36 0.12 -0.68 0.16 l-0.48 0.12 l0.08 0 l0.68 -0.08 l0.64 -0.04 c0 0.12 -0.4 0.24 -0.72 0.24 l-0.12 0 c-0.32 0 -0.4 0.04 -0.44 0.12 c0 0.12 -0.12 0.12 -0.56 0.16 c-0.32 0 -0.56 0.04 -0.6 0.08 c-0.04 0.12 -0.52 0.2 -0.96 0.2 c-0.32 0 -0.44 0.04 -0.44 0.32 l0.04 0.44 l0.12 0.68 c0.04 0.08 0.12 0.2 0.12 0.32 l0.04 0.08 c0 0.04 -0.04 0.04 -0.08 0.04 l-0.12 -0.04 l-0.04 0.04 c-0.04 0.04 -0.12 0.08 -0.2 0.08 z M63.080000000000005 5 l0 -0.04 l-0.2 0 l0 0.04 l0.2 0 z M61.400000000000006 5.159999999999997 c0.08 0 0.12 0 0.12 -0.04 l-0.16 0 l-0.04 0.04 l0.08 0 z M60.60000000000001 5.32 c0.08 0 0.08 -0.04 0.08 -0.08 l-0.16 -0.08 l-0.04 0.08 c0 0.04 0.04 0.08 0.12 0.08 z M56.32000000000001 6.399999999999999 l-0.04 -0.04 c0 -0.04 -0.04 -0.04 -0.04 -0.04 s-0.04 0 -0.04 0.04 l0 0.04 l0.12 0 z M64.4 6.840000000000003 l0 -0.04 l-0.16 0 l-0.04 0.04 l0.2 0 z M63.88000000000001 6.920000000000002 c0 -0.04 0 -0.08 -0.04 -0.12 c-0.04 0 -0.04 0.04 -0.04 0.08 l0.04 0.04 l0.04 0 z M64.52000000000001 7.200000000000003 c0.04 0 0.12 0 0.16 -0.04 c0 -0.04 -0.04 -0.08 -0.12 -0.08 l-0.16 0.04 l0 0.04 c0 0.04 0.04 0.04 0.12 0.04 z M62.160000000000004 7.920000000000002 l-0.04 0 c-0.08 0 -0.08 0 -0.08 -0.04 l0.12 0 l0 0.04 z M61.120000000000005 8.2 l-0.04 0 c-0.04 0 -0.08 0 -0.08 -0.04 s0.04 -0.08 0.12 -0.08 c0.16 -0.08 0.52 -0.12 0.68 -0.12 l0.08 0 c0 0.04 -0.12 0.08 -0.32 0.12 c-0.16 0.04 -0.36 0.12 -0.44 0.12 z M60.00000000000001 8.48 c-0.16 0 -0.28 -0.04 -0.28 -0.04 c0.04 -0.04 0.24 -0.08 0.48 -0.16 l0.56 -0.16 l0.12 0 c0 0.04 -0.04 0.16 -0.16 0.24 l-0.12 0.08 l0 -0.04 c0 -0.04 0 -0.08 -0.08 -0.08 s-0.12 0.04 -0.16 0.08 c0 0.04 -0.16 0.08 -0.36 0.08 z M57.040000000000006 9.120000000000001 c0.08 0 0.36 -0.04 0.6 -0.12 l0.12 -0.08 l-0.4 0.04 c-0.24 0.04 -0.4 0.12 -0.4 0.16 l0.08 0 z M56.760000000000005 9.280000000000001 c0.08 -0.04 0.12 -0.08 0.12 -0.12 l-0.04 -0.04 l-0.12 0 c-0.08 0.04 -0.12 0.08 -0.12 0.12 s0.08 0.04 0.16 0.04 z M56.36000000000001 9.399999999999999 c0.04 0 0.12 -0.04 0.12 -0.08 l0 -0.04 c0 -0.04 0 -0.04 -0.04 -0.04 s-0.08 0.04 -0.12 0.08 c0 0.04 0 0.08 0.04 0.08 z M58.00000000000001 9.399999999999999 c-0.04 0 -0.04 -0.04 -0.04 -0.04 l0 -0.04 l0.04 -0.08 c0.04 0 0.04 0.04 0.08 0.08 c0 0.04 -0.04 0.08 -0.08 0.08 z M56.84 9.600000000000001 l0.04 -0.04 c0.16 -0.08 0.44 -0.12 0.56 -0.12 l0.12 0 c-0.08 0.04 -0.28 0.12 -0.52 0.12 z M56.36000000000001 10.120000000000001 c0.04 0 0.08 -0.2 0.08 -0.32 l-0.08 0.04 c-0.04 0.08 -0.04 0.16 -0.04 0.24 z M56.28 10.68 l0.04 -0.08 l-0.08 -0.04 l0 0.04 c0 0.08 0.04 0.08 0.04 0.08 z M52.60000000000001 10.719999999999999 c-0.12 0 -0.2 0 -0.2 -0.04 c0.04 -0.04 0.08 -0.04 0.16 -0.04 l0.08 0 c0.08 0 0.12 0 0.12 0.04 z M52.24000000000001 10.760000000000002 l-0.2 0 l0.04 -0.04 l0.16 0 l0 0.04 z M56.00000000000001 12.8 l0.04 -0.04 l-0.04 -0.04 s0 -0.04 -0.04 -0.04 l0 0.08 z M55.32000000000001 18.72 c0.04 0 0.08 -0.04 0.08 -0.12 l0.08 -0.16 c0.04 0 0.04 -0.04 0.04 -0.08 c0 -0.08 -0.04 -0.24 -0.12 -0.36 l-0.08 -0.04 s-0.04 0.04 -0.04 0.16 l-0.04 0.2 c0 0.04 0.04 0.08 0.08 0.12 l0.04 0.04 l-0.04 0.08 c-0.04 0 -0.08 0.04 -0.08 0.08 s0.04 0.08 0.08 0.08 z M55.400000000000006 18.4 l-0.04 0 l-0.04 -0.08 c0 -0.04 0 -0.08 0.04 -0.08 l0 0.04 c0.04 0.04 0.04 0.12 0.04 0.12 z M55.32000000000001 19.04 l0 -0.08 c0 -0.04 -0.04 -0.08 -0.08 -0.08 l-0.04 0.04 l0.04 0.04 c0 0.04 0.04 0.08 0.08 0.08 z M55.160000000000004 19.64 l0.04 -0.08 l-0.08 -0.04 l0 0.04 c0 0.08 0 0.08 0.04 0.08 z M55.24000000000001 20.12 c0.04 0 0.08 -0.08 0.08 -0.2 s0 -0.2 -0.04 -0.2 s-0.08 0.04 -0.08 0.08 l0 0.24 c0 0.04 0 0.08 0.04 0.08 z M55.080000000000005 20.56 c0.08 0 0.08 -0.08 0.08 -0.2 c-0.04 -0.2 -0.04 -0.24 -0.08 -0.24 l-0.04 0.08 c-0.04 0.08 -0.04 0.16 -0.04 0.2 c0 0.08 0 0.16 0.08 0.16 z M55.120000000000005 21.32 c0 0 0.04 0 0.04 -0.04 c0 -0.36 0 -0.48 -0.04 -0.52 l-0.08 0 l-0.04 0.12 l0 0.16 c0 0.04 0 0.08 -0.04 0.08 l-0.04 0.04 l0.04 0.08 c0.04 0.08 0.12 0.08 0.16 0.08 z M54.800000000000004 22.72 c0.04 0 0.08 -0.04 0.08 -0.08 l-0.08 -0.08 c-0.08 0 -0.08 0.04 -0.08 0.08 s0.04 0.08 0.08 0.08 z M54.480000000000004 24.72 l0.08 -0.04 c0 -0.04 -0.04 -0.04 -0.08 -0.04 l-0.08 0 l-0.04 0.04 c0 0.04 0.04 0.04 0.12 0.04 z M51.400000000000006 25.52 l0.08 -0.04 l-0.04 -0.04 c0 -0.04 -0.04 -0.04 -0.04 -0.04 l0 0.12 z M54.36000000000001 25.52 c0 -0.04 0 -0.08 -0.04 -0.08 l0 -0.04 c-0.04 0 -0.04 0.04 -0.04 0.08 z M54.28 26.759999999999998 c0 -0.04 0 -0.08 -0.04 -0.12 c-0.04 0 -0.04 0 -0.04 0.08 z M54.36000000000001 26.92 l0 -0.04 l-0.12 0 l-0.04 0.04 l0.16 0 z M54.28 27.32 c0.04 0 0.08 -0.04 0.08 -0.12 l-0.04 -0.12 c-0.04 0 -0.04 0.04 -0.08 0.12 c0 0.08 0 0.12 0.04 0.12 z M54.080000000000005 27.96 l0.08 -0.08 c0.04 -0.08 0.08 -0.2 0.08 -0.28 l-0.04 0 z M53.2 28 l0 -0.04 l-0.08 -0.04 l-0.12 0.04 c0 0.04 0.04 0.04 0.12 0.04 l0.08 0 z M54.120000000000005 29.2 c0 -0.04 0 -0.08 -0.04 -0.08 l0 -0.04 c-0.04 0 -0.04 0.04 -0.04 0.08 z M54.120000000000005 29.6 l-0.08 -0.04 c-0.04 0 -0.04 -0.04 -0.04 -0.08 l0 -0.16 l-0.08 0.04 l-0.04 0.08 c0 0.08 0.08 0.16 0.16 0.16 l0.08 0 z M53.84 30.52 l0.2 -0.08 l0.04 -0.2 l-0.16 -0.08 l-0.08 0.04 l0.04 0.08 l-0.04 0.04 c-0.04 0 -0.08 0.04 -0.08 0.08 c0.04 0.08 0.04 0.12 0.08 0.12 z M53.92 30.68 c0.08 0 0.08 0 0.08 -0.04 l-0.08 -0.04 s-0.04 0 -0.04 0.04 l0 0.04 l0.04 0 z M53.88 30.880000000000003 c0.08 0 0.16 0 0.16 -0.04 s-0.08 -0.08 -0.16 -0.08 l-0.04 -0.04 l-0.04 0.04 c-0.04 0 -0.04 0 -0.04 0.04 s0.04 0.08 0.12 0.08 z M53.800000000000004 31.439999999999998 c0.08 -0.04 0.2 -0.12 0.2 -0.2 l0.04 -0.12 l-0.04 -0.04 s-0.08 0 -0.16 0.08 c-0.12 0.04 -0.16 0.12 -0.16 0.2 c0 0.04 0.04 0.08 0.12 0.08 z M53.88 32.08 c0.04 0 0.04 -0.08 0.04 -0.12 l0 -0.08 c0 -0.04 0 -0.08 -0.04 -0.12 l0 0.04 c-0.04 0 -0.04 0.08 -0.04 0.12 c0 0.08 0 0.16 0.04 0.16 z M61.080000000000005 32 c-0.08 0 -0.08 -0.04 -0.08 -0.08 l0.12 0 l0 0.04 z M53.68000000000001 32.519999999999996 c0.04 0 0.12 -0.04 0.12 -0.08 l0.04 -0.08 l-0.04 -0.04 l-0.16 0.16 z M53.84 33.04 c0.04 0 0.08 -0.04 0.08 -0.08 c-0.04 -0.08 -0.08 -0.12 -0.12 -0.12 s-0.04 0.04 -0.04 0.12 c0 0.04 0.04 0.08 0.08 0.08 z M63.160000000000004 34.28 l-0.08 0 c-0.08 0 -0.12 0 -0.12 -0.04 l0.12 -0.04 l0.08 0.04 l0 0.04 z M62.28 34.44 l-0.04 -0.04 l0 -0.04 c0.04 -0.04 0.24 -0.08 0.4 -0.08 l0.24 0 c0 0.04 -0.04 0.08 -0.08 0.08 z M61.480000000000004 34.76 c0.08 0 0.16 -0.04 0.2 -0.08 c0 -0.04 -0.04 -0.08 -0.12 -0.08 s-0.2 0.04 -0.2 0.08 l0 0.04 s0.04 0.04 0.12 0.04 z M61.120000000000005 34.8 c0.04 0 0.04 0 0.04 -0.04 s-0.04 -0.08 -0.08 -0.08 s-0.08 0.04 -0.08 0.08 z M60.32000000000001 34.96 c0.08 0 0.12 -0.04 0.12 -0.08 c-0.04 -0.04 -0.04 -0.08 -0.08 -0.08 s-0.12 0.04 -0.12 0.08 l0 0.04 z M59.2 35.72 l-0.04 0 c-0.08 0 -0.08 0 -0.08 -0.04 l0.12 0 l0 0.04 z M58.00000000000001 36.04 c-0.04 0 -0.08 0 -0.08 -0.04 l0 -0.04 c0 -0.04 0.12 -0.08 0.2 -0.08 s0.12 0 0.12 0.04 z M56.2 36.28 l0.08 -0.04 c0 -0.04 -0.04 -0.04 -0.08 -0.04 l-0.12 0.04 c0 0.04 0.04 0.04 0.12 0.04 z M53.720000000000006 37.24 l0 -0.04 l-0.04 -0.08 l0 0.12 l0.04 0 z M70.04 39.8 c-0.04 0 -0.04 -0.04 -0.08 -0.08 c-0.04 -0.08 -0.16 -0.12 -0.32 -0.12 c-0.28 0 -1.56 -0.64 -1.6 -0.8 c0 -0.08 -0.16 -0.2 -0.36 -0.32 c-0.8 -0.56 -1.56 -1.92 -1.56 -2.72 l0 -0.04 c0 -0.2 -0.04 -0.48 -0.12 -0.6 l-0.04 -0.32 l0.04 -0.28 l-0.08 -0.4 c-0.04 -0.16 -0.08 -0.4 -0.08 -0.56 l0.04 -0.48 l-0.04 -0.28 c-0.04 -0.16 -0.04 -0.52 -0.08 -0.76 c0 -0.2 -0.04 -0.44 -0.08 -0.48 l0 -0.16 l0.04 -0.12 c0 -0.04 -0.04 -0.08 -0.12 -0.16 c-0.04 -0.08 -0.08 -0.08 -0.08 -0.12 l0.08 -0.04 c0.08 0 0.12 -0.12 0.12 -0.24 s-0.04 -0.32 -0.12 -0.44 c-0.04 -0.04 -0.04 -0.12 -0.04 -0.16 c0 -0.08 0 -0.12 0.04 -0.16 l0.04 -0.24 l0 -0.12 c-0.04 -0.2 -0.08 -0.48 -0.08 -0.72 c0 -0.28 0.04 -0.52 0.08 -0.6 c0.04 -0.04 0.08 -0.16 0.08 -0.28 l-0.04 -0.32 c-0.08 -0.56 -0.12 -1.04 -0.12 -1.52 c0 -0.4 0.04 -0.76 0.08 -1.16 l0 -0.4 l0.08 -0.32 l0.12 -0.32 l-0.04 -0.4 l0 -0.16 l0.04 -0.28 l0.08 -0.16 l-0.08 -0.08 c-0.04 -0.04 -0.08 -0.16 -0.08 -0.4 l0.04 -0.76 l-0.04 -0.24 l-0.04 -0.08 l0.08 -0.12 c0.04 -0.04 0.04 -0.2 0.04 -0.32 l0 -0.44 l0.04 -0.52 l0.08 -0.32 l-0.04 -0.28 c0 -0.04 0.04 -0.08 0.08 -0.08 c0.08 0 0.08 0 0.08 -0.04 l-0.04 -0.2 c-0.08 -0.16 -0.12 -0.64 -0.12 -1.08 l0.04 -0.6 c0.08 -0.24 0.2 -1.68 0.2 -1.84 l0 -0.16 c0 -0.28 0.04 -0.52 0.12 -0.6 l0.04 -0.08 l-0.04 -0.12 c-0.04 0 -0.04 -0.04 -0.04 -0.08 l0.08 -0.16 c0.16 -0.12 0.28 -0.8 0.28 -1.28 c0 -0.24 -0.04 -0.4 -0.08 -0.52 l0.04 -0.2 l-0.04 -0.24 l-0.04 -0.08 l0.08 -0.2 c0.04 -0.08 0.08 -0.16 0.08 -0.24 l-0.08 -0.28 c0 -0.08 0.04 -0.16 0.08 -0.2 l0.12 -0.16 c0 -0.08 -0.08 -0.08 -0.2 -0.16 c-0.08 -0.04 -0.2 -0.08 -0.36 -0.08 l-0.28 0.04 c-0.08 0 -0.16 -0.04 -0.2 -0.12 s-0.16 -0.12 -0.24 -0.12 s-0.08 0 -0.08 0.04 l0.04 0.16 l0.08 0.12 c0 0.04 -0.04 0.04 -0.08 0.04 l-0.2 0 c-0.04 0 -0.08 0 -0.08 0.04 s-0.04 0.08 -0.16 0.08 l-0.08 0.04 l0.2 0.16 l-0.28 -0.04 c-0.04 0 -0.12 0 -0.12 0.04 l-0.04 0.04 c-0.08 0 -0.12 -0.04 -0.24 -0.12 s-0.16 -0.12 -0.2 -0.12 s-0.04 0.04 -0.04 0.08 c0 0.08 -0.08 0.16 -0.2 0.16 c-0.08 0 -0.2 0.12 -0.28 0.2 c-0.08 0.16 -0.2 0.2 -0.4 0.2 l-0.12 0 c-0.08 0 -0.16 0 -0.16 0.04 s-0.16 0.08 -0.32 0.12 c-0.2 0.04 -0.44 0.12 -0.52 0.16 l-0.12 0.04 c-0.04 0 -0.04 -0.04 -0.04 -0.12 l0 -0.04 c0 -0.04 -0.04 -0.08 -0.08 -0.08 l-0.28 0.04 c-0.2 0.08 -0.44 0.12 -0.52 0.12 c-0.04 0 -0.08 0 -0.08 0.04 l0.16 0.12 l-0.6 0 l0.2 0.08 c0 0.04 -0.12 0.08 -0.44 0.16 c-0.24 0.08 -0.36 0.08 -0.52 0.08 c-0.08 0 -0.16 0 -0.24 -0.04 c-0.12 -0.08 -0.28 -0.08 -0.4 -0.08 c-0.08 0 -0.16 0 -0.16 0.08 s0.12 0.12 0.2 0.16 l-0.2 0 c-0.16 0 -0.28 0 -0.28 0.04 l0.04 0.08 l-0.04 0.04 c-0.12 0 -0.2 -0.12 -0.24 -0.32 c0 -0.04 -0.04 -0.08 -0.12 -0.08 l-0.28 0.08 l-0.08 0.08 l0.08 0.12 l-0.04 0.04 l-0.12 -0.04 c-0.2 -0.08 -0.44 -0.08 -0.64 -0.08 c-0.16 0 -0.32 0 -0.32 0.04 l-0.08 0.04 c-0.16 0 -0.6 -0.2 -0.64 -0.32 c0 -0.04 -0.16 -0.16 -0.32 -0.24 c-0.16 -0.12 -0.28 -0.24 -0.28 -0.32 l0 -0.04 c0 -0.04 -0.08 -0.12 -0.16 -0.2 c-0.32 -0.28 -0.6 -0.76 -0.8 -1.4 c-0.08 -0.28 -0.12 -0.44 -0.12 -0.56 s0.04 -0.2 0.12 -0.28 c0.16 -0.2 0.28 -0.24 1.16 -0.36 l1.04 -0.12 c0 -0.04 0.32 -0.08 0.68 -0.08 c0.36 -0.04 0.6 -0.08 0.6 -0.12 s0.16 -0.08 0.36 -0.12 l0.16 0 c0.08 0 0.16 0 0.16 0.04 s0.04 0.08 0.08 0.08 c0.08 0 0.08 -0.04 0.08 -0.12 c0 -0.04 0.12 -0.04 0.24 -0.04 l0.16 0 l-0.24 -0.12 l0.24 -0.08 l0.48 -0.12 l0.08 0 c0.08 0 0.08 0.04 0.12 0.12 l0.08 0.12 l0.08 -0.12 c0.04 -0.08 0.08 -0.12 0.12 -0.12 l0.08 0 l0.08 -0.04 c0.04 -0.12 0.48 -0.2 0.76 -0.2 c0.12 0 0.2 0 0.24 0.04 l0.12 0.08 c0.08 0 0.16 -0.04 0.28 -0.2 c0.12 -0.12 0.24 -0.2 0.32 -0.2 s0.12 0.04 0.12 0.08 l0.04 0.08 l0.08 -0.04 l0.04 -0.08 l-0.08 -0.12 c0 -0.04 0.04 -0.04 0.12 -0.04 s0.12 0.04 0.12 0.12 l0 0.04 l0.16 0.04 c0.12 0 0.16 -0.08 0.16 -0.16 l0 -0.08 c0 -0.04 0 -0.08 0.04 -0.08 s0.08 0.08 0.08 0.16 s0.04 0.12 0.08 0.12 l0.04 0 c0.08 0 0.16 -0.08 0.16 -0.2 c0 -0.08 0.04 -0.16 0.08 -0.16 s0.12 0.04 0.12 0.16 l0 0.08 l0.08 -0.12 c0.08 -0.12 0.28 -0.24 0.44 -0.28 l0.16 0 c0.08 0 0.16 0 0.16 0.04 s-0.04 0.08 -0.16 0.12 l-0.04 0 s0.08 0.04 0.2 0.04 c0.2 0 0.28 -0.04 0.28 -0.12 l0 -0.08 c0 -0.08 0.08 -0.12 0.32 -0.12 l0.16 0 c0.08 0 0.12 -0.04 0.12 -0.08 l0 -0.04 l0.04 -0.08 l0.08 0.08 l0.16 0.04 c0.04 0 0.08 0 0.08 -0.04 l0.12 -0.08 l0.32 0.16 l-0.08 -0.12 l0.08 -0.12 c0.08 -0.08 0.2 -0.16 0.28 -0.16 c0.04 0 0.08 0.04 0.08 0.08 l0 0.04 c0 0.04 0.08 0.08 0.2 0.08 c0.2 0 0.24 -0.08 0.24 -0.44 s0 -0.48 0.12 -0.48 c0.08 0 0.16 0.04 0.32 0.12 c0.28 0.16 0.76 0.32 0.96 0.32 c0.04 0 0.08 0 0.08 -0.04 s0.2 -0.08 0.4 -0.08 s0.4 -0.04 0.44 -0.12 l0.08 -0.04 l0 0.16 l0.08 -0.04 c0.04 -0.04 0.08 -0.04 0.08 -0.12 l-0.04 -0.08 l0.16 0.04 l0.24 0.04 c0.32 0 0.8 -0.12 0.8 -0.24 l-0.04 -0.08 l0.2 0 c0.08 0 0.08 0 0.08 -0.04 s0.04 -0.04 0.04 -0.04 l0.04 0 c0.12 0.04 0.24 0.08 0.4 0.08 c0.2 0 0.4 -0.04 0.44 -0.12 s0.08 -0.08 0.12 -0.08 s0.08 0 0.12 0.04 c0.08 0.04 0.28 0.08 0.4 0.08 s0.2 0 0.2 -0.04 l0 -0.08 c0 -0.08 0.04 -0.08 0.08 -0.12 l0.08 -0.04 l0.24 0.12 c0.04 0 0.04 0 0.04 -0.04 s0.2 -0.12 0.4 -0.12 c0.24 0 0.44 -0.04 0.48 -0.08 l0.36 -0.12 c0.12 0 0.32 -0.04 0.44 -0.08 c0.16 -0.08 0.48 -0.08 0.72 -0.08 c0.2 0 0.36 0 0.44 0.04 c0.08 0 0.2 -0.04 0.32 -0.12 c0.08 -0.08 0.24 -0.12 0.36 -0.12 l0.2 0.04 c0.24 0 0.56 -0.08 0.56 -0.2 l-0.04 -0.16 l0.16 0.12 c0.08 0.08 0.16 0.12 0.2 0.12 l0.08 -0.08 l0.04 -0.08 c0 -0.04 0 -0.04 -0.08 -0.04 l-0.08 0 l0.04 -0.08 l0.12 -0.08 l0.24 0.12 c0.04 0 0.04 0 0.04 -0.08 l0 -0.04 l0.04 0 l0.32 -0.04 l0.2 -0.04 c0.08 0 0.12 0 0.2 0.08 l0.12 0.12 l-0.12 -0.2 c0 -0.04 0.08 -0.08 0.28 -0.08 l0.6 0.04 c0.6 0 0.88 -0.04 0.88 -0.08 s0.04 -0.08 0.12 -0.08 l0.24 0 c0.08 0 0.12 0 0.12 -0.04 c0.04 -0.04 0.6 -0.08 1.28 -0.12 c0.64 0 1.2 -0.04 1.24 -0.12 c0 -0.04 0.08 -0.08 0.16 -0.08 s0.12 0.04 0.12 0.12 c0 0.04 0.16 0.08 0.32 0.08 c0.36 0 0.8 -0.08 1.08 -0.16 c0.12 -0.04 0.24 -0.04 0.36 -0.04 c0.16 0 0.32 0 0.56 0.08 c0.52 0.12 0.76 0.16 0.88 0.16 l0.04 0 l-0.08 -0.12 l0.08 0 c0.08 0 0.28 0.04 0.52 0.16 l0.32 0.12 c0.04 0 0.04 -0.04 0.04 -0.08 c0.04 -0.12 0.12 -0.16 0.24 -0.16 c0.16 0 0.32 0.04 0.44 0.16 c0.08 0.08 0.24 0.12 0.32 0.12 l0.08 0 c0.2 0 0.88 0.44 0.96 0.68 c0 0.04 0 0.08 -0.04 0.08 l-0.12 0 l0 0.04 c0 0.04 0.16 0.12 0.32 0.2 c0.12 0.04 0.2 0.08 0.2 0.12 l-0.32 0.08 c-0.44 0.08 -0.6 0.16 -0.6 0.28 l0.08 0.28 l-0.04 0.08 l0.04 0 c0.04 0 0.16 0.04 0.2 0.12 l0.16 0.08 l0.08 -0.04 c0.04 0 0 0.04 -0.04 0.08 c-0.04 0.08 -0.04 0.08 -0.08 0.08 l-0.08 -0.04 c-0.08 -0.08 -0.28 -0.12 -0.48 -0.12 c-0.2 -0.04 -0.4 -0.08 -0.4 -0.16 c-0.04 -0.04 -0.08 -0.12 -0.12 -0.12 l-0.08 0.04 l0.04 0.08 c0 0.08 -0.04 0.16 -0.16 0.2 l-0.08 0.04 c0 0.04 0.12 0.04 0.4 0.04 l0.24 0 c0.24 0 0.44 0.04 0.52 0.08 c0.12 0.04 0.32 0.08 0.48 0.08 c0.12 0 0.24 0.08 0.24 0.12 s-0.36 0.12 -0.96 0.12 c-0.48 0 -0.76 0.04 -0.76 0.08 l0.12 0.04 c0 0.04 -0.08 0.08 -0.2 0.12 l-0.2 0.04 c-0.08 0 -0.16 -0.04 -0.2 -0.08 c-0.08 -0.08 -0.24 -0.12 -0.36 -0.12 s-0.2 0.04 -0.2 0.08 s0 0.04 -0.04 0.04 l-0.04 -0.04 c-0.08 -0.08 -0.16 -0.12 -0.2 -0.12 l-0.04 0.04 l0.08 0.12 c0 0.04 -0.16 0.04 -0.72 0.08 l-0.28 0 c-0.2 0 -0.36 -0.04 -0.44 -0.08 c-0.16 -0.08 -0.4 -0.12 -0.68 -0.12 c-0.24 0 -0.44 -0.04 -0.44 -0.08 l-0.04 -0.08 l-0.04 0.08 c-0.04 0.08 -0.08 0.12 -0.12 0.12 c-0.16 0 -0.28 0.04 -0.28 0.04 c0 0.04 0.08 0.08 0.24 0.08 c0.32 0.04 0.48 0.2 0.48 0.32 c0 0.08 -0.04 0.16 -0.16 0.24 l-0.28 0.12 c-0.08 0 -0.12 -0.08 -0.16 -0.16 l0 -0.04 c0 -0.08 0.12 -0.16 0.4 -0.16 c0.08 0 0.12 0 0.12 -0.08 c0 -0.04 -0.12 -0.08 -0.2 -0.08 c-0.12 0 -0.28 0.04 -0.32 0.12 c0 0.04 -0.04 0.04 -0.08 0.04 l-0.16 -0.04 c-0.12 -0.04 -0.32 -0.08 -0.52 -0.08 c-0.36 0 -0.68 0.08 -0.72 0.2 c-0.04 0.04 -0.04 0.08 -0.08 0.08 c0 -0.04 -0.16 -0.08 -0.28 -0.08 s-0.28 0.04 -0.32 0.12 l-0.04 0.12 c0 0.08 0.08 0.12 0.2 0.12 l0.08 0 c0.04 0 0.04 0 0.04 0.04 c-0.04 0.04 -0.36 0.08 -0.76 0.12 l-0.44 0.04 c-0.24 0 -0.28 -0.04 -0.28 -0.16 c0 -0.08 0.04 -0.16 0.12 -0.16 c0.12 0 0.16 0 0.16 -0.04 c-0.04 -0.08 -0.44 -0.12 -0.76 -0.12 c-0.2 0 -0.32 0 -0.36 0.04 s-0.16 0.12 -0.28 0.16 l-0.08 0.04 l0.44 0 c0.12 0 0.16 0 0.16 0.04 l-0.12 0.2 c0 0.04 0.04 0.04 0.08 0.08 l-0.72 0.08 c-0.52 0.04 -0.88 0.08 -0.88 0.16 c0 0.04 -0.04 0.04 -0.08 0.04 l-0.16 -0.04 l-0.12 -0.08 c-0.04 0 -0.04 0 -0.04 0.04 l0 0.04 c0 0.04 0 0.04 -0.04 0.04 l-0.08 0 l-0.04 0.04 c0 0.04 0.08 0.12 0.16 0.12 l0.04 0.04 c0 0.04 0 0.04 -0.08 0.04 s-0.16 -0.08 -0.2 -0.16 s-0.12 -0.12 -0.2 -0.12 s-0.12 0.04 -0.12 0.08 s-0.12 0.08 -0.28 0.08 c-0.2 0 -0.24 0.04 -0.24 0.08 l0 0.16 c0 0.08 0 0.12 -0.04 0.12 s-0.08 -0.04 -0.12 -0.12 l-0.16 -0.04 l-0.72 0.08 c-0.08 0 -0.12 0 -0.12 -0.04 l0.08 -0.08 l-0.04 -0.12 c0 -0.04 0.04 -0.08 0.08 -0.12 l0.16 -0.08 l0 -0.04 c0 -0.04 -0.12 -0.08 -0.24 -0.08 c-0.16 0 -0.32 0.04 -0.44 0.12 c-0.08 0.04 -0.32 0.08 -0.52 0.12 c-0.2 0 -0.44 0.08 -0.52 0.16 l-0.04 0.08 c0 0.04 0 0.04 0.08 0.04 l0.48 -0.04 c0.28 0 0.36 0.04 0.36 0.12 l0 0.04 c0 0.08 0.04 0.12 0.12 0.12 l0.32 -0.04 l0.04 0.04 l0 0.04 l-0.16 0.04 c-0.36 0 -1.08 -0.12 -1.28 -0.24 l-0.52 -0.12 c-0.24 0 -0.52 -0.04 -0.64 -0.08 c-0.12 0 -0.16 0 -0.16 0.04 l0.04 0.12 c0.08 0.12 0.12 0.16 0.2 0.16 l0.2 -0.04 c0.08 0 0.16 0.08 0.16 0.16 l-0.04 0.12 c0 0.04 0 0.04 -0.04 0.04 l-0.04 -0.04 c0 -0.08 -0.08 -0.12 -0.12 -0.12 l-0.04 0.04 l0.08 0.2 c0 0.04 -0.08 0.04 -0.2 0.08 l-0.2 0 l0.2 0.12 l-0.4 0 c-0.36 0 -0.6 -0.08 -0.76 -0.2 l-0.16 -0.12 c-0.04 0 -0.08 0.04 -0.08 0.08 c-0.04 0.08 -0.16 0.16 -0.32 0.2 l-0.16 0.04 c-0.04 0 -0.04 0 -0.04 -0.04 l0.04 -0.12 c0 -0.04 -0.04 -0.08 -0.2 -0.12 l-0.12 0 c-0.04 0 -0.08 0 -0.08 0.04 l0 0.04 c0 0.08 0.08 0.12 0.12 0.12 s0.08 0.04 0.08 0.12 l0 0.04 s0.04 0.04 0.12 0.04 s0.16 0.04 0.16 0.08 l0 0.04 c0 0.04 -0.04 0.08 -0.08 0.08 l-0.04 0.04 l0.08 0.28 c0 0.04 0 0.08 -0.08 0.08 l-0.08 0.04 l0.12 0.2 l-0.12 0 c-0.04 0 -0.08 0 -0.08 0.04 s0.12 0.12 0.24 0.12 c0.12 0.04 0.2 0.12 0.2 0.16 s-0.04 0.08 -0.12 0.08 l-0.2 0.04 c0 0.04 0.04 0.04 0.16 0.08 c0.2 0.04 0.32 0.16 0.32 0.2 s-0.04 0.08 -0.12 0.08 l-0.2 0 c-0.08 0 -0.24 0.04 -0.28 0.08 s-0.08 0.04 -0.2 0.04 l-0.44 -0.04 l-0.52 -0.12 l-0.04 0.04 l-0.04 0.68 l-0.08 0.64 c0 0.4 -0.44 4.8 -0.56 5.56 l-0.2 3 l0 0.2 c0 0.16 0 0.6 -0.04 0.96 l-0.04 1.28 c0 0.52 -0.08 0.68 -0.4 0.8 l-0.08 0.04 c0 0.04 0.04 0.04 0.16 0.04 c0.16 0 0.28 0.04 0.28 0.08 l0 0.52 c0 0.68 0 1.84 -0.04 2.08 c-0.04 0.16 -0.04 0.4 -0.04 0.56 l0.04 1.2 l-0.04 2.24 l0.04 0.92 c0 0.16 0 0.4 0.04 0.52 c0 0.08 0 0.64 0.04 1.16 c0 1.2 0.08 2.4 0.16 2.84 l0.04 0.52 c0 0.12 0.04 0.28 0.08 0.36 c0 0.12 -0.04 0.16 -0.12 0.16 l-0.08 0 c-0.04 0 -0.08 0.04 -0.08 0.08 c0 0.08 0.04 0.16 0.16 0.16 c0.08 0.04 0.16 0.2 0.24 0.44 c0.08 0.2 0.2 0.48 0.28 0.56 c0.12 0.12 0.16 0.16 0.16 0.28 l-0.04 0.2 l-0.04 0.4 l0.08 -0.04 l0.12 0.04 l0.04 0.08 l-0.08 0.04 c-0.08 0 -0.2 0.04 -0.24 0.16 z M85.88000000000001 3.799999999999997 l0.08 -0.04 l-0.12 -0.12 l-0.08 0 l0 0.08 c0 0.04 0.08 0.08 0.12 0.08 z M85.88000000000001 4.759999999999998 l0.04 -0.04 l-0.08 -0.04 c-0.04 0 -0.04 0 -0.04 0.04 l0 0.04 l0.08 0 z M72.08000000000001 5.719999999999999 c0.04 0 0.08 0 0.08 -0.04 l-0.12 -0.08 l-0.08 -0.04 l0 0.08 c0 0.04 0.08 0.08 0.12 0.08 z M85.24000000000001 5.280000000000001 l0.08 -0.04 l-0.04 -0.04 l-0.12 0 l0 0.04 z M87.44 5.280000000000001 l0 -0.04 l-0.04 -0.12 l-0.04 0 l0 0.08 l0.04 0.08 l0.04 0 z M85.84 5.359999999999999 l0.08 -0.04 l-0.04 -0.04 l-0.12 0 l0 0.04 z M88.12 5.359999999999999 l0.04 -0.08 l-0.08 -0.08 c-0.04 0 -0.04 0.04 -0.04 0.08 z M89.2 5.399999999999999 l-0.04 -0.04 l-0.44 0 l-0.04 0.04 l0.52 0 z M89.92 5.799999999999997 l-0.12 -0.08 c-0.08 -0.04 -0.12 -0.12 -0.12 -0.2 c0 -0.04 0.04 -0.08 0.08 -0.08 l0.36 -0.08 c0.08 -0.04 0.16 -0.04 0.2 -0.04 l0.08 0.04 l0 0.08 l-0.08 0 c-0.08 0 -0.12 0.08 -0.2 0.16 c-0.08 0.12 -0.12 0.2 -0.2 0.2 z M88.16000000000001 6.039999999999999 c0.12 0 0.24 -0.04 0.24 -0.08 s0 -0.04 -0.08 -0.04 l-0.16 0 c-0.08 0 -0.12 -0.04 -0.16 -0.08 c0 -0.12 -0.08 -0.16 -0.12 -0.16 s-0.08 0.04 -0.08 0.08 l0 0.04 l-0.24 0 l0.16 0.12 c0.12 0.08 0.32 0.12 0.44 0.12 z M84.88000000000001 5.960000000000001 l0.04 -0.04 c0 -0.04 0 -0.08 -0.04 -0.12 l-0.04 0 l0 0.08 z M84.64000000000001 6.159999999999997 l0.04 -0.04 l-0.08 -0.12 c-0.04 -0.12 -0.16 -0.16 -0.36 -0.16 c-0.12 0 -0.2 0.04 -0.2 0.04 l0 0.08 l-0.08 0.08 z M85.32000000000001 6.039999999999999 l0.08 -0.08 c0 -0.08 0 -0.12 -0.04 -0.12 l-0.08 0.12 c0 0.04 0 0.08 0.04 0.08 z M86.12 5.920000000000002 l0.04 -0.04 l-0.08 -0.04 c-0.04 0 -0.04 0 -0.04 0.04 l0 0.04 l0.08 0 z M89.2 5.840000000000003 l0.04 -0.08 l-0.08 -0.04 c-0.04 0 -0.04 0.04 -0.04 0.04 l0 0.04 z M83.4 6.32 l0.04 -0.04 l-0.08 -0.2 c0 -0.04 0.04 -0.08 0.16 -0.08 c0.08 0 0.16 0 0.16 -0.04 l-0.12 0 c-0.08 -0.04 -0.12 -0.04 -0.2 -0.04 c-0.08 0.04 -0.16 0.08 -0.16 0.16 l0.04 0.08 c0.04 0.08 0.12 0.16 0.16 0.16 z M82.88000000000001 6.399999999999999 c0.08 0 0.2 -0.08 0.2 -0.2 c-0.04 -0.12 -0.08 -0.16 -0.2 -0.16 s-0.24 0.12 -0.24 0.2 c0 0.04 0.04 0.08 0.08 0.12 s0.08 0.04 0.16 0.04 z M82.32000000000001 6.359999999999999 l0 -0.16 c-0.04 -0.08 -0.08 -0.12 -0.12 -0.12 l0 0.04 c-0.04 0 -0.04 0.04 -0.04 0.08 l0.04 0.08 z M81.48 6.359999999999999 c0.04 0 0.12 -0.04 0.12 -0.08 s0 -0.08 -0.08 -0.08 c-0.04 0 -0.08 0.04 -0.12 0.08 l0.04 0.08 l0.04 0 z M80.76 6.399999999999999 l0.08 -0.04 c0.04 -0.04 0.08 -0.08 0.08 -0.12 s-0.04 -0.04 -0.04 -0.04 c-0.04 0 -0.08 0.04 -0.12 0.08 l-0.04 0.08 z M81.92 6.359999999999999 l0 -0.08 l-0.04 -0.08 l-0.04 0 l0 0.08 z M76.96000000000001 6.520000000000003 l-0.04 -0.04 l-0.08 -0.04 s-0.04 0 -0.04 0.04 l0 0.04 l0.16 0 z M87.68 6.159999999999997 c0.08 0 0.12 -0.04 0.12 -0.04 c-0.04 -0.04 -0.08 -0.04 -0.12 -0.04 l-0.12 0.04 c0 0.04 0.04 0.04 0.12 0.04 z M88.08000000000001 6.359999999999999 c0.04 0 0.08 -0.04 0.08 -0.12 c-0.04 -0.04 -0.08 -0.08 -0.16 -0.08 c-0.04 0 -0.04 0 -0.04 0.04 l0 0.04 c0 0.08 0.08 0.12 0.12 0.12 z M80.28 6.719999999999999 l0.08 -0.12 c0 -0.04 -0.04 -0.08 -0.08 -0.08 c-0.08 0 -0.08 0.04 -0.08 0.08 c0 0.08 0.04 0.12 0.08 0.12 z M78.60000000000001 6.759999999999998 l0.08 -0.04 l-0.12 -0.04 s-0.04 0 -0.04 0.04 l0 0.04 l0.08 0 z M86.44 6.600000000000001 l0.16 -0.04 l-0.28 -0.12 l-0.04 0.08 c0 0.04 0.08 0.08 0.16 0.08 z M79.4 6.840000000000003 c0.08 0 0.12 -0.04 0.12 -0.04 l0 -0.04 l-0.12 -0.08 c-0.04 0 -0.08 0 -0.08 0.04 l-0.12 0.08 c0 0.04 0.08 0.04 0.2 0.04 z M83.92 6.840000000000003 l0.12 -0.08 c0 -0.04 -0.04 -0.08 -0.12 -0.12 l-0.16 -0.08 c-0.08 0 -0.08 0 -0.12 0.04 l0 0.04 c0 0.08 0.12 0.2 0.28 0.2 z M76.68 6.920000000000002 l0.08 -0.04 l-0.08 -0.04 l-0.08 0.04 c0 0.04 0.04 0.04 0.08 0.04 z M64.04 7.479999999999997 l0.08 -0.04 l-0.04 -0.04 l-0.08 -0.04 l-0.04 0.08 z M81.88000000000001 6.840000000000003 l0 -0.04 l-0.08 -0.04 l-0.08 0.04 c0 0.04 0.04 0.04 0.08 0.04 l0.08 0 z M85.28 6.920000000000002 c-0.04 0 -0.04 -0.04 -0.04 -0.08 l0.08 -0.12 c0.04 0 0.04 0.04 0.04 0.12 z M76.92 7.200000000000003 l0.04 -0.08 l-0.08 -0.08 c-0.04 0 -0.04 0.04 -0.04 0.08 c0.04 0.08 0.08 0.08 0.08 0.08 z M75.28 7.359999999999999 c0.04 0 0.12 -0.04 0.12 -0.08 s-0.04 -0.12 -0.16 -0.12 c0 -0.04 -0.04 -0.04 -0.04 -0.04 c-0.08 0 -0.08 0.04 -0.08 0.12 c0.04 0.08 0.12 0.12 0.16 0.12 z M76.56 7.32 c0.04 0 0.08 -0.04 0.08 -0.08 c0 -0.08 0 -0.12 -0.08 -0.12 c-0.04 0 -0.08 0.04 -0.08 0.12 z M74.96000000000001 7.280000000000001 l0.08 -0.04 l-0.04 -0.04 l-0.08 0 s-0.04 0 -0.04 0.04 z M76.08000000000001 7.439999999999998 c0.08 0 0.12 -0.04 0.12 -0.08 l0 -0.04 c-0.08 -0.04 -0.16 -0.08 -0.24 -0.08 s-0.12 0.04 -0.12 0.12 c0.04 0.04 0.12 0.08 0.24 0.08 z M78.84 7.32 l0.16 -0.04 l0 -0.04 c0 -0.08 -0.08 -0.08 -0.16 -0.08 s-0.12 0.04 -0.16 0.08 c0 0.04 0.08 0.08 0.16 0.08 z M86.48 7.32 c-0.16 0 -0.32 -0.04 -0.48 -0.08 l-0.28 -0.08 c-0.08 0 -0.08 0 -0.12 0.08 c0 0.04 -0.04 0.04 -0.08 0.04 l-0.08 -0.04 l-0.08 -0.08 l0.04 0 l0.12 -0.04 c0.08 -0.08 0.44 -0.2 0.6 -0.2 c0.04 0 0.08 0 0.08 0.04 c0.04 0.04 0.24 0.04 0.48 0.04 l0.4 -0.04 c0.28 0 0.52 0.08 0.56 0.16 c0 0.08 -0.08 0.12 -0.2 0.12 s-0.4 0 -0.64 0.04 z M74.44000000000001 7.68 l-0.04 -0.12 c0 -0.08 -0.12 -0.16 -0.2 -0.16 s-0.16 0.08 -0.16 0.12 l0.08 0.04 l0.08 0 l0.12 0.04 z M83.16000000000001 7.759999999999998 l-0.16 0 c-0.12 0 -0.16 -0.04 -0.2 -0.16 l0 -0.08 c0 -0.04 0 -0.08 0.04 -0.08 l0.08 0 c0.16 0 0.4 -0.16 0.44 -0.28 c0.04 0 0.04 -0.04 0.12 -0.04 c0.12 0 0.36 0.08 0.36 0.16 c0 0.04 0.12 0.08 0.28 0.08 s0.24 0 0.24 0.04 l-0.08 0.08 c0 0.04 0.04 0.04 0.16 0.08 l0.08 0.04 l-0.4 0 l-0.36 0.04 l-0.08 -0.04 l0.32 -0.12 l-0.16 0 c-0.16 0 -0.32 0.04 -0.36 0.12 s-0.2 0.16 -0.32 0.16 z M77.48 7.600000000000001 c0.04 0 0.08 -0.04 0.08 -0.12 l-0.08 -0.08 c-0.04 0 -0.08 0.04 -0.08 0.08 l0 0.04 c0 0.04 0.04 0.08 0.08 0.08 z M60.84 8.079999999999998 l0.04 -0.04 l0 -0.04 l-0.08 -0.04 c-0.04 0 -0.04 0.04 -0.04 0.04 l0 0.04 z M72.2 8 l0.12 -0.24 l-0.04 -0.12 l-0.2 0 c-0.04 0.04 -0.08 0.04 -0.08 0.08 l0.08 0.2 c0.04 0.04 0.08 0.08 0.12 0.08 z M72.92 7.880000000000003 c0.08 0 0.12 -0.04 0.12 -0.12 l0 -0.04 c0 -0.04 -0.12 -0.08 -0.24 -0.08 c-0.16 0 -0.2 0 -0.2 0.04 l0.08 0.12 z M74.88000000000001 7.759999999999998 l0 -0.08 c0 -0.04 -0.08 -0.08 -0.12 -0.08 l-0.08 0.04 l0.04 0.04 z M73.16000000000001 8.04 c0.04 0 0.08 -0.08 0.12 -0.2 l0.08 -0.12 c-0.04 0 -0.04 0.04 -0.12 0.08 l-0.12 0.2 c0 0.04 0 0.04 0.04 0.04 z M76.4 7.799999999999997 c0.08 0 0.16 -0.04 0.24 -0.08 l0.04 -0.08 c0 -0.04 -0.04 -0.04 -0.12 -0.04 c-0.12 0.04 -0.24 0.08 -0.28 0.12 l0 0.04 c0 0.04 0.04 0.04 0.12 0.04 z M81.92 7.520000000000003 c0.08 0 0.12 -0.04 0.12 -0.04 c-0.04 -0.04 -0.12 -0.04 -0.16 -0.04 s-0.08 0 -0.08 0.04 l-0.04 0.04 l0.16 0 z M71.60000000000001 8 c0.16 -0.04 0.24 -0.08 0.24 -0.12 s-0.04 -0.04 -0.08 -0.04 l-0.16 0 c-0.12 0.04 -0.2 0.08 -0.2 0.12 c0 0 0.08 0.04 0.2 0.04 z M70.68 8.2 l0.04 -0.04 l0 -0.04 c0 -0.08 -0.04 -0.12 -0.04 -0.12 c-0.04 0 -0.08 0.08 -0.08 0.12 l0 0.04 z M74 8.2 c0.04 0 0.08 -0.04 0.08 -0.12 c0 -0.04 0 -0.08 -0.08 -0.08 c-0.04 0 -0.08 0.04 -0.08 0.08 z M71.16000000000001 8.52 c0.16 0 0.4 -0.12 0.4 -0.24 c0 -0.08 -0.12 -0.08 -0.24 -0.08 l-0.12 0.04 l0.04 0.08 c0 0.04 -0.04 0.08 -0.08 0.08 l-0.08 0.04 l0 0.04 z M74.4 8.16 l0 -0.04 l-0.08 -0.04 c-0.04 0 -0.04 0 -0.04 0.04 l0 0.04 l0.12 0 z M80.32000000000001 8.04 l-0.2 0 l0.04 -0.04 l0.36 0 c0 0.04 -0.08 0.04 -0.2 0.04 z M76.16000000000001 8.36 l-0.04 0 l-0.12 -0.04 l-0.04 -0.08 l0.04 -0.08 l0.08 0 l0.08 0.04 l0.04 0.08 z M73.12 8.399999999999999 c0.12 0 0.2 -0.04 0.2 -0.08 l-0.08 -0.04 l-0.16 0 c-0.12 0.04 -0.24 0.08 -0.24 0.12 l0.28 0 z M79.68 8.16 l-0.48 0 l0.04 -0.04 l0.4 0 c0.04 0 0.04 0 0.04 0.04 z M74.64 8.64 l-0.24 0 l0.04 -0.04 c0.04 -0.04 0.08 -0.04 0.12 -0.04 l0.08 0.04 l0 0.04 z M73.2 8.84 c0.12 0 0.32 -0.08 0.32 -0.16 l-0.04 -0.04 c-0.04 -0.04 -0.08 -0.04 -0.12 -0.04 l-0.2 0.04 c-0.12 0.04 -0.16 0.08 -0.16 0.12 z M65.08000000000001 9.440000000000001 l1 -0.16 c0.32 -0.04 0.52 -0.08 0.52 -0.16 c0 -0.04 -0.08 -0.08 -0.16 -0.12 l-0.16 -0.08 c-0.04 0 -0.08 0 -0.12 0.04 c-0.08 0.12 -0.2 0.12 -0.92 0.24 c-0.24 0.04 -0.36 0.12 -0.36 0.16 s0.08 0.08 0.2 0.08 z M66.80000000000001 9.120000000000001 l0.08 -0.12 c0 -0.04 0 -0.08 -0.04 -0.08 l-0.08 0.12 c0 0.04 0 0.08 0.04 0.08 z M72.92 9.120000000000001 c0.08 -0.04 0.12 -0.04 0.12 -0.08 s-0.08 -0.08 -0.12 -0.08 s-0.12 0 -0.12 0.04 l0 0.04 c0 0.04 0.04 0.08 0.12 0.08 z M72.16000000000001 9.399999999999999 l-0.16 0 l0 -0.04 c0 -0.04 0.04 -0.04 0.04 -0.04 c0.04 0 0.08 0 0.08 0.04 z M72.64 9.48 l-0.12 0 l0.04 -0.04 l0.08 -0.04 c0.04 0 0.08 0 0.12 0.04 c0 0.04 -0.04 0.04 -0.12 0.04 z M63.96000000000001 9.8 l0.12 -0.04 l-0.04 -0.04 l-0.24 0 l0 0.04 s0.04 0.04 0.16 0.04 z M63.32000000000001 10.04 l0.08 -0.04 l0.04 -0.08 c0 -0.04 -0.04 -0.08 -0.08 -0.12 l-0.08 -0.04 l-0.04 0 c-0.04 0 -0.08 0.04 -0.08 0.08 l0.04 0.12 c0.04 0.08 0.08 0.08 0.12 0.08 z M62.84 10.04 c0.04 0 0.12 -0.04 0.12 -0.12 l0 -0.04 c0 -0.04 0 -0.04 -0.04 -0.04 c-0.08 0 -0.12 0.04 -0.16 0.08 c0 0.08 0.04 0.12 0.08 0.12 z M61.64000000000001 10.16 l0.08 -0.04 l-0.12 -0.04 s-0.04 0 -0.04 0.04 l0 0.04 l0.08 0 z M66.72000000000001 10.68 c0.04 0 0.08 -0.04 0.08 -0.08 l-0.08 -0.16 c0 -0.04 0 -0.04 0.04 -0.04 l0.04 -0.08 l0 -0.04 c0 -0.04 -0.2 -0.08 -0.36 -0.08 c-0.2 0 -0.28 0 -0.28 0.04 l0.16 0.08 c0.12 0.04 0.24 0.12 0.28 0.2 c0 0.08 0.08 0.16 0.12 0.16 z M65.84 10.52 c0.04 0 0.08 -0.04 0.08 -0.12 l0 -0.08 c-0.04 0 -0.08 0.04 -0.08 0.08 l-0.04 0.08 z M63.32000000000001 11.079999999999998 c0.04 0 0.08 -0.04 0.08 -0.08 l0 -0.04 l-0.16 -0.08 c-0.04 0 -0.08 0.04 -0.08 0.12 c0 0.04 0.04 0.08 0.16 0.08 z M63.88000000000001 11.079999999999998 l0.08 -0.12 c0 -0.04 -0.04 -0.08 -0.08 -0.08 s-0.08 0.04 -0.08 0.08 z M66 11 l-0.08 -0.04 c0 -0.04 0.08 -0.08 0.2 -0.12 l0.08 0 c0.04 0 0.04 0.04 0.04 0.04 c0 0.04 -0.12 0.12 -0.24 0.12 z M65.4 11.120000000000001 l-0.08 -0.04 l0.04 -0.08 l0.08 0.04 l0.04 0.04 z M61.56000000000001 11.48 l0.16 -0.04 c0.08 0 0.16 -0.04 0.16 -0.08 c0 0 -0.08 -0.04 -0.2 -0.04 c-0.08 0 -0.16 0.04 -0.16 0.08 z M62.160000000000004 11.399999999999999 l-0.04 -0.04 c0 -0.04 -0.04 -0.04 -0.04 -0.04 l-0.08 0.04 c0 0.04 0.04 0.04 0.08 0.04 l0.08 0 z M71.44000000000001 11.36 l-0.08 0 c-0.04 0 -0.08 -0.04 -0.12 -0.08 l-0.04 -0.04 c0 -0.04 0.04 -0.04 0.08 -0.04 c0.08 0 0.2 0.04 0.24 0.08 l0 0.04 z M70.84 11.399999999999999 c-0.08 0 -0.12 -0.04 -0.12 -0.08 l0.16 0 l0 0.04 z M62.64000000000001 11.68 l0.08 -0.04 l-0.08 -0.04 l-0.08 0.04 c0 0.04 0.04 0.04 0.08 0.04 z M69.96000000000001 11.52 c0 -0.04 0 -0.12 -0.04 -0.16 l-0.04 0 l-0.04 0.04 l0.04 0.04 c0 0.08 0.04 0.08 0.08 0.08 z M61.800000000000004 12 c-0.04 0 -0.08 0 -0.08 -0.04 l0.04 0 c0 -0.04 0.04 -0.04 0.08 -0.04 s0.08 0 0.08 0.04 c0 0 -0.04 0.04 -0.12 0.04 z M60.400000000000006 12.239999999999998 c0.08 0 0.08 -0.04 0.08 -0.08 c-0.04 -0.08 -0.16 -0.08 -0.28 -0.08 l-0.12 0 c0 0.04 0.04 0.04 0.08 0.08 z M69.92 12.399999999999999 c0 -0.04 0 -0.12 -0.08 -0.2 c0 -0.04 -0.04 -0.04 -0.04 -0.04 l0 0.08 c0.04 0.12 0.08 0.16 0.12 0.16 z M69.76 13.559999999999999 l0.04 -0.04 l-0.04 -0.04 c0 -0.04 -0.04 -0.08 -0.12 -0.08 l-0.04 0.04 z M69.72 14.32 c0 -0.04 0 -0.08 -0.04 -0.12 l-0.08 0 l0 0.08 l0.08 0.04 l0.04 0 z M69.64 14.84 l0.08 -0.08 c0 -0.08 0 -0.12 -0.04 -0.12 l-0.08 0.12 c0 0.04 0 0.08 0.04 0.08 z M69.4 16.88 c0.04 0 0.08 0 0.08 -0.04 l-0.04 0 c0 -0.04 -0.04 -0.04 -0.04 -0.04 l-0.08 0.04 c0 0.04 0.04 0.04 0.08 0.04 z M69.32000000000001 17.96 c0.04 0 0.12 -0.04 0.2 -0.12 l0.04 -0.08 l-0.12 0 c-0.08 0 -0.16 0.04 -0.16 0.12 l0 0.04 c0 0.04 0 0.04 0.04 0.04 z M69.28 18.44 c0.04 0 0.08 -0.04 0.08 -0.08 l-0.08 -0.12 l-0.08 0.12 c0 0.04 0.04 0.08 0.08 0.08 z M69.44000000000001 19.4 l-0.04 -0.24 c-0.04 -0.16 -0.08 -0.2 -0.12 -0.2 l-0.08 0.08 l-0.08 0.16 c0 0.04 0.04 0.08 0.08 0.08 l0.08 -0.04 l0.08 0.08 c0 0.04 0.04 0.08 0.08 0.08 z M69.24000000000001 19.8 l0.12 -0.16 l0.04 -0.12 s-0.04 0 -0.08 0.08 l-0.12 0.16 c0 0.04 0 0.04 0.04 0.04 z M69.16000000000001 20.76 c0 -0.04 0 -0.12 -0.04 -0.16 l-0.04 0 l-0.04 0.04 l0.08 0.12 l0.04 0 z M69.16000000000001 21.44 c0 -0.04 0 -0.12 -0.04 -0.16 l-0.04 0 l0 0.08 l0.04 0.08 l0.04 0 z M69.04 22.52 l0.04 -0.08 l-0.04 -0.08 l-0.04 0 l0 0.08 z M69.2 23.12 l0.04 -0.04 l-0.08 -0.16 c-0.12 -0.08 -0.16 -0.2 -0.16 -0.24 l0.04 0 l-0.04 0 l-0.04 0.08 c0 0.12 0.12 0.36 0.24 0.36 z M68.80000000000001 23.2 c0 -0.04 0 -0.12 -0.04 -0.2 l-0.08 -0.04 l0.04 0.12 c0 0.08 0.04 0.12 0.04 0.12 l0.04 0 z M69.08000000000001 23.56 l0 -0.04 l-0.04 -0.12 l-0.04 -0.04 l0 0.08 z M67.80000000000001 26.52 l0.04 -0.08 c0.04 -0.08 0.04 -0.16 0.04 -0.2 s-0.04 -0.04 -0.04 -0.04 l-0.08 0 c-0.04 0.04 -0.04 0.16 -0.04 0.24 c0.04 0.04 0.04 0.08 0.08 0.08 z M68.92 26.68 l0.08 -0.28 c-0.04 -0.04 -0.04 -0.08 -0.08 -0.08 s-0.08 0.08 -0.08 0.2 c0.04 0.12 0.04 0.16 0.08 0.16 z M69.12 27.36 l-0.04 -0.16 c-0.04 -0.16 -0.12 -0.2 -0.16 -0.2 l-0.04 0.04 l0.04 0.08 c0 0.12 0.16 0.24 0.2 0.24 z M67.92 27.2 l0 -0.04 c0 -0.04 0 -0.08 -0.04 -0.08 c0 -0.04 0 -0.04 -0.04 -0.04 l0.04 0.16 l0.04 0 z M68.88000000000001 27.64 l0.08 -0.04 l0.04 -0.12 l-0.04 -0.04 c-0.04 0 -0.08 0.04 -0.08 0.12 l0 0.08 z M68.92 28.16 c0.04 0 0.08 -0.08 0.08 -0.16 s0 -0.08 -0.04 -0.08 c-0.08 0.04 -0.08 0.08 -0.08 0.16 z M67.76 28.2 c0.04 0 0.08 -0.04 0.08 -0.12 l-0.08 -0.08 l-0.08 0.12 c0 0.04 0.04 0.08 0.08 0.08 z M68.04 28.08 c0.04 0 0.04 -0.04 0.04 -0.04 l-0.08 -0.04 c-0.04 0 -0.04 0 -0.04 0.04 l0 0.04 l0.08 0 z M68.48 28.36 l0.16 -0.12 c0.08 -0.04 0.12 -0.12 0.12 -0.16 l-0.04 0 c-0.04 0 -0.12 0.04 -0.16 0.12 z M69.08000000000001 29.52 c0 0 0.04 -0.04 0.04 -0.12 l0 -0.04 s-0.04 -0.04 -0.12 -0.04 c-0.04 0 -0.08 0 -0.08 0.04 l0.04 0.04 c0.04 0.08 0.08 0.12 0.12 0.12 z M68.96000000000001 29.759999999999998 l-0.04 -0.16 l-0.04 -0.04 l0.04 0.2 l0.04 0 z M68 30.4 l0 -0.04 l-0.12 -0.08 l-0.08 -0.04 l0.04 0.08 c0.04 0.08 0.12 0.08 0.12 0.08 l0.04 0 z M68.96000000000001 30.759999999999998 l0 -0.04 l-0.04 -0.12 l-0.04 0 l0 0.08 c0 0.08 0.04 0.08 0.08 0.08 z M68.92 31.36 l0.04 -0.16 c0 -0.08 0 -0.12 -0.08 -0.12 c-0.04 0 -0.04 0 -0.04 0.04 l0 0.08 c0.04 0.08 0.04 0.16 0.08 0.16 z M69 32.04 c0.04 0 0.08 -0.08 0.08 -0.16 s-0.04 -0.12 -0.08 -0.12 c-0.08 0 -0.08 0.04 -0.08 0.12 z M68.08000000000001 32.36 c0.08 0 0.12 -0.04 0.12 -0.12 l0.04 -0.04 l-0.04 0 l-0.08 0.04 c-0.08 0.04 -0.12 0.04 -0.12 0.08 s0.04 0.04 0.08 0.04 z M68.08000000000001 32.72 c0 -0.04 0 -0.12 -0.04 -0.2 l-0.08 -0.04 c0 0.04 0 0.08 0.04 0.12 c0 0.08 0.04 0.12 0.04 0.12 l0.04 0 z M69.04 32.8 c0.04 0 0.08 -0.04 0.08 -0.08 l0 -0.04 c0 -0.04 -0.04 -0.08 -0.08 -0.12 l-0.04 0 c-0.04 0 -0.04 0.04 -0.04 0.12 c0.04 0.08 0.04 0.12 0.08 0.12 z M68.04 34.8 c0.04 0 0.08 -0.08 0.08 -0.12 c-0.04 -0.04 -0.08 -0.08 -0.16 -0.08 c-0.04 0 -0.04 0 -0.04 0.04 l0 0.04 c0 0.08 0.08 0.12 0.12 0.12 z M69.16000000000001 35.480000000000004 l0.04 -0.08 l-0.08 -0.04 c-0.04 0 -0.04 0 -0.04 0.08 z M69.36000000000001 35.480000000000004 l0 -0.04 l-0.04 -0.08 l-0.04 0 l0 0.08 z M68.96000000000001 35.64 l0.08 -0.04 l-0.04 -0.04 l-0.08 -0.04 l-0.04 0.08 z M69.32000000000001 37.12 c0.04 0 0.08 0 0.12 -0.08 l0.04 -0.12 l-0.08 -0.2 c-0.04 -0.04 -0.04 -0.08 -0.08 -0.08 s-0.04 0.04 -0.08 0.16 l0 0.12 c0 0.12 0.04 0.2 0.08 0.2 z M70.32000000000001 39.84 c-0.08 0 -0.12 0 -0.12 -0.04 l0.04 0 c0.04 -0.04 0.08 -0.04 0.12 -0.04 l0.08 0.04 s-0.04 0.04 -0.12 0.04 z">
        </path>
    </g>
</svg>