<?xml version="1.0" encoding="utf-8"?>

<svg width="268.8475164739131" height="100.00580593911714" viewBox="0 0 268.8475164739131 100.00580593911714"
    class="css-1j8o68f" xmlns='http://www.w3.org/2000/svg'>
    <defs id="SvgjsDefs2554">
        <linearGradient id="SvgjsLinearGradient2559">
            <stop id="SvgjsStop2560" stop-color="#8f5e25" offset="0"></stop>
            <stop id="SvgjsStop2561" stop-color="#fbf4a1" offset="0.5"></stop>
            <stop id="SvgjsStop2562" stop-color="#8f5e25" offset="1"></stop>
        </linearGradient>
        <linearGradient id="SvgjsLinearGradient2563">
            <stop id="SvgjsStop2564" stop-color="#8f5e25" offset="0"></stop>
            <stop id="SvgjsStop2565" stop-color="#fbf4a1" offset="0.5"></stop>
            <stop id="SvgjsStop2566" stop-color="#8f5e25" offset="1"></stop>
        </linearGradient>
    </defs>
    <g id="SvgjsG2555" featurekey="G09qjj-0"
        transform="matrix(0.9999948143959045,0,0,0.9999948143959045,0,0.002999984462192798)"
        fill="url(#SvgjsLinearGradient2559)">
        <path xmlns="http://www.w3.org/2000/svg" fill-rule="evenodd" clip-rule="evenodd"
            d="M51.447,59.186c0,0-12.542,12.916-18.583,17.829  c-3.561-7.275,2.275-18.726,2.275-18.726L11.535,27.337c0,0-7.694,3.517-11.535,2.013C9.471,19.251,19.254,9.468,29.352-0.003  c1.434,3.76-2.012,11.284-2.012,11.284l30.701,23.856c0,0,11.578-5.927,18.977-2.275c-4.955,5.917-17.83,18.332-17.83,18.332  s27.875,31.665,40.66,48.651c0.352,0.301,0.021,0.098-0.252,0C83.035,86.804,51.447,59.186,51.447,59.186z">
        </path>
    </g>
    <g id="SvgjsG2556" featurekey="0yvIkK-0"
        transform="matrix(3.2930846214294434,0,0,3.2930846214294434,119.86827988028718,14.138307460423823)"
        fill="url(#SvgjsLinearGradient2563)">
        <path
            d="M2.84 20 l-0.08 -0.04 c-0.02 -0.04 -0.06 -0.06 -0.1 -0.06 s-0.12 -0.04 -0.18 -0.08 s-0.2 -0.12 -0.34 -0.16 c-0.12 -0.04 -0.22 -0.1 -0.22 -0.12 s-0.06 -0.1 -0.14 -0.16 c-0.08 -0.08 -0.18 -0.2 -0.22 -0.28 c-0.06 -0.1 -0.12 -0.16 -0.14 -0.16 s-0.06 -0.1 -0.08 -0.22 l-0.02 -0.16 l0.02 -0.06 c0.02 0 0.04 -0.08 0.04 -0.18 s0 -0.28 0.02 -0.4 l0 -0.52 c0 -0.18 0.02 -0.3 0.04 -0.3 s0.04 -0.12 0.04 -0.24 c0 -0.14 0.02 -0.42 0.06 -0.64 l0.08 -0.48 c0.02 -0.04 0.04 -0.22 0.06 -0.4 c0 -0.16 0.06 -0.44 0.1 -0.6 c0.06 -0.24 0.12 -0.6 0.12 -0.78 l0 -0.08 c0 -0.04 0 -0.06 0.02 -0.06 s0.06 -0.1 0.08 -0.2 l0.14 -0.46 c0.04 -0.12 0.08 -0.34 0.1 -0.52 c0.02 -0.16 0.06 -0.34 0.1 -0.4 c0.04 -0.04 0.06 -0.08 0.06 -0.12 s-0.02 -0.06 -0.04 -0.06 l-0.06 0.02 c-0.02 0 -0.02 -0.02 -0.02 -0.04 c0.02 -0.06 0.04 -0.08 0.08 -0.08 l0.02 0 c0.02 0 0.04 -0.04 0.04 -0.08 c0 -0.06 0.02 -0.14 0.06 -0.18 c0.02 -0.02 0.04 -0.08 0.04 -0.12 c0 -0.02 0.04 -0.24 0.1 -0.44 c0.04 -0.18 0.08 -0.36 0.08 -0.46 l0 -0.04 c0 -0.04 0.02 -0.1 0.06 -0.1 c0.06 0 0.06 -0.04 0.06 -0.14 l0 -0.06 c0 -0.06 0.02 -0.1 0.04 -0.12 s0.04 -0.02 0.04 -0.06 l0 -0.06 c0 -0.1 0.02 -0.24 0.06 -0.28 s0.08 -0.3 0.08 -0.48 l-0.02 -0.16 l-0.02 -0.08 l0.04 0.06 c0.04 0 0.08 -0.06 0.12 -0.16 l0.04 -0.18 l0 -0.04 c0 -0.04 0.1 -0.24 0.16 -0.28 l0.02 -0.06 l-0.02 -0.1 l0.04 -0.3 l-0.02 -0.08 c0 -0.02 0.02 -0.02 0.04 -0.02 l0.02 0 c0.02 0 0.04 -0.04 0.04 -0.08 c0.02 -0.06 0.02 -0.12 0.02 -0.14 c0.02 -0.16 0.18 -0.7 0.2 -0.74 l0.02 -0.04 l-0.02 -0.04 l0.02 -0.12 c0.04 -0.04 0.08 -0.18 0.1 -0.28 c0 -0.1 0.04 -0.28 0.08 -0.38 c0.04 -0.18 0.06 -0.28 0.06 -0.34 c0 -0.04 0 -0.06 -0.04 -0.06 l-0.06 0.02 l0.02 -0.1 l0.04 -0.06 l0.02 0 c0.02 0.02 0.04 0.04 0.06 0.04 s0.04 -0.02 0.04 -0.06 l0 -0.04 c0 -0.04 -0.06 -0.06 -0.12 -0.06 c-0.04 0 -0.08 0 -0.08 0.04 c-0.04 0.1 -1.06 0.88 -1.16 0.88 c-0.02 0 -0.04 0.02 -0.04 0.04 s-0.06 0.06 -0.12 0.12 l-0.28 0.24 c-0.08 0.08 -0.14 0.16 -0.18 0.16 l-0.02 0 c-0.06 0 -0.16 0.12 -0.16 0.2 l0 0.02 c0 0.04 -0.04 0.1 -0.1 0.16 s-0.12 0.14 -0.12 0.16 l0 0.02 c0 0.02 0.1 0.04 0.22 0.06 c0.14 0.02 0.2 0.04 0.2 0.06 s-0.02 0.06 -0.06 0.1 l-0.06 0.08 l0.02 0.02 l0.1 -0.02 c0 0.02 -0.06 0.04 -0.14 0.08 l-0.18 0.08 l0.04 0 l0.48 -0.06 l-0.06 0.04 c-0.58 0.28 -0.86 0.4 -0.92 0.4 l-0.02 0 l0 -0.04 c0 -0.02 -0.04 -0.04 -0.1 -0.04 c-0.08 0 -0.22 -0.08 -0.44 -0.26 c-0.14 -0.14 -0.28 -0.24 -0.28 -0.28 l0 -0.02 l-0.04 -0.1 c-0.08 -0.12 -0.38 -0.72 -0.38 -0.8 l0 -0.02 c0 -0.08 0.12 -0.28 0.48 -0.72 c0.16 -0.22 0.34 -0.42 0.38 -0.42 c0.02 0 0.06 0 0.06 -0.04 s0.1 -0.1 0.2 -0.2 c0.1 -0.08 0.2 -0.16 0.2 -0.2 c0 -0.08 0.2 -0.28 0.38 -0.36 c0.08 -0.04 0.14 -0.08 0.14 -0.12 l0 -0.02 l0.06 0 c0.1 0 0.5 -0.28 0.5 -0.36 c0 -0.04 0.34 -0.3 0.58 -0.42 c0.1 -0.04 0.24 -0.12 0.3 -0.16 l0.32 -0.18 c0.12 -0.04 0.24 -0.1 0.26 -0.14 s0.08 -0.06 0.14 -0.06 c0.04 0 0.08 -0.02 0.08 -0.06 c0 -0.02 0.06 -0.06 0.16 -0.06 c0.16 -0.04 0.38 -0.3 0.38 -0.44 l0 -0.02 c0 -0.02 0.02 -0.06 0.06 -0.08 s0.06 -0.06 0.06 -0.1 l0 -0.02 c0 -0.06 0.06 -0.08 0.2 -0.08 l0.12 0 c0.14 0 0.18 0.02 0.2 0.12 s0.08 0.14 0.16 0.14 c0.04 0 0.1 -0.02 0.14 -0.04 l0.16 -0.08 l0.2 -0.04 c0.08 -0.02 0.16 -0.06 0.16 -0.08 s0.02 -0.02 0.02 -0.02 l0.06 0 c0.04 0 0.08 -0.02 0.1 -0.04 c0.04 -0.04 0.06 -0.06 0.08 -0.06 l0.02 0.02 c0 0.04 0.02 0.04 0.06 0.04 c0.06 0 0.14 -0.02 0.24 -0.08 c0.08 -0.06 0.2 -0.1 0.24 -0.1 s0.18 -0.04 0.28 -0.08 l0.24 -0.04 l0.12 0.02 l0.02 -0.02 l-0.04 -0.06 l0.18 0.02 l0.14 -0.04 c0.06 -0.02 0.22 -0.04 0.36 -0.04 l0.28 -0.04 c0.04 -0.04 0.14 -0.08 0.18 -0.08 s0.06 0.02 0.06 0.04 l0 0.02 l0.02 0.02 l0.06 -0.02 c0.14 -0.04 0.6 -0.1 0.74 -0.1 l0.18 0.02 l0.34 -0.02 l0.2 0 c0.06 0 0.1 0 0.1 0.02 l0.06 0.02 l0.18 -0.06 c0.04 0 0.06 0.02 0.06 0.04 c0.02 0.02 0.08 0.02 0.16 0.02 l0.2 0 c0.28 0 0.78 0.06 0.8 0.12 c0 0.02 0.08 0.04 0.18 0.06 c0.32 0.04 0.86 0.32 1.28 0.66 c0.08 0.06 0.16 0.1 0.18 0.1 s0.06 0.04 0.08 0.1 s0.08 0.1 0.1 0.1 s0.04 0.02 0.06 0.06 c0 0.04 0.06 0.12 0.12 0.18 c0.36 0.34 0.88 1.36 0.88 1.68 l0 0.04 l0.02 0.24 l0.04 0.14 c0 0.14 -0.08 0.22 -0.2 0.22 c-0.06 0 -0.1 0.02 -0.1 0.08 l0 0.22 c0 0.02 0.02 0.04 0.04 0.04 c0.06 -0.02 0.1 -0.04 0.1 -0.08 s-0.02 -0.06 -0.04 -0.08 l-0.02 -0.04 c0 -0.02 0.02 -0.02 0.06 -0.04 l0.06 0 c0.02 0 0.02 0 0.02 0.04 l0 0.06 c0 0.06 -0.02 0.14 -0.04 0.18 l0.02 0.18 c0 0.12 -0.1 0.3 -0.18 0.3 l-0.06 0 c-0.02 0 -0.04 0.02 -0.06 0.04 c0 0.02 0 0.02 0.02 0.02 l0.06 -0.02 l0.02 0.02 c0 0.06 -0.02 0.08 -0.06 0.08 s-0.08 -0.02 -0.12 -0.04 c-0.06 -0.06 -0.1 -0.08 -0.14 -0.08 c-0.02 0 -0.02 0.02 -0.02 0.04 l0 0.02 c0 0.04 -0.02 0.12 -0.08 0.18 l-0.04 0.08 l0.02 0.04 l0.04 0.02 l0 -0.04 c0 -0.02 0.02 -0.04 0.04 -0.04 c0.04 0 0.06 0 0.06 0.02 l0 0.02 c0 0.1 -0.08 0.14 -0.2 0.16 c-0.14 0.02 -0.26 0.08 -0.26 0.14 l0.02 0.06 c0 0.02 0 0.02 -0.02 0.02 l-0.04 0.02 l0.02 0.06 c0 0.02 -0.02 0.04 -0.06 0.06 c-0.06 0 -0.12 0.06 -0.14 0.12 c-0.04 0.12 -0.04 0.14 -0.04 0.24 c0 0.02 -0.04 0.06 -0.1 0.06 c-0.04 0.02 -0.08 0.06 -0.08 0.1 l0 0.02 c0 0.04 -0.02 0.06 -0.06 0.06 s-0.06 0 -0.06 -0.02 l0.06 -0.14 l0 -0.02 c-0.02 0 -0.06 0.04 -0.1 0.1 l-0.1 0.16 l0.04 -0.02 c0.04 0 0.06 0 0.06 0.04 c0 0.02 -0.04 0.06 -0.08 0.08 l-0.08 0.04 l0 0.02 c0 0.02 -0.06 0.04 -0.14 0.04 c-0.06 0 -0.08 0 -0.08 0.02 l0.18 0.16 l-0.06 0.04 c-0.04 0.02 -0.1 0.06 -0.14 0.06 s-0.08 0.06 -0.12 0.1 c-0.1 0.12 -0.24 0.2 -0.38 0.22 c-0.06 0 -0.16 0.02 -0.22 0.06 l-0.08 0.06 l0.02 0.02 l0.06 -0.02 c0.06 0 0.14 0.02 0.14 0.04 l0 0.02 c0 0.06 -0.28 0.18 -0.4 0.18 l-0.1 -0.02 c-0.04 0 -0.08 0.02 -0.1 0.04 l-0.06 0.04 l0.06 -0.02 c0.06 0 0.14 0 0.18 0.02 l0.04 0.04 c0 0.02 -0.04 0.02 -0.12 0.02 c-0.1 0 -0.14 0.02 -0.14 0.06 s-0.02 0.08 -0.04 0.08 c-0.06 0 -0.14 0.1 -0.16 0.2 c-0.02 0.04 -0.04 0.06 -0.08 0.06 l-0.02 0 c-0.04 0 -0.14 0.06 -0.24 0.18 c-0.08 0.1 -0.22 0.2 -0.3 0.22 c-0.08 0 -0.2 0.1 -0.28 0.18 c-0.18 0.2 -0.38 0.34 -0.46 0.34 l-0.02 0 c-0.02 0 -0.04 0.02 -0.04 0.04 c0.02 0.02 0.04 0.04 0.06 0.04 s0.04 0.02 0.04 0.04 l0 0.02 c-0.02 0.02 -0.04 0.02 -0.08 0.02 l-0.04 0 c-0.08 0 -0.26 0.08 -0.26 0.16 c0 0.02 -0.06 0.06 -0.12 0.06 s-0.08 0.02 -0.08 0.02 c0.06 0.02 0.08 0.04 0.08 0.06 s-0.06 0.04 -0.12 0.04 c-0.08 0 -0.2 0.04 -0.26 0.06 l-0.08 0.04 l0.08 0.02 c0.06 0 0.12 0.02 0.12 0.04 s-0.02 0.04 -0.04 0.04 l-0.14 -0.04 c-0.04 0 -0.08 0.02 -0.08 0.06 l0.08 0.08 l-0.06 0 c-0.06 0 -0.16 0.04 -0.24 0.1 c-0.08 0.04 -0.14 0.06 -0.18 0.06 l-0.02 0 c-0.02 0 -0.04 0.02 -0.06 0.04 c-0.04 0.08 -0.34 0.3 -0.4 0.3 l-0.02 -0.02 l0.08 -0.08 l-0.06 -0.02 c-0.06 0 -0.24 0.2 -0.24 0.26 c0 0.02 -0.04 0.06 -0.08 0.08 c-0.06 0.02 -0.14 0.06 -0.16 0.1 c-0.04 0.04 -0.1 0.06 -0.16 0.06 c-0.04 0 -0.08 0.04 -0.08 0.08 l0 0.02 c0 0.02 -0.02 0.04 -0.06 0.04 s-0.06 0.02 -0.06 0.06 c0 0.02 -0.06 0.04 -0.14 0.04 c-0.1 0 -0.12 0.02 -0.12 0.06 l0 0.04 c0 0.06 -0.02 0.1 -0.04 0.1 l-0.04 -0.02 l0.02 -0.04 c0 -0.02 0 -0.04 -0.02 -0.04 l-0.04 0.02 c-0.04 0.02 -0.1 0.02 -0.1 0.02 c-0.02 0 -0.02 0.04 -0.02 0.08 l0 0.02 c0 0.04 -0.06 0.08 -0.12 0.12 l-0.18 0.08 l0.08 -0.08 l-0.02 -0.02 c-0.04 0 -0.1 0.04 -0.12 0.08 c-0.04 0.04 -0.1 0.06 -0.14 0.06 s-0.1 0.06 -0.14 0.1 c-0.04 0.06 -0.1 0.1 -0.12 0.1 s-0.24 0.08 -0.46 0.18 c-0.2 0.1 -0.32 0.14 -0.4 0.14 l-0.08 -0.04 c-0.14 -0.1 -0.24 -0.2 -0.24 -0.28 c-0.02 -0.04 -0.08 -0.12 -0.18 -0.2 s-0.16 -0.2 -0.2 -0.34 c-0.04 -0.2 -0.08 -0.28 -0.14 -0.28 s-0.12 0.08 -0.18 0.28 c-0.04 0.2 -0.1 0.3 -0.14 0.3 c-0.02 0 -0.04 -0.06 -0.04 -0.14 l0 -0.06 c0 -0.06 0 -0.1 0.02 -0.1 s0.02 -0.02 0.02 -0.06 c0 -0.02 0.02 -0.1 0.06 -0.18 c0.06 -0.06 0.08 -0.16 0.08 -0.22 l0 -0.06 l0.02 -0.16 c0.04 -0.08 0.04 -0.18 0.04 -0.24 c0 -0.04 0 -0.08 0.02 -0.08 c0.04 0 0.1 -0.18 0.1 -0.28 l-0.02 -0.1 c0 -0.02 0.02 -0.02 0.06 -0.04 s0.08 -0.08 0.08 -0.16 l0 -0.06 c0 -0.1 0.02 -0.2 0.06 -0.2 l0.02 -0.02 l-0.04 -0.16 c0 -0.04 0.02 -0.1 0.04 -0.14 c0.04 -0.06 0.08 -0.14 0.08 -0.18 l0 -0.04 c0 -0.08 0.06 -0.28 0.1 -0.28 s0.08 0.04 0.08 0.08 s-0.02 0.06 -0.04 0.08 s-0.04 0.06 -0.04 0.1 l0 0.04 l0.04 0.08 l-0.02 0.04 c-0.02 0 -0.06 0.08 -0.06 0.14 s-0.06 0.28 -0.12 0.48 s-0.1 0.4 -0.1 0.44 l0 0.04 c0 0.02 -0.02 0.04 -0.04 0.04 l-0.04 0.04 l0.04 0.02 c0.08 0 0.36 -0.1 0.54 -0.2 c0.04 -0.02 0.1 -0.04 0.14 -0.04 l0.02 0 l0.02 0.04 l-0.04 0.02 c-0.02 0.02 -0.04 0.04 -0.04 0.08 l0.02 0.02 l0.04 -0.04 c0.04 -0.02 0.06 -0.08 0.06 -0.12 l0 -0.02 c0 -0.06 0.1 -0.12 0.16 -0.12 l0.06 0.02 l0.08 0.04 c0.02 0 0.04 -0.02 0.04 -0.04 l-0.02 -0.06 l0.04 -0.06 c0.06 -0.06 0.14 -0.1 0.18 -0.1 c0.02 0 0.02 0 0.02 0.02 l0 0.02 c0 0.04 0.04 0.06 0.12 0.06 l0.12 -0.02 c0.06 -0.02 0.1 -0.06 0.1 -0.08 l-0.02 -0.08 c0 -0.02 0 -0.04 0.02 -0.04 s0.02 0 0.02 -0.02 l-0.04 -0.02 l-0.04 -0.04 c0.04 0 0.08 0 0.14 0.04 l0.08 0.02 l0.04 -0.02 c0.02 -0.04 0.08 -0.06 0.12 -0.06 l0.08 0 l-0.06 -0.02 c-0.04 -0.02 -0.08 -0.06 -0.1 -0.1 l0.02 -0.04 l0.04 0 c0.04 0 0.08 -0.02 0.12 -0.06 c0.04 -0.06 0.08 -0.08 0.18 -0.08 l0.1 0 c0.1 0 0.16 0 0.16 -0.02 l-0.04 -0.04 l-0.02 -0.06 l0.08 0.02 c0.04 0 0.06 0 0.06 -0.02 c0.02 -0.04 0.06 -0.04 0.1 -0.04 l0.02 0 c0.02 0 0.06 -0.04 0.08 -0.08 c0.02 -0.1 0.08 -0.14 0.18 -0.14 c0.08 0 0.14 -0.02 0.14 -0.04 l-0.02 -0.04 c0 -0.08 0.1 -0.2 0.16 -0.2 s0.14 -0.06 0.18 -0.12 c0.06 -0.06 0.1 -0.1 0.12 -0.1 l0.04 0 c0.02 0 0.02 0 0.02 -0.02 c0 -0.04 0.04 -0.06 0.08 -0.06 c0.06 0 0.22 -0.1 0.36 -0.22 s0.3 -0.22 0.38 -0.22 c0.06 0 0.12 -0.02 0.14 -0.06 c0 -0.04 0.06 -0.08 0.1 -0.1 c0.06 -0.02 0.14 -0.08 0.16 -0.14 c0.06 -0.08 0.14 -0.1 0.36 -0.12 c0.02 0 0.04 -0.02 0.04 -0.04 l-0.02 -0.06 c0 -0.06 0.04 -0.08 0.12 -0.12 l0.16 -0.04 l0.06 0 l-0.04 -0.08 l0.04 -0.08 l-0.02 -0.1 l0.02 -0.02 l0.06 0.02 c0.06 0 0.16 -0.04 0.26 -0.1 s0.22 -0.12 0.26 -0.12 s0.06 0 0.06 -0.04 l-0.04 -0.12 c0 -0.02 0.02 -0.02 0.04 -0.02 l0.04 0.02 c0.02 0 0.04 -0.02 0.06 -0.04 c0 -0.02 0.04 -0.02 0.06 -0.02 l0.08 0 l-0.02 -0.04 c0 -0.02 0.02 -0.02 0.06 -0.02 l0.02 0 c0.04 0 0.06 -0.04 0.06 -0.08 l0 -0.02 c0 -0.06 0.04 -0.1 0.1 -0.14 c0.08 -0.04 0.14 -0.1 0.14 -0.14 c0.02 -0.04 0.06 -0.06 0.12 -0.06 c0.04 0 0.1 -0.06 0.12 -0.12 s0.08 -0.14 0.12 -0.14 c0.1 -0.04 0.46 -0.44 0.46 -0.52 l0 -0.02 c0 -0.02 0 -0.02 0.02 -0.02 l0.06 0 c0.08 0 0.16 -0.04 0.26 -0.16 c0.06 -0.08 0.16 -0.14 0.2 -0.14 s0.06 -0.02 0.06 -0.04 l-0.02 -0.04 l-0.06 0.02 l0.14 -0.18 c0.16 -0.2 0.5 -0.8 0.5 -0.86 l0.1 -0.2 c0.12 -0.16 0.2 -0.42 0.2 -0.54 l-0.04 -0.1 l0.04 -0.1 c0 -0.1 -0.16 -0.18 -0.46 -0.3 c-0.54 -0.22 -1.26 -0.32 -2.26 -0.32 l-0.1 0 c-0.52 0 -1.56 0.12 -2.12 0.24 c-0.14 0.04 -0.32 0.06 -0.4 0.06 c-0.08 0.02 -0.18 0.04 -0.2 0.06 s-0.16 0.04 -0.28 0.06 c-0.36 0.04 -0.56 0.1 -0.56 0.16 c0 0.02 -0.06 0.06 -0.16 0.08 c-0.08 0.02 -0.2 0.04 -0.26 0.08 l-0.18 0.06 c-0.24 0.02 -0.4 0.14 -0.44 0.32 l-0.02 0.12 l0.02 0.06 c0.02 0 0.04 -0.02 0.04 -0.06 l0 -0.02 l0.02 0.04 c0 0.12 -0.06 0.38 -0.16 0.72 s-0.12 0.44 -0.16 0.44 l-0.04 -0.02 l-0.04 -0.08 l0 -0.04 l-0.04 0 c-0.02 0 -0.04 0.02 -0.04 0.06 s-0.02 0.1 -0.06 0.12 c-0.02 0.04 -0.04 0.12 -0.04 0.18 l0 0.06 c0 0.02 0 0.06 -0.02 0.06 c-0.04 0 -0.04 0.02 -0.04 0.04 c0 0.04 0.04 0.06 0.1 0.06 c0.08 0 0.14 0.08 0.14 0.14 c0 0.04 -0.02 0.06 -0.06 0.08 c-0.02 0.02 -0.04 0.06 -0.04 0.1 l0 0.06 c0 0.06 -0.02 0.24 -0.06 0.36 l-0.08 0.28 c0 0.04 0 0.06 -0.04 0.08 c-0.04 0.04 -0.08 0.16 -0.08 0.24 l0 0.04 l-0.04 0.02 c-0.02 0 -0.04 -0.02 -0.04 -0.04 s-0.02 -0.04 -0.04 -0.04 c-0.04 0 -0.14 0.1 -0.16 0.18 c0 0.08 0.02 0.12 0.06 0.12 c0.02 0 0.04 -0.02 0.04 -0.08 s0.04 -0.08 0.06 -0.08 s0.06 0.04 0.06 0.12 c0 0.1 -0.02 0.14 -0.1 0.14 s-0.14 0.02 -0.14 0.06 c0 0.02 0.02 0.04 0.06 0.04 l0.12 -0.02 c0.04 0 0.06 0.02 0.06 0.04 s-0.02 0.06 -0.06 0.1 l-0.04 0.08 l0 0.04 c0 0.08 -0.02 0.22 -0.06 0.22 l-0.02 0.02 l0.02 0.12 c0 0.04 -0.02 0.06 -0.04 0.08 l-0.06 0.02 c-0.04 0 -0.06 -0.02 -0.06 -0.08 l0.04 -0.22 c0.04 -0.14 0.06 -0.26 0.06 -0.3 l-0.02 -0.02 c-0.04 0 -0.12 0.16 -0.12 0.26 c0 0.08 -0.02 0.14 -0.04 0.16 l-0.06 0.16 l-0.1 0.34 l-0.04 0.26 l0 0.04 c0 0.04 -0.02 0.08 -0.04 0.08 c-0.04 0.02 -0.06 0.08 -0.06 0.16 l0 0.06 c0 0.06 -0.02 0.12 -0.04 0.14 l-0.02 0.06 l0.02 0.02 l-0.06 0.16 c-0.06 0.1 -0.08 0.18 -0.08 0.22 s0 0.06 0.04 0.06 c0.02 0 0.06 0.02 0.06 0.04 l-0.02 0.04 l-0.1 -0.02 c-0.02 0 -0.02 0 -0.02 0.04 l0.02 0.18 l0.02 0.06 c0 0.02 -0.02 0.02 -0.02 0.02 l-0.06 -0.02 l0 0.04 c0 0.04 -0.02 0.1 -0.04 0.14 c-0.06 0.08 -0.08 0.18 -0.08 0.26 s-0.02 0.2 -0.06 0.28 c-0.04 0.06 -0.06 0.12 -0.06 0.16 l0.02 0.12 c0 0.04 -0.02 0.06 -0.04 0.06 s-0.04 0.02 -0.04 0.04 l0.02 0.04 l0 0.06 l-0.02 0.12 l-0.04 0.08 l0 0.04 c0 0.04 -0.02 0.1 -0.04 0.14 c-0.04 0.06 -0.1 0.22 -0.12 0.36 l-0.12 0.56 c-0.06 0.16 -0.08 0.28 -0.08 0.38 c0 0.08 0.02 0.12 0.06 0.12 c0.06 0 0.14 -0.12 0.14 -0.18 l-0.02 -0.1 l0.02 -0.02 c0.06 0 0.08 -0.1 0.08 -0.18 c0 -0.04 0 -0.08 -0.02 -0.08 s-0.02 -0.02 -0.02 -0.04 s0 -0.02 0.04 -0.04 l0.08 -0.04 l0.02 0.04 l-0.06 0.26 c-0.04 0.14 -0.06 0.26 -0.06 0.32 l0 0.02 l-0.22 0.92 c-0.04 0.2 -0.08 0.32 -0.12 0.32 c-0.02 0 -0.04 -0.06 -0.04 -0.16 s-0.02 -0.18 -0.04 -0.18 c-0.06 0 -0.2 0.34 -0.2 0.48 l0.02 0.04 c0.02 0.02 0.02 0.06 0.02 0.1 l0 0.06 c-0.02 0.08 -0.02 0.18 -0.02 0.24 s-0.02 0.14 -0.06 0.16 l-0.02 0.04 c0 0.02 0 0.04 0.04 0.06 l0.06 0.04 l-0.06 0 c-0.04 0 -0.08 0.04 -0.08 0.08 l0 0.06 c0 0.04 -0.02 0.1 -0.04 0.12 c-0.02 0.06 -0.04 0.16 -0.04 0.22 l0 0.06 c0 0.08 -0.02 0.16 -0.04 0.24 s-0.04 0.16 -0.04 0.22 l0.02 0.1 l-0.04 0.08 c-0.02 0.06 -0.04 0.14 -0.04 0.2 l0 0.06 c0 0.04 -0.02 0.06 -0.06 0.08 s-0.08 0.04 -0.08 0.06 l0 0.06 l-0.02 0.04 c-0.06 0 -0.08 0.02 -0.08 0.04 l0.08 0.04 l0.08 0 l-0.1 0.06 c-0.06 0.02 -0.08 0.04 -0.08 0.06 l0.02 0.02 c0.06 0 0.1 0 0.1 0.02 l0 0.06 c0.04 0.08 0.06 0.16 0.06 0.24 c0 0.06 0 0.12 -0.02 0.16 l-0.02 0.14 l0.02 0.1 l0.04 0.08 c0.02 0 0.04 -0.04 0.06 -0.1 c0.02 -0.08 0.02 -0.16 0.02 -0.18 l-0.02 -0.04 l0.04 -0.08 l0.02 -0.12 l0 -0.04 l-0.02 -0.02 c0 -0.02 0.02 -0.02 0.06 -0.02 l0.06 0 c0.04 0 0.04 0.04 0.04 0.1 s0 0.14 -0.04 0.2 c-0.02 0.06 -0.02 0.16 -0.02 0.24 l-0.06 0.46 c0 0.02 0 0.06 0.02 0.06 c0.04 0.06 0.1 0.36 0.1 0.5 l-0.02 0.06 l0 0.22 c0 0.04 0 0.06 -0.02 0.06 l-0.06 0 l-0.08 0.04 c-0.04 0.06 -0.06 0.08 -0.1 0.08 z M10.66 2.5 c0.04 0 0.06 -0.02 0.06 -0.02 c0 -0.02 -0.04 -0.04 -0.06 -0.06 l-0.04 0 l0 0.02 c0 0.04 0.02 0.06 0.04 0.06 z M11.14 2.780000000000001 l-0.02 -0.06 l-0.08 -0.08 l-0.04 0.02 l0 0.02 c0 0.04 0.04 0.06 0.14 0.1 z M10.02 2.6999999999999993 l0.04 -0.02 l-0.02 -0.02 c0 -0.02 -0.02 -0.02 -0.02 -0.02 l-0.04 0.02 l0 0.02 z M10.84 2.6999999999999993 l0.04 -0.02 l0 -0.02 l-0.04 -0.02 l-0.04 0.02 c0 0.02 0.02 0.04 0.04 0.04 z M11.62 2.8200000000000003 l0.04 -0.02 c0.04 0 0.08 -0.04 0.08 -0.04 c-0.02 -0.02 -0.04 -0.02 -0.08 -0.02 s-0.08 0.02 -0.08 0.04 z M8.96 2.780000000000001 l0 -0.02 l-0.04 -0.02 l-0.04 0.02 c0 0.02 0 0.02 0.04 0.02 l0.04 0 z M11.34 2.780000000000001 l-0.02 -0.02 c0 -0.02 -0.02 -0.02 -0.02 -0.02 c-0.02 0 -0.04 0 -0.04 0.02 l0 0.02 l0.08 0 z M9.54 2.8200000000000003 l-0.02 -0.02 l-0.12 0 l-0.02 0.02 l0.16 0 z M12.1 2.9400000000000013 c0.02 0 0.04 -0.02 0.04 -0.06 l-0.02 -0.04 c-0.02 0 -0.04 0.02 -0.06 0.04 c0 0.04 0 0.06 0.04 0.06 z M9.6 2.9800000000000004 c0.06 0 0.1 -0.02 0.1 -0.02 l0 -0.02 l-0.16 0 l-0.02 0.02 c0 0.02 0.02 0.02 0.08 0.02 z M8.58 3.1000000000000014 c0.06 0 0.14 -0.02 0.14 -0.06 l-0.12 -0.02 c-0.06 0 -0.1 0.02 -0.1 0.04 l0 0.02 c0.02 0.02 0.04 0.02 0.08 0.02 z M10.32 3.0799999999999983 c0.06 0 0.08 0 0.08 -0.02 l-0.02 -0.02 l-0.12 0 l0 0.02 s0.02 0.02 0.06 0.02 z M8.34 3.120000000000001 l-0.02 -0.02 c0 -0.02 -0.02 -0.02 -0.02 -0.02 l-0.04 0.02 l0 0.02 l0.08 0 z M8.12 3.1799999999999997 l0.04 -0.02 l-0.02 -0.02 l-0.04 -0.02 l-0.02 0.04 z M10.12 3.3000000000000007 c0.06 0 0.1 0 0.14 -0.04 l0.04 -0.02 l-0.02 -0.02 l-0.08 0.02 c-0.08 0 -0.14 0 -0.16 -0.02 l-0.06 -0.02 l-0.16 0.04 l0.1 0.04 z M11.14 3.280000000000001 c0.08 0 0.14 -0.02 0.14 -0.04 l-0.16 -0.02 c-0.08 0 -0.12 0 -0.12 0.02 l0.04 0.02 c0.02 0.02 0.06 0.02 0.1 0.02 z M10.72 3.2600000000000016 l-0.08 -0.04 l-0.06 0.02 l0 0.02 l0.14 0 z M10.4 3.3000000000000007 l0 -0.02 l-0.02 -0.04 l-0.02 0 l0 0.04 l0.02 0.02 l0.02 0 z M9.72 3.3200000000000003 l0 -0.02 l-0.08 -0.04 c-0.04 -0.02 -0.06 -0.02 -0.1 -0.02 c-0.02 0 -0.04 0 -0.06 0.02 c0 0.02 0.04 0.04 0.12 0.04 z M11.78 3.34 c0.06 0 0.1 0 0.1 -0.02 c-0.02 -0.04 -0.06 -0.04 -0.12 -0.04 c-0.04 0 -0.08 0 -0.1 0.02 c0 0.02 0.04 0.04 0.12 0.04 z M8.04 3.3200000000000003 l0.04 -0.02 l-0.02 -0.02 l-0.06 0 l0 0.02 z M8.82 3.5199999999999996 l0 -0.1 c0 -0.04 0 -0.06 -0.02 -0.08 l-0.04 -0.02 c-0.02 0 -0.02 0.02 -0.02 0.06 l0.02 0.08 c0.04 0.04 0.04 0.06 0.06 0.06 z M9.42 3.4200000000000017 l0.04 -0.02 l-0.02 -0.02 l-0.06 0 l0 0.02 z M8.68 3.460000000000001 l0 -0.02 l-0.04 -0.02 c-0.02 0 -0.02 0 -0.02 0.02 l0 0.02 l0.06 0 z M8.28 3.5599999999999987 c0.02 0 0.04 -0.02 0.06 -0.04 l0.02 -0.04 l-0.02 -0.02 c-0.02 0 -0.06 0 -0.1 -0.02 l-0.04 -0.02 l-0.02 0.02 l0.02 0.04 c0.02 0.06 0.06 0.08 0.08 0.08 z M8.04 3.5599999999999987 c0.04 0 0.08 0 0.08 -0.02 l-0.04 -0.04 c-0.02 -0.02 -0.04 -0.02 -0.06 -0.02 s-0.04 0 -0.06 0.02 l-0.02 0.04 c0 0.02 0.04 0.02 0.1 0.02 z M7.72 3.66 c0.04 0 0.06 -0.02 0.06 -0.02 c0 -0.02 -0.02 -0.02 -0.04 -0.02 l-0.04 0 l-0.02 0.02 c0 0.02 0.02 0.02 0.04 0.02 z M6.66 3.6999999999999993 c0.04 0 0.06 -0.02 0.06 -0.02 l0 -0.02 l-0.04 -0.02 l-0.06 0 l-0.06 0.04 c0 0.02 0.04 0.02 0.1 0.02 z M7.48 3.8000000000000007 c0.02 0 0.06 0 0.1 -0.04 l0.04 -0.04 l-0.02 -0.04 l-0.02 0 l-0.08 0.04 z M7.34 3.7600000000000016 l0.04 -0.02 l-0.02 -0.02 l-0.06 0 l0 0.02 z M6.48 3.8999999999999986 l0.04 -0.02 l-0.04 -0.02 s-0.02 0 -0.02 0.02 c0 0 0 0.02 0.02 0.02 z M6.36 4.140000000000001 l0 -0.1 c0 -0.04 -0.02 -0.06 -0.04 -0.06 l-0.02 0 l-0.02 0.04 l0.02 0.06 c0.02 0.04 0.04 0.06 0.06 0.06 z M14.52 4.52 l0.02 -0.04 l-0.02 -0.02 c0 -0.02 -0.02 -0.02 -0.02 -0.02 c-0.02 0 -0.02 0.02 -0.02 0.04 c0.02 0.02 0.02 0.04 0.04 0.04 z M5.8 5.16 c0.02 0 0.04 -0.04 0.06 -0.1 l0.02 -0.24 l0.02 -0.06 l-0.02 -0.02 l-0.06 0.1 c-0.04 0.08 -0.06 0.18 -0.06 0.24 c0 0.04 0.02 0.08 0.04 0.08 z M3.68 5.119999999999999 l0.04 -0.02 l0 -0.02 l-0.08 0 c0 0.02 0 0.04 0.04 0.04 z M5.62 5.68 c0.02 0 0.04 -0.04 0.08 -0.1 c0.02 -0.06 0.06 -0.12 0.08 -0.12 l0.02 -0.02 l-0.02 -0.08 c0 -0.04 0.02 -0.06 0.06 -0.06 s0.08 0 0.08 -0.02 l0 -0.02 c-0.02 -0.02 -0.04 -0.02 -0.08 -0.02 l-0.06 0 c-0.06 0 -0.1 0.02 -0.1 0.08 l0 0.06 c0 0.08 -0.02 0.16 -0.04 0.2 c-0.02 0.02 -0.02 0.06 -0.02 0.1 z M3.18 5.4 c0.04 0 0.08 -0.02 0.14 -0.06 l0.04 -0.06 c0 -0.02 0 -0.02 -0.04 -0.02 s-0.1 0.04 -0.14 0.08 l-0.02 0.04 c0 0.02 0 0.02 0.02 0.02 z M3.68 5.359999999999999 l0.04 -0.02 l-0.02 -0.02 l-0.06 0 l0 0.02 z M3.52 5.5 c0.02 0 0.04 -0.02 0.04 -0.04 l0.02 -0.04 l-0.02 -0.02 l-0.04 0.06 l0 0.04 z M14.6 5.460000000000001 l0.04 -0.02 l-0.04 -0.04 l-0.04 0.02 l0 0.02 z M3.24 5.5600000000000005 c0.02 0 0.04 -0.02 0.04 -0.06 l0.02 -0.02 l-0.02 -0.02 l-0.06 0.08 z M3.24 5.699999999999999 c0.04 0 0.12 -0.04 0.16 -0.08 s0.06 -0.06 0.06 -0.08 l-0.14 0.02 c-0.06 0.04 -0.12 0.06 -0.12 0.1 c0 0.02 0.02 0.04 0.04 0.04 z M1.92 5.74 c0 0 0.04 -0.02 0.06 -0.08 l0.04 -0.06 l-0.06 0.04 l-0.06 0.08 c0 0.02 0 0.02 0.02 0.02 z M2.66 5.800000000000001 l0.04 -0.06 l0 -0.04 c-0.02 0 -0.04 0.02 -0.06 0.04 c0 0.04 0 0.06 0.02 0.06 z M2.98 5.859999999999999 c0.04 -0.02 0.08 -0.04 0.08 -0.06 l0 -0.02 c0 -0.02 0 -0.02 -0.02 -0.02 l-0.04 0 c-0.04 0 -0.1 0.02 -0.1 0.06 l0 0.02 c0 0.02 0.02 0.02 0.04 0.02 l0.04 0 z M14.44 6.18 c0.06 0 0.12 -0.02 0.14 -0.06 c0 -0.04 0 -0.06 -0.04 -0.06 l-0.06 0.02 c-0.06 0 -0.1 0.04 -0.1 0.06 s0.04 0.04 0.06 0.04 z M5 6.34 c0.02 0 0.06 -0.04 0.1 -0.08 c0.06 -0.06 0.08 -0.12 0.08 -0.12 l-0.02 0 c-0.04 0.02 -0.16 0.16 -0.16 0.2 z M14.32 6.42 c0.04 -0.02 0.08 -0.06 0.08 -0.08 c0 -0.04 0 -0.06 -0.02 -0.06 c-0.04 0 -0.1 0.04 -0.1 0.1 c0 0.02 0.02 0.04 0.04 0.04 z M2.52 6.48 c0.02 0 0.04 -0.02 0.04 -0.06 l0 -0.02 l-0.06 -0.04 l-0.14 -0.02 c0 0.02 0.02 0.04 0.04 0.06 c0.04 0.04 0.08 0.08 0.12 0.08 z M2.26 6.42 c0.02 0 0.02 -0.02 0.02 -0.02 l-0.04 -0.02 s-0.02 0 -0.02 0.02 z M5.4 7.18 l0.04 -0.02 l0.02 -0.04 l-0.1 -0.2 l0.02 -0.04 c0.02 0 0.06 0 0.08 0.04 l-0.02 -0.04 l-0.02 -0.08 c0 -0.02 0.02 -0.04 0.04 -0.06 c0.04 -0.02 0.04 -0.04 0.04 -0.06 c0 -0.04 0 -0.06 -0.02 -0.1 c-0.02 -0.06 -0.02 -0.08 -0.04 -0.1 c-0.02 0 -0.04 0.04 -0.06 0.1 c-0.04 0.06 -0.06 0.16 -0.06 0.22 s0 0.12 -0.02 0.14 c-0.02 0 -0.04 0.06 -0.04 0.12 l0 0.04 c0 0.02 0 0.02 0.02 0.02 l0.06 0 c0.02 0 0.04 0.02 0.04 0.04 s0 0.02 0.02 0.02 z M13.74 6.9 l0.04 -0.02 l0.02 -0.04 l0 -0.04 s0 -0.02 -0.02 -0.02 l-0.02 0 l-0.04 0.08 z M12.82 7.0600000000000005 l0.04 -0.02 l0 -0.02 l-0.04 -0.02 l-0.02 0.04 s0 0.02 0.02 0.02 z M4.84 7.300000000000001 l0.1 -0.12 l-0.04 -0.02 c-0.02 0 -0.06 0.02 -0.06 0.06 l0 0.08 z M12.7 7.24 c0.06 0 0.1 -0.02 0.1 -0.04 c0 -0.04 -0.02 -0.04 -0.04 -0.04 s-0.06 0 -0.1 0.04 l-0.04 0.04 l0.08 0 z M5.26 7.34 c0.04 0 0.04 -0.02 0.04 -0.08 c0 -0.02 -0.02 -0.04 -0.04 -0.04 l-0.02 0 l-0.04 0.08 c0.02 0.02 0.04 0.04 0.06 0.04 z M12.08 7.4 c0.04 0 0.08 -0.02 0.12 -0.06 l0.04 -0.04 l-0.02 0 c-0.04 0 -0.08 0.02 -0.12 0.04 l-0.04 0.04 z M12.36 7.4399999999999995 l0.04 -0.02 l-0.02 -0.02 l-0.06 0 l0 0.02 z M5.16 7.640000000000001 c0.04 0 0.08 -0.04 0.1 -0.08 l0.02 -0.06 l-0.02 -0.04 c0 -0.02 -0.02 -0.02 -0.04 -0.02 c-0.06 0 -0.12 0.06 -0.12 0.12 c0.02 0.04 0.04 0.08 0.06 0.08 z M3.72 7.58 l0.04 -0.02 c0.02 -0.04 0.02 -0.08 0.02 -0.1 l-0.02 0 c-0.02 0 -0.04 0.02 -0.04 0.06 l0 0.06 z M11.9 7.66 l0.06 -0.02 c0.04 0 0.08 -0.04 0.08 -0.06 s0 -0.04 -0.02 -0.04 l-0.1 0.02 c-0.04 0.02 -0.06 0.06 -0.06 0.06 c0 0.02 0 0.04 0.04 0.04 z M4.62 7.82 l0.08 -0.08 c0.06 -0.06 0.08 -0.12 0.08 -0.12 c-0.04 0 -0.06 0.04 -0.1 0.1 z M4.06 8.02 l0.04 -0.02 l-0.04 -0.02 c-0.02 0 -0.02 0 -0.02 0.02 z M12.24 8.18 l0.14 -0.02 l-0.1 -0.06 l-0.08 -0.02 c-0.04 0 -0.06 0 -0.06 0.04 l0.02 0.04 c0.02 0.02 0.04 0.02 0.08 0.02 z M12.04 8.16 l-0.02 -0.02 c0 -0.02 -0.02 -0.02 -0.04 -0.02 c0 0 -0.02 0 -0.02 0.02 l0 0.02 l0.08 0 z M11.48 8.22 c0.02 0 0.02 -0.02 0.02 -0.02 l0 -0.02 l-0.06 0 l0 0.02 z M10.96 8.36 l0.12 -0.06 l0.04 -0.06 l-0.02 -0.02 c-0.1 0 -0.2 0.06 -0.2 0.1 c0 0.02 0.02 0.04 0.06 0.04 z M11.42 8.44 c0.02 0 0.04 -0.02 0.06 -0.04 l0.04 -0.04 c0 -0.02 -0.02 -0.04 -0.06 -0.06 c-0.02 -0.02 -0.06 -0.02 -0.08 -0.02 l-0.08 0.04 c-0.02 0.02 -0.04 0.02 -0.04 0.04 l0.08 -0.02 c0.04 0 0.06 0.02 0.06 0.06 z M11.8 8.5 c0.04 0 0.06 -0.02 0.08 -0.04 c0 -0.02 -0.02 -0.04 -0.06 -0.04 s-0.06 0.02 -0.06 0.02 l0 0.02 c0 0.02 0.02 0.04 0.04 0.04 z M11.3 8.5 c0.04 0 0.06 0 0.06 -0.02 l-0.04 -0.02 c-0.02 0 -0.04 0 -0.06 0.02 l-0.02 0.02 l0.06 0 z M12.32 8.68 c0.02 0 0.06 -0.02 0.1 -0.06 l0.04 -0.08 l0 -0.02 c-0.06 0 -0.14 0.12 -0.14 0.16 z M11.12 8.68 c0.02 0 0.04 0 0.04 -0.02 l0.04 -0.06 l-0.02 -0.02 l-0.04 -0.02 c-0.04 0 -0.06 0.04 -0.06 0.08 l0 0.02 z M10.18 9.06 l0.1 -0.04 c0.06 -0.04 0.1 -0.08 0.1 -0.1 l-0.04 -0.06 c0 -0.02 0.02 -0.02 0.06 -0.02 s0.14 -0.04 0.18 -0.12 c0.06 -0.06 0.08 -0.1 0.08 -0.12 l-0.02 -0.02 c-0.02 0 -0.06 0.02 -0.12 0.08 c-0.04 0.06 -0.14 0.12 -0.18 0.12 c-0.06 0 -0.1 0.04 -0.1 0.08 c0 0.02 -0.02 0.06 -0.08 0.06 c-0.04 0 -0.08 0 -0.08 0.04 c0.02 0.02 0.04 0.04 0.06 0.04 c0.04 0 0.04 0.02 0.04 0.04 l0 0.02 z M10.88 8.84 l0 -0.02 l-0.04 -0.02 l-0.04 0.02 c0 0.02 0.02 0.02 0.04 0.02 l0.04 0 z M9.82 8.94 l0.04 -0.04 l0 -0.04 c0 -0.02 0 -0.02 -0.02 -0.02 c-0.04 0 -0.06 0.02 -0.06 0.06 c0.02 0.02 0.02 0.04 0.04 0.04 z M11.14 9.1 c0.02 0 0.06 -0.02 0.08 -0.06 c0.04 -0.06 0.12 -0.1 0.16 -0.1 s0.04 0 0.04 -0.02 l-0.02 0 c0 -0.02 -0.02 -0.02 -0.04 -0.02 c-0.08 0.02 -0.22 0.1 -0.22 0.18 l0 0.02 z M10 9.04 l0.04 -0.02 l0 -0.02 c0 -0.04 -0.02 -0.06 -0.04 -0.06 s-0.04 0.02 -0.04 0.04 l0 0.02 c0 0.02 0.02 0.04 0.04 0.04 z M4.9 9.46 l-0.02 -0.02 l-0.04 -0.08 l0.02 -0.08 c0 -0.06 0 -0.14 -0.02 -0.18 l0 -0.02 c0 -0.06 0.06 -0.12 0.12 -0.12 l0.04 0 c0.02 0.02 0.04 0.04 0.04 0.08 c0 0.06 -0.04 0.14 -0.08 0.18 c-0.02 0.02 -0.04 0.1 -0.04 0.16 s0 0.08 -0.02 0.08 z M11.04 9.1 c0.02 0 0.04 -0.02 0.04 -0.04 l-0.08 -0.06 l-0.02 0.04 c0 0.02 0.02 0.06 0.06 0.06 z M10.48 9.14 c0.04 0 0.08 -0.04 0.08 -0.08 l0 -0.04 c-0.02 0 -0.04 0 -0.06 0.02 c-0.06 0.04 -0.1 0.06 -0.1 0.08 z M4.28 9.26 c0.02 0 0.04 -0.02 0.08 -0.08 c0.04 -0.04 0.04 -0.08 0.04 -0.1 s0 -0.04 -0.02 -0.04 l-0.02 0 c-0.06 0.02 -0.1 0.1 -0.1 0.2 z M10.02 9.22 l-0.04 -0.04 c-0.04 -0.02 -0.1 -0.04 -0.14 -0.04 s-0.06 0 -0.06 0.04 c0 0.02 0.08 0.04 0.14 0.04 l0.1 0 z M9.54 9.18 l-0.02 -0.02 c0 -0.02 -0.02 -0.02 -0.04 -0.02 c0 0 -0.02 0 -0.02 0.02 l0 0.02 l0.08 0 z M10.14 9.24 l0.04 -0.02 l-0.02 -0.02 l-0.04 -0.02 l-0.02 0.04 z M11.06 9.24 l0.04 -0.02 l-0.02 -0.02 l-0.04 -0.02 l-0.02 0.04 z M10.2 9.32 c0.06 0 0.12 0 0.16 -0.02 s0.06 -0.06 0.06 -0.08 s0 -0.02 -0.02 -0.02 l-0.24 0.12 l0.04 0 z M10.72 9.38 l0.04 -0.04 l0 -0.06 c-0.02 0 -0.04 0.02 -0.06 0.06 c0 0.02 0 0.04 0.02 0.04 z M9.58 9.42 c0.02 0 0.04 -0.02 0.04 -0.04 c0 -0.04 0.02 -0.04 0.04 -0.04 l0.04 0.02 l0.1 -0.06 c0 -0.02 -0.04 -0.02 -0.08 -0.02 c-0.06 0 -0.12 0.04 -0.14 0.08 l-0.02 0.04 c0 0.02 0 0.02 0.02 0.02 z M10.86 9.44 c0.02 0 0.02 -0.04 0.04 -0.08 l0 -0.06 l-0.02 0 l-0.04 0.08 z M3.56 9.42 l0 -0.02 l-0.04 -0.04 l-0.04 -0.02 l-0.02 0.04 c0.02 0.02 0.04 0.04 0.06 0.04 l0.04 0 z M9.48 9.48 l0 -0.06 c0 -0.02 -0.02 -0.04 -0.06 -0.04 l-0.02 0.02 l0.02 0.02 c0.02 0.04 0.04 0.06 0.06 0.06 z M11.46 9.42 l0 -0.02 l-0.04 -0.02 c-0.02 0 -0.02 0 -0.02 0.02 l0 0.02 l0.06 0 z M9.9 9.52 c0.02 0 0.04 -0.02 0.04 -0.04 c-0.02 -0.04 -0.02 -0.06 -0.04 -0.06 l-0.04 0.08 z M10.72 9.52 l0.04 -0.02 l-0.02 0 c0 -0.02 -0.02 -0.02 -0.04 -0.02 c0 0 -0.02 0 -0.02 0.02 z M4.22 9.6 l-0.02 -0.08 c0 -0.02 0 -0.02 -0.02 -0.02 l0 0.04 c0 0.04 0.02 0.06 0.02 0.06 l0.02 0 z M4.78 9.92 c-0.04 0 -0.06 -0.04 -0.08 -0.06 l-0.02 -0.06 c0 -0.1 0.08 -0.28 0.12 -0.28 c0.02 0 0.04 0.02 0.04 0.04 l-0.06 0.2 l0.02 0.12 c0 0.02 0 0.04 -0.02 0.04 z M9.66 9.7 c0.06 0 0.1 -0.04 0.1 -0.06 l0 -0.02 c0 -0.02 -0.04 -0.04 -0.1 -0.04 s-0.1 0.02 -0.1 0.04 l0.04 0.06 z M9.32 9.62 l0.04 -0.02 l0 -0.02 l-0.08 0 c0 0.02 0.02 0.04 0.04 0.04 z M9.96 10.1 c0.04 0 0.08 -0.04 0.08 -0.12 c0.02 -0.06 0.04 -0.1 0.08 -0.1 l0.02 0 c0.02 0 0.08 -0.06 0.12 -0.12 l0.06 -0.12 c0 -0.02 0 -0.02 -0.02 -0.02 c-0.04 0 -0.3 0.22 -0.3 0.26 l0 0.02 l-0.04 0.1 l-0.06 0.08 c0 0.02 0.02 0.02 0.06 0.02 z M3.38 9.76 l0.08 -0.04 l0 -0.04 c0 -0.02 0 -0.04 -0.02 -0.04 c0 0 -0.04 0.02 -0.06 0.06 l-0.02 0.04 c0 0.02 0 0.02 0.02 0.02 z M4.1 10.14 l0.04 -0.02 c0.04 -0.02 0.06 -0.08 0.06 -0.14 l0 -0.04 c0 -0.06 0.02 -0.1 0.04 -0.12 l0.02 -0.04 c0 -0.02 -0.02 -0.04 -0.06 -0.06 c-0.02 -0.02 -0.04 -0.02 -0.06 -0.02 s-0.02 0.02 -0.02 0.04 c0 0.04 -0.02 0.08 -0.06 0.08 l-0.02 0.02 l0.04 0.04 c0.04 0.04 0.06 0.06 0.06 0.1 l-0.08 0.12 z M10.98 9.76 l0 -0.02 c0 -0.02 -0.02 -0.02 -0.04 -0.02 l-0.08 0.02 c0 0.02 0.02 0.02 0.06 0.02 l0.06 0 z M8.38 10.64 c0.04 0 0.12 -0.02 0.22 -0.1 c0.08 -0.08 0.14 -0.12 0.16 -0.12 l0 0.04 c0 0.02 0 0.04 0.02 0.04 c0.04 0 0.06 -0.02 0.06 -0.06 s0.06 -0.08 0.14 -0.12 c0.16 -0.08 0.36 -0.3 0.36 -0.38 l0 -0.02 c-0.02 0 -0.06 0.02 -0.08 0.06 s-0.06 0.08 -0.08 0.08 c-0.04 0 -0.14 0.06 -0.22 0.14 s-0.18 0.14 -0.22 0.14 c-0.06 0 -0.3 0.14 -0.42 0.24 l0.04 0.06 l0.02 0 z M9.64 10.1 c0.04 0 0.06 -0.02 0.08 -0.04 c0 -0.02 0.02 -0.04 0.04 -0.04 l0.06 0.02 l0 -0.02 c-0.02 -0.02 -0.04 -0.02 -0.06 -0.02 l-0.04 0 c-0.06 0 -0.12 0.02 -0.12 0.04 l0 0.02 c0 0.02 0.02 0.04 0.04 0.04 z M9.78 10.2 c0.02 0 0.04 -0.02 0.04 -0.04 l0.02 -0.04 l-0.02 -0.02 l-0.06 0.08 z M10.3 10.2 l0.06 -0.02 c0.02 -0.02 0.04 -0.04 0.04 -0.06 c0 0 0 -0.02 -0.02 -0.02 s-0.04 0.02 -0.06 0.04 z M8.5 10.2 l0.04 -0.02 l-0.02 -0.02 l-0.06 0 l0 0.02 z M8.38 10.3 c0.02 0 0.04 -0.02 0.04 -0.04 c-0.02 -0.04 -0.04 -0.06 -0.06 -0.06 c-0.04 0 -0.04 0.02 -0.04 0.06 c0 0.02 0.02 0.04 0.06 0.04 z M4.14 10.4 c0.04 0 0.06 -0.02 0.06 -0.02 l0 -0.02 l-0.1 0 l-0.02 0.02 z M3.44 10.5 l0.04 -0.06 c0 -0.02 0 -0.04 -0.04 -0.04 c-0.02 0 -0.04 0.02 -0.04 0.04 c0 0.04 0.02 0.06 0.04 0.06 z M3.3 10.48 c0 -0.02 0 -0.06 -0.02 -0.06 c0 -0.02 0 -0.02 -0.02 -0.02 l0 0.04 l0.02 0.04 l0.02 0 z M3.98 10.54 l0.04 -0.04 c0 -0.04 0 -0.06 -0.04 -0.06 c-0.02 0 -0.04 0.02 -0.04 0.06 c0 0.02 0.02 0.04 0.04 0.04 z M8.92 10.64 l0.18 -0.06 c0.06 -0.02 0.12 -0.04 0.12 -0.08 c0 -0.02 -0.02 -0.04 -0.04 -0.04 c-0.06 0 -0.2 0.04 -0.26 0.1 l-0.04 0.06 z M3.98 10.68 c0.02 0 0.04 0 0.04 -0.02 l-0.06 -0.04 l-0.04 -0.02 l0 0.04 c0 0.02 0.02 0.04 0.06 0.04 z M8.96 10.78 c0.04 0 0.06 -0.02 0.06 -0.02 l0 -0.02 c0 -0.02 0 -0.02 -0.02 -0.02 l-0.02 -0.02 l-0.1 0.06 c0 0.02 0.04 0.02 0.08 0.02 z M3.92 10.9 c0.02 -0.04 0.02 -0.08 0.02 -0.12 l-0.02 -0.02 c-0.02 0 -0.02 0.02 -0.04 0.06 c0 0.06 0.02 0.08 0.02 0.08 l0.02 0 z M7.32 10.88 c0.04 0 0.08 0 0.08 -0.02 c0 -0.04 -0.06 -0.06 -0.1 -0.06 l-0.02 0.04 l0 0.02 z M8 10.98 l0.04 -0.02 l-0.02 -0.02 l-0.06 0 l0 0.02 z M8.76 11.02 l0.02 -0.04 l-0.02 -0.04 l-0.02 0 c-0.02 0 -0.02 0.02 -0.02 0.04 c0.02 0.04 0.02 0.04 0.04 0.04 z M7.22 11.08 l0.04 -0.06 c0 -0.02 0 -0.04 -0.04 -0.04 c-0.02 0 -0.04 0.02 -0.04 0.04 c0 0.04 0.02 0.06 0.04 0.06 z M5.9 11.02 l-0.06 0 c-0.04 0 -0.04 0 -0.04 -0.02 l0.02 0 c0 -0.02 0.02 -0.02 0.04 -0.02 s0.04 0 0.04 0.02 l0 0.02 z M7.06 11.16 c0.02 0 0.02 0 0.02 -0.02 l0 -0.06 c-0.02 -0.06 -0.02 -0.1 -0.04 -0.1 s-0.04 0.02 -0.08 0.06 l-0.02 0.06 c0 0.02 0 0.02 0.04 0.04 z M8.38 11.16 c0.02 0 0.02 0 0.02 -0.02 l-0.06 -0.14 c0 -0.02 0 -0.02 -0.02 -0.02 l-0.02 0.02 l-0.02 0.04 c0 0.06 0.06 0.12 0.1 0.12 z M7.52 11.18 c0.06 0 0.16 -0.04 0.24 -0.08 c0.08 -0.06 0.14 -0.08 0.14 -0.1 l-0.2 0.06 c-0.12 0.04 -0.2 0.08 -0.2 0.1 z M6.76 11.08 l0.04 -0.02 l-0.02 -0.02 l-0.04 -0.02 l-0.02 0.04 z M8.16 11.18 c0.02 0 0.04 -0.02 0.04 -0.04 l0 -0.02 c-0.02 -0.02 -0.06 -0.04 -0.1 -0.04 c-0.02 0 -0.02 0 -0.02 0.02 l0 0.02 c0 0.02 0.04 0.06 0.08 0.06 z M8.74 11.18 l0.04 -0.06 c0 -0.02 -0.02 -0.04 -0.06 -0.04 l-0.04 0.02 l0 0.02 c0.02 0.02 0.04 0.06 0.06 0.06 z M3.86 11.12 l0.02 -0.02 l0 -0.02 l-0.06 0 l0 0.02 z M3.66 11.16 l0.02 -0.04 c0 -0.02 -0.04 -0.04 -0.1 -0.04 l-0.1 0 c0 0.02 0.02 0.02 0.06 0.04 z M3.86 11.26 l0 -0.02 l-0.02 -0.06 c-0.02 0 -0.02 0.02 -0.02 0.04 c0 0.04 0.02 0.04 0.04 0.04 z M7.8 11.56 c0.02 0 0.04 -0.02 0.04 -0.06 c0 -0.02 0.02 -0.04 0.06 -0.04 s0.1 -0.06 0.16 -0.12 l0.08 -0.1 c0 -0.02 -0.04 -0.02 -0.1 -0.02 c-0.04 0 -0.08 0 -0.08 0.02 l0.04 0.02 c0.04 0.02 0.04 0.02 0.04 0.04 l-0.04 0.04 c-0.02 0.02 -0.1 0.04 -0.14 0.04 c-0.06 0 -0.1 0.04 -0.1 0.1 c0 0.04 0.02 0.08 0.04 0.08 z M7.32 11.4 c0.04 0 0.06 -0.02 0.06 -0.04 s-0.02 -0.04 -0.04 -0.04 c-0.04 0 -0.06 0.02 -0.08 0.04 c0 0.02 0.02 0.04 0.06 0.04 z M8.08 11.48 l0.1 -0.02 c0.04 -0.02 0.08 -0.06 0.08 -0.08 l-0.02 0 l-0.08 0.04 z M6.14 11.48 c0.04 -0.02 0.08 -0.04 0.08 -0.06 l0 -0.02 s0 -0.02 -0.02 -0.02 s-0.04 0.02 -0.06 0.04 c-0.06 0.02 -0.1 0.06 -0.1 0.06 l0.1 0 z M7.08 11.56 c0.02 0 0.04 -0.02 0.04 -0.06 c0 -0.02 -0.04 -0.04 -0.06 -0.04 s-0.04 0.02 -0.04 0.04 c0 0.04 0.04 0.06 0.06 0.06 z M3.66 11.7 c0.02 0 0.06 -0.04 0.1 -0.1 c0.04 -0.04 0.06 -0.1 0.06 -0.1 l-0.1 0.1 z M6.02 11.8 l0.14 -0.06 c0.06 -0.02 0.1 -0.1 0.1 -0.16 c0 -0.04 -0.02 -0.06 -0.02 -0.06 c-0.02 0 -0.02 0.02 -0.04 0.04 l-0.12 0.16 c-0.04 0.04 -0.06 0.06 -0.06 0.08 z M7.62 11.66 l0.04 -0.02 l0 -0.02 l-0.04 -0.02 l-0.04 0.02 c0 0.02 0.02 0.04 0.04 0.04 z M7.44 11.72 l0.1 -0.04 c0 -0.02 -0.04 -0.02 -0.08 -0.02 s-0.06 0.02 -0.06 0.02 l0 0.02 c0 0.02 0.02 0.02 0.04 0.02 z M3.66 11.84 c0.04 0 0.06 -0.02 0.06 -0.04 s-0.02 -0.04 -0.06 -0.04 c-0.02 0 -0.04 0.02 -0.06 0.04 c0 0.02 0.02 0.04 0.06 0.04 z M7.3 11.84 c0.04 0 0.06 0 0.06 -0.02 l-0.06 -0.02 l-0.04 0.02 l-0.02 0.02 l0.06 0 z M6.36 12 c0.04 0 0.08 -0.04 0.12 -0.08 l0.06 -0.06 l-0.06 0 l-0.12 0.04 c-0.04 0 -0.04 0.02 -0.04 0.04 c0 0.04 0.02 0.06 0.04 0.06 z M5.82 11.94 l0 -0.02 l-0.04 -0.02 l-0.04 0.02 c0 0.02 0 0.02 0.04 0.02 l0.04 0 z M7.18 12.04 l-0.02 -0.08 c-0.02 -0.02 -0.04 -0.04 -0.06 -0.04 l-0.02 0 l-0.02 0.04 l0.04 0.04 z M6.68 12 c0.04 0 0.06 -0.02 0.06 -0.02 l0 -0.02 l-0.08 0 l-0.02 0.02 z M6.12 12.04 c0.04 0 0.06 0 0.06 -0.02 l-0.12 -0.04 l-0.08 0 c-0.02 0 -0.02 0 -0.02 0.02 c0.02 0.02 0.1 0.04 0.16 0.04 z M5.04 12.14 c0.02 0 0.04 -0.02 0.04 -0.04 l-0.02 -0.06 c-0.02 0 -0.04 0.02 -0.06 0.06 c0 0.02 0 0.04 0.04 0.04 z M7.94 12.18 c-0.02 0 -0.04 -0.02 -0.04 -0.04 s0.02 -0.04 0.04 -0.04 c0.04 0 0.04 0.02 0.04 0.04 z M3.54 12.219999999999999 l0.1 -0.04 l0.04 -0.04 l-0.08 0 c-0.06 0 -0.1 0.02 -0.1 0.04 s0.02 0.04 0.04 0.04 z M5.94 12.280000000000001 c0.04 0 0.12 -0.02 0.16 -0.06 l0.04 -0.06 c0 -0.02 0 -0.02 -0.02 -0.02 s-0.08 0.02 -0.14 0.08 l-0.06 0.04 c0 0.02 0 0.02 0.02 0.02 z M5.64 12.440000000000001 c0.02 0 0.04 -0.04 0.04 -0.06 l0 -0.02 c0 -0.02 0 -0.02 -0.02 -0.02 c-0.04 0 -0.04 0.02 -0.04 0.04 z M6.2 12.42 l-0.02 -0.02 c0 -0.02 -0.02 -0.02 -0.04 -0.02 c0 0 -0.02 0 -0.02 0.02 l0 0.02 l0.08 0 z M6.06 12.52 l0 -0.02 l-0.02 -0.06 c-0.02 0 -0.02 0.02 -0.02 0.04 c0 0.04 0.02 0.04 0.04 0.04 z M3.42 12.86 c0.02 0 0.06 -0.02 0.1 -0.06 s0.08 -0.08 0.1 -0.08 c0.04 0 0.06 -0.02 0.06 -0.06 l0 -0.02 l0.08 0.02 l-0.1 -0.08 c-0.02 0 -0.02 0 -0.04 0.04 c0 0.02 -0.04 0.06 -0.06 0.06 c-0.04 0 -0.1 0.04 -0.14 0.08 l-0.04 0.08 c0 0.02 0.02 0.02 0.04 0.02 z M3.42 12.66 c0 -0.02 0 -0.06 -0.02 -0.06 c0 -0.02 0 -0.02 -0.02 -0.02 l0 0.04 l0.02 0.04 l0.02 0 z M2.44 12.9 c0 -0.02 0 -0.04 -0.02 -0.06 c0 -0.02 0 -0.02 -0.02 -0.02 l0 0.04 l0.02 0.04 l0.02 0 z M2.64 13 l0.02 -0.04 l-0.04 -0.04 c-0.02 0 -0.02 0.02 -0.02 0.04 l0.02 0.04 l0.02 0 z M3.36 13.2 l0 -0.02 l-0.04 -0.02 l-0.04 0.02 c0 0.02 0.02 0.02 0.04 0.02 l0.04 0 z M3.26 13.52 c0.04 -0.02 0.06 -0.04 0.06 -0.06 l-0.08 -0.02 c-0.04 0 -0.06 0.02 -0.06 0.06 c0 0.02 0.04 0.02 0.08 0.02 z M3.04 13.6 c0.04 0 0.06 -0.02 0.06 -0.06 c-0.02 -0.02 -0.02 -0.04 -0.04 -0.04 s-0.02 0.02 -0.04 0.04 l0 0.02 c0 0.02 0 0.04 0.02 0.04 z M3.24 13.84 c0.02 0 0.04 -0.04 0.04 -0.08 c-0.02 -0.04 -0.02 -0.06 -0.04 -0.06 l-0.04 0.06 c0 0.04 0.02 0.08 0.04 0.08 z M2.94 13.92 l0.02 -0.04 l-0.04 -0.04 c-0.02 0 -0.02 0.02 -0.02 0.04 l0.02 0.04 l0.02 0 z M3.58 14.1 l0.04 -0.02 c0.02 -0.04 0.02 -0.1 0.02 -0.14 s-0.02 -0.06 -0.06 -0.06 l-0.06 0.08 l0 0.04 c0 0.06 0.04 0.1 0.06 0.1 z M3.06 14.26 l0.2 -0.04 l0.08 -0.04 l-0.12 0 c-0.1 0 -0.18 0.02 -0.18 0.04 l-0.02 0.02 c0 0.02 0.02 0.02 0.04 0.02 z M3.52 14.42 c0.02 0 0.06 -0.04 0.06 -0.08 l0.02 -0.1 l-0.02 -0.04 l-0.02 0 l-0.04 0.02 c-0.02 0.04 -0.04 0.08 -0.04 0.12 s0.02 0.08 0.04 0.08 z M3.04 14.42 l0.04 -0.02 l-0.02 -0.02 l-0.06 0 l0 0.02 z M3.5 14.58 c0.04 -0.02 0.08 -0.04 0.08 -0.06 l0 -0.02 l-0.02 -0.04 l-0.08 0.04 c-0.06 0.02 -0.08 0.04 -0.08 0.06 s0.02 0.02 0.06 0.02 l0.04 0 z M2.78 14.879999999999999 l0.04 -0.08 c0 -0.02 -0.02 -0.02 -0.02 -0.02 l-0.04 0 l-0.04 0.08 l0.04 0.02 l0.02 0 z M2.74 15.04 l0.04 -0.04 c0 -0.02 0 -0.04 -0.04 -0.04 c-0.02 0 -0.04 0.02 -0.04 0.04 s0.02 0.04 0.04 0.04 z M2.94 15.120000000000001 l0.04 -0.02 l0.02 -0.04 l-0.06 -0.08 c-0.02 0 -0.02 0.02 -0.02 0.08 c0 0.04 0 0.06 0.02 0.06 z M3.5 15.3 c-0.04 0 -0.06 -0.02 -0.06 -0.06 c0.02 -0.02 0.04 -0.04 0.08 -0.04 c0.02 0 0.04 0.02 0.04 0.04 l0 0.02 c0 0.02 -0.02 0.04 -0.06 0.04 z M2.86 15.48 l0 -0.02 l-0.04 -0.02 s-0.02 0 -0.02 0.02 l0 0.02 l0.06 0 z M2.62 15.58 c0.02 0 0.04 -0.02 0.04 -0.04 l0.02 -0.04 l-0.02 -0.02 l-0.06 0.08 z M2.84 15.719999999999999 c0.04 0 0.08 -0.02 0.08 -0.04 c-0.02 -0.02 -0.06 -0.04 -0.1 -0.04 s-0.06 0.02 -0.06 0.04 s0.04 0.04 0.08 0.04 z M2.84 15.879999999999999 l0.06 -0.02 l-0.06 -0.06 l-0.04 0 l-0.02 0.02 z M3.24 16.36 l-0.08 -0.02 c0 -0.08 0.12 -0.32 0.18 -0.32 c0.04 0 0.06 0.02 0.06 0.04 c-0.08 0.22 -0.12 0.3 -0.16 0.3 z M2.72 16.44 l0.04 -0.02 c0.02 -0.02 0.04 -0.04 0.04 -0.06 l-0.04 -0.16 l-0.02 -0.02 s-0.04 0.02 -0.06 0.06 l-0.04 0.06 c0 0.02 0 0.04 0.02 0.04 c0.04 0.02 0.06 0.04 0.06 0.08 l0 0.02 z M3.16 17.08 c-0.04 0 -0.06 -0.02 -0.08 -0.04 c0 -0.02 0.02 -0.1 0.06 -0.18 l0.02 -0.2 l0 -0.08 c0 -0.1 0.02 -0.16 0.04 -0.16 s0.04 0.02 0.06 0.06 c0.02 0.02 0.02 0.08 0.02 0.14 c0 0.18 -0.06 0.46 -0.12 0.46 z M2.7 16.82 l0 -0.02 l-0.02 -0.04 c-0.02 0 -0.02 0 -0.02 0.04 l0.02 0.02 l0.02 0 z M2.62 16.92 l0 -0.02 l-0.02 -0.04 l-0.02 0 l0 0.04 l0.02 0.02 l0.02 0 z M3.1 17.46 c-0.02 0 -0.02 -0.04 -0.02 -0.1 c0 -0.04 0.02 -0.06 0.02 -0.06 c0.02 0 0.02 0 0.02 0.02 l0.02 0.06 z M2.56 17.52 c0.04 0 0.06 -0.02 0.06 -0.02 l-0.04 -0.02 l-0.06 0 l-0.02 0.02 c0 0.02 0.02 0.02 0.06 0.02 z M2.54 18.68 l0.04 -0.04 l-0.02 -0.04 l-0.02 0 c-0.02 0 -0.02 0.02 -0.02 0.04 z M2.84 19.02 c0.02 0 0.04 -0.02 0.04 -0.08 l0.02 -0.1 c0 -0.08 -0.04 -0.16 -0.08 -0.16 c-0.02 0 -0.04 0.02 -0.04 0.1 l0 0.12 c0.02 0.08 0.04 0.12 0.06 0.12 z M14.139999999999999 9.38 c-0.26 0 -0.34 -0.08 -0.7 -0.28 c-0.24 -0.14 -0.3 -0.18 -0.3 -0.24 c0.16 -0.52 -0.04 -0.34 0.22 -0.82 l-0.04 0 l-0.02 -0.04 c0 -0.08 0.04 -0.14 0.08 -0.24 l0.12 -0.3 l0 -0.04 c0.08 0 0.08 -0.2 0.14 -0.34 c0 -0.08 0.02 -0.24 0.14 -0.36 c0.04 -0.04 0.06 -0.1 0.06 -0.12 c0.02 -0.12 0.08 -0.16 0.08 -0.2 l0.18 -0.36 c0 -0.06 0.24 -0.3 0.24 -0.42 l-0.02 -0.02 c0.08 0 0.3 -0.36 0.36 -0.36 c0 0.06 -0.06 0.04 -0.06 0.16 c0 0.14 -0.22 0.24 -0.22 0.3 c0.04 0.04 0 0.02 0.04 0.04 c0.06 0 0.22 -0.3 0.22 -0.3 l0 -0.02 c0.08 0 0 -0.08 0.08 -0.08 l0.18 -0.12 l0.02 0.02 l-0.02 0.14 c0.08 -0.12 0.14 -0.16 0.22 -0.16 c0.04 0 0.06 0.02 0.06 0.06 l0 0.08 c0.02 0 0.08 -0.06 0.22 -0.12 l-0.14 0.3 c0.02 0 0.04 -0.04 0.08 -0.1 c0 0 0.06 0.08 0.08 0.08 c0.04 -0.08 0.06 -0.12 0.08 -0.12 c0.04 0.04 0.08 0.04 0.08 0.16 c0 0.04 0 0.08 0.02 0.08 l0.08 -0.04 c0 0.04 -0.08 0.12 -0.2 0.38 l0 0.02 c0.06 0 0.12 -0.1 0.24 -0.28 l0 0.06 c0 0.06 -0.5 0.9 -0.5 0.98 c0 0.04 -0.04 0.08 -0.08 0.2 l0.02 0.08 c0.02 0 0.02 -0.02 0.02 -0.08 c0.26 -0.5 0.32 -0.66 0.4 -0.66 l0.02 0.02 c-0.22 0.5 -0.54 1.08 -0.54 1.16 l0 0.02 c-0.06 0.22 -0.12 0.32 -0.12 0.4 c0 0.14 -0.14 0.32 -0.14 0.38 c0 0.02 0.02 0.04 0.04 0.04 l-0.1 0.22 l0.02 0.04 c0 0.1 -0.08 0.3 -0.12 0.3 l0.02 0.1 l-0.06 0.06 c0.04 0.02 0.08 0.04 0.08 0.1 c-0.08 0.18 -0.24 0.08 -0.24 0.16 l0 0.02 l-0.06 0.04 l-0.04 -0.02 z M14.399999999999999 5.84 c0.02 0 0.04 -0.02 0.04 -0.04 l-0.04 0 l-0.04 0.02 l0.02 0.02 l0.02 0 z M13.84 6.859999999999999 c0.12 -0.06 0.22 -0.44 0.46 -0.82 c0.04 -0.06 0.06 -0.12 0.06 -0.16 l-0.02 -0.02 c-0.1 0 -0.06 0.16 -0.12 0.16 c-0.04 0 -0.04 0.04 -0.04 0.06 l0 0.02 c0 0.06 -0.1 0.2 -0.18 0.2 l-0.02 0.02 l0.04 0.14 l-0.04 0.04 c-0.04 0 -0.12 0.28 -0.16 0.28 c-0.02 0 -0.04 0.02 -0.04 0.04 s0.02 0.04 0.04 0.04 l0.02 0 z M13.92 6.68 l0 -0.06 l0.04 -0.06 l0.02 0.02 c-0.02 0.06 -0.02 0.1 -0.06 0.1 z M15.44 6.119999999999999 l0.04 -0.04 l-0.02 -0.04 c-0.02 0.02 -0.04 0.02 -0.04 0.06 c0 0.02 0 0.02 0.02 0.02 z M13.639999999999999 7.4399999999999995 c0.04 0 0.12 -0.16 0.18 -0.52 c-0.1 0.04 -0.1 0.24 -0.18 0.3 c-0.02 0 -0.02 0.02 -0.02 0.04 l0.02 0.04 c-0.04 0.02 -0.04 0.02 -0.04 0.1 z M14.24 18.26 l-0.04 -0.02 c-0.02 0 -0.06 0 -0.06 -0.04 l0.02 -0.02 l-0.04 -0.02 l-0.04 0.08 l-0.06 -0.02 l-0.02 0.04 c-0.04 0 -0.28 -0.16 -0.36 -0.16 l-0.02 0 c-0.1 0 -0.08 -0.04 -0.24 -0.08 c0 -0.04 -0.26 -0.12 -0.26 -0.18 s-0.16 -0.1 -0.16 -0.18 c0.04 -0.12 0.08 -0.12 0.08 -0.28 c-0.02 -0.22 -0.04 -0.34 -0.04 -0.5 c0 -0.12 0.02 -0.2 0.04 -0.26 c0 -0.08 -0.02 -0.1 -0.06 -0.18 c0 -0.02 0.04 -0.04 0.08 -0.06 c-0.06 0 -0.08 0 -0.08 -0.2 l0.02 -0.12 l-0.02 -0.6 l0.04 -0.26 l0 -0.08 c0 -0.04 0.04 -0.1 0.04 -0.18 l-0.04 -0.24 c0 -0.06 0.02 -0.08 0.04 -0.08 s0.02 0 0.02 0.02 l-0.04 0.06 c0.04 -0.02 0.08 -0.04 0.08 -0.06 c0 -0.04 -0.04 -0.02 -0.06 -0.08 c0 -0.06 0.12 -0.1 0.12 -0.16 s-0.1 -0.08 -0.1 -0.18 c0.02 -0.1 0.04 -0.14 0.04 -0.24 c0 -0.04 0 -0.12 0.06 -0.22 l-0.06 -0.06 c0.06 -0.06 -0.02 -0.18 0.08 -0.4 l-0.02 0 l0.02 -0.1 l0 -0.26 c0.02 -0.12 0 -0.06 0.06 -0.18 c-0.02 -0.02 -0.04 -0.04 -0.04 -0.18 c0 -0.12 0.04 -0.2 0.04 -0.36 l0.04 -0.6 c0 -0.42 -0.06 -0.7 -0.1 -0.92 c0 -0.06 0.02 -0.04 0.06 -0.1 l-0.02 -0.02 c0.08 -0.14 0.14 -0.1 0.52 -0.16 c0.1 0 0.06 0.04 0.12 0.04 l0.44 0.04 c0.14 0 0.24 0.14 0.32 0.14 l0.02 0 l0.02 0.04 l0 0.08 c0.08 0.3 0.14 0.34 0.14 0.6 l0 0.14 c0 0.36 0.04 0.36 0.1 0.36 l-0.06 0.08 l0.02 0.1 l-0.04 -0.02 l-0.02 0.02 c0 0.64 -0.04 0.62 -0.04 0.86 l0.02 0.02 c-0.04 0 -0.08 0.08 -0.08 0.26 l0.02 0.08 c0 0.04 -0.02 0.04 -0.04 0.06 l0.02 0.08 l-0.04 0.4 l-0.04 0.22 c0 0.22 -0.08 0.8 -0.08 1.18 l0.02 0.18 c0.04 -0.26 0.02 -0.44 0.06 -0.44 l0.04 0 l-0.04 0.12 c0 0.28 0.02 0.18 0.02 0.28 c-0.04 0.08 -0.02 0.28 -0.08 0.28 l-0.02 -0.02 c0 -0.06 0.04 -0.08 0.04 -0.12 l-0.04 -0.02 c-0.02 0 -0.04 0.02 -0.04 0.06 c0.02 0.04 0.02 0.12 0.02 0.18 l0 0.1 c0.02 0 0.04 -0.04 0.08 -0.1 l0 0.04 c0 0.2 -0.08 0.08 -0.08 0.18 s0.02 0.3 0.04 0.3 l0.02 -0.06 l-0.02 -0.04 l0 -0.12 l0.02 -0.06 c0.06 0.04 0.06 0.06 0.06 0.14 c-0.02 0.04 -0.02 0.18 -0.02 0.3 l0.02 0.16 l-0.02 0.14 l-0.04 -0.06 c-0.02 0 -0.02 0.08 -0.04 0.24 l0.02 0.12 l0.04 -0.06 l-0.02 -0.08 c0 -0.04 0.02 -0.1 0.04 -0.1 c0.1 0 0.08 1 0.14 1.06 c0.02 0 0.04 0.04 0.04 0.08 c0 0.1 -0.16 0.2 -0.28 0.2 c-0.06 0 -0.08 0 -0.08 0.04 l0 0.02 c0 0.02 -0.02 0.02 -0.04 0.04 z M14.879999999999999 11.74 l-0.02 -0.1 l0.02 -0.1 c0.02 0 0.04 0 0.06 0.02 l-0.04 0.06 l0.02 0.06 c0 0.04 -0.02 0.06 -0.04 0.06 z M14.78 13.6 l-0.04 -0.02 l0.06 -0.04 c0 0.02 0 0.06 -0.02 0.06 z M14.68 14.379999999999999 l0 -0.12 l0.04 -0.04 l0.02 0.02 z M14.68 14.54 l-0.04 -0.04 l0.02 -0.08 c0.06 0 0.08 0.02 0.08 0.06 c0 0.02 -0.02 0.04 -0.06 0.06 z M14.64 14.879999999999999 l-0.02 -0.04 c0 -0.02 0.02 -0.1 0.06 -0.1 l0.02 0.02 c0 0.04 -0.02 0.1 -0.06 0.12 z M14.6 16.52 l0 -0.06 l-0.02 -0.04 s-0.02 0.02 -0.02 0.08 z M14.58 17.18 l0.02 -0.02 l0.02 -0.08 c0 -0.04 0 -0.06 -0.02 -0.06 l-0.02 0 l0 0.16 z M18.14 18.26 l-0.02 -0.02 l-0.02 0.02 l-0.02 -0.1 c0 -0.02 -0.02 -0.04 -0.06 -0.04 l-0.04 0 l0.02 0.02 l0.02 0.06 l0 0.02 l-0.06 0.02 c-0.04 0 -0.08 -0.02 -0.08 -0.04 s-0.04 -0.04 -0.1 -0.06 c-0.04 -0.02 -0.1 -0.06 -0.12 -0.1 c-0.04 -0.04 -0.1 -0.06 -0.22 -0.08 c-0.12 0 -0.18 -0.04 -0.24 -0.1 c-0.06 -0.04 -0.08 -0.08 -0.08 -0.1 l-0.1 -0.08 c-0.06 -0.06 -0.1 -0.12 -0.1 -0.14 c0 -0.04 0 -0.06 -0.02 -0.06 s-0.02 -0.16 -0.02 -0.32 c0 -0.18 0 -0.4 -0.02 -0.5 l-0.02 -0.32 c0 -0.1 0 -0.18 -0.02 -0.2 l0 -0.02 c0.02 0 0.04 -0.08 0.04 -0.14 l-0.04 -0.16 l0.02 -0.02 c0.02 0 0.02 -0.04 0.02 -0.1 l0 -0.36 c0 -0.08 -0.02 -0.1 -0.04 -0.1 l-0.04 0.02 c0 -0.02 0 -0.02 0.04 -0.06 s0.06 -0.1 0.06 -0.3 c0 -0.12 0 -0.2 -0.02 -0.2 l-0.04 0.04 c-0.02 0 -0.04 -0.04 -0.04 -0.1 s0.02 -0.12 0.04 -0.12 c0.04 -0.02 0.04 -0.08 0.04 -0.14 s0 -0.12 -0.04 -0.12 l-0.02 0 l0.02 -0.04 c0.02 -0.04 0.04 -0.1 0.04 -0.14 l0.02 -0.16 c0 -0.14 -0.02 -0.2 -0.04 -0.2 l-0.02 -0.04 c0 -0.02 0 -0.02 0.02 -0.02 s0.04 -0.04 0.04 -0.1 l0.02 -0.22 c0 -0.02 0 -0.02 -0.02 -0.02 l-0.04 0.02 l0.02 -0.02 c0.02 -0.04 0.02 -0.08 0.02 -0.12 c-0.02 -0.02 -0.02 -0.22 -0.02 -0.4 c-0.02 -0.18 -0.02 -0.54 -0.02 -0.8 l0 -0.46 c0.12 0 0.18 0 0.3 -0.04 c0.08 0 0.16 0.02 0.2 0.04 c0.06 0.04 0.14 0.06 0.18 0.06 l0.06 0 c0 0.02 0.02 0.02 0.02 0.02 l0.02 0 c0.04 0 0.06 0.02 0.06 0.04 c0 0.04 0.18 0.16 0.24 0.16 l0.08 0.02 c0 0.02 0.02 0.04 0.06 0.04 c0.06 0.02 0.08 0.04 0.08 0.08 c0 0.02 0.02 0.06 0.06 0.08 l0.04 0.1 c0 0.04 0.02 0.1 0.06 0.16 c0.06 0.08 0.06 0.16 0.06 0.66 l0.02 0.62 l0.02 0.02 c0.02 0 0.04 -0.04 0.12 -0.18 l0.12 -0.24 c0.02 -0.06 0.08 -0.16 0.12 -0.2 l0.02 -0.06 l0 -0.08 c0 -0.12 0.08 -0.26 0.2 -0.3 c0.04 -0.02 0.04 -0.06 0.04 -0.08 c-0.02 -0.02 -0.02 -0.04 -0.04 -0.04 l-0.02 0 s-0.02 0 -0.02 -0.02 l0.04 -0.02 c0.08 0 0.16 -0.06 0.16 -0.14 s0.04 -0.16 0.06 -0.16 s0.06 -0.02 0.08 -0.06 c0 -0.04 0.04 -0.08 0.06 -0.08 s0.02 -0.02 0.02 -0.02 l0 -0.02 l0.04 -0.08 c0.02 -0.04 0.04 -0.1 0.06 -0.1 c0 -0.02 0.02 -0.02 0.02 -0.02 c0.02 0 0.06 -0.02 0.08 -0.06 l0.08 -0.04 c0.04 0 0.08 0 0.08 -0.04 c0.04 -0.04 0.36 -0.12 0.64 -0.12 c0.2 0 0.54 0.04 0.54 0.08 c0 0 0.02 0.02 0.06 0.02 s0.1 0.02 0.14 0.04 c0.16 0.1 0.24 0.14 0.28 0.14 l0.06 0 l0 0.04 c0 0.02 0.02 0.04 0.1 0.04 c0.12 0 0.46 0.22 0.46 0.28 l0.02 0.04 l0.02 0 c0.04 0 0.08 0.04 0.1 0.08 l0.16 0.22 c0.08 0.1 0.1 0.18 0.1 0.22 l-0.02 0.04 l0.04 0 c0.02 0 0.02 0 0.02 0.02 l0 0.06 c0 0.02 0 0.02 0.02 0.02 l0.04 0 c0.02 0 0.04 0.02 0.06 0.06 c0.04 0.04 0.04 0.06 0.04 0.1 l-0.02 0.06 l-0.02 0.04 c0 0.02 0 0.02 0.02 0.02 s0.04 0.04 0.04 0.1 c0 0.04 0.02 0.14 0.06 0.18 l0.04 0.08 l-0.02 0.06 l0.04 0.14 l-0.02 0.04 c-0.02 0 -0.02 0.02 -0.02 0.04 l0.02 0.04 c0.02 0.04 0.02 0.1 0.02 0.16 c0 0.08 0 0.16 -0.04 0.2 l0 0.02 l0.02 -0.02 l0.02 0.24 c0 0.2 -0.02 0.42 -0.04 0.44 s-0.02 0.06 -0.02 0.1 c0 0.02 0 0.04 0.02 0.04 l0.06 0 l-0.02 0.06 l-0.04 0.02 l0 -0.04 l-0.02 0.02 l0.04 0.08 l-0.02 0.04 c-0.02 0.02 -0.02 0.06 -0.02 0.08 l0 0.04 l0.04 0 l0 0.02 c0 0.02 0 0.04 -0.02 0.06 c-0.02 0 -0.04 0.04 -0.04 0.08 l-0.02 0.04 l0.02 0.02 c0.02 0 0.02 0.04 0.02 0.08 c0 0.1 -0.02 0.22 -0.04 0.26 l-0.02 0.06 l0.06 0.14 l-0.04 0.08 l-0.02 0 l0.02 0.02 l0.04 0.1 l-0.06 0.12 l0.02 0.06 l0.02 0.22 c0 0.28 -0.04 0.74 -0.08 0.76 c-0.02 0 -0.02 0.02 -0.02 0.02 l0 0.02 l-0.04 0.04 l0 -0.04 l-0.02 -0.02 l-0.12 0.06 l-0.12 -0.04 l-0.02 0.02 l0.02 0.02 c0.02 0.02 0.02 0.06 0.02 0.06 l-0.02 0 l0 -0.02 l-0.04 0 l-0.02 0.04 l0 0.02 l-0.02 0 c-0.04 0 -0.04 -0.02 -0.04 -0.04 s-0.04 -0.04 -0.06 -0.04 l-0.18 -0.02 l0.02 0.02 c0 0.04 -0.04 0.12 -0.1 0.12 c-0.02 0 -0.02 -0.02 -0.02 -0.04 l0.04 -0.08 l0.02 -0.02 l-0.16 0.02 c-0.02 0 -0.04 -0.02 -0.04 -0.06 l0 -0.04 l-0.02 0.02 c-0.02 0.02 -0.06 0.02 -0.1 0.02 c-0.08 0 -0.18 -0.02 -0.2 -0.08 c-0.02 -0.04 -0.06 -0.1 -0.12 -0.16 s-0.12 -0.14 -0.12 -0.16 l0 -0.02 l-0.02 -0.04 c-0.02 -0.02 -0.02 -0.08 -0.02 -0.24 l0.02 -0.82 c0.02 -0.36 0.06 -0.66 0.08 -0.68 l0.02 -0.04 l-0.04 -0.14 c0 -0.08 0.04 -0.16 0.06 -0.16 c0.02 -0.02 0.04 -0.04 0.04 -0.06 s0 -0.02 -0.02 -0.02 l-0.02 0 c-0.02 0 -0.02 -0.02 -0.02 -0.04 l0.02 -0.04 l-0.02 0 l-0.04 -0.02 c0 -0.02 0.02 -0.06 0.06 -0.08 l0.02 -0.08 l0 -0.18 l0.04 -0.94 c0 -0.16 -0.02 -0.24 -0.06 -0.38 c-0.06 -0.26 -0.12 -0.38 -0.18 -0.4 l-0.04 0 c-0.12 0 -0.36 0.2 -0.42 0.34 c0 0.06 -0.02 0.1 -0.04 0.1 s-0.04 0.02 -0.04 0.06 c0 0.02 -0.02 0.06 -0.04 0.06 l-0.02 0.04 l0 0.02 c0 0.04 -0.02 0.08 -0.04 0.1 l-0.06 0.08 c0 -0.02 0 -0.02 -0.02 -0.02 s-0.06 0.06 -0.12 0.18 l-0.08 0.18 l0 0.04 c0 0.04 -0.02 0.06 -0.06 0.08 s-0.06 0.06 -0.06 0.08 l0 0.02 l0.06 -0.08 l0 0.04 c-0.02 0.02 -0.04 0.04 -0.06 0.04 s-0.06 0.06 -0.1 0.16 c-0.06 0.1 -0.1 0.14 -0.12 0.14 l-0.04 -0.02 l0 0.04 c0 0.08 -0.06 0.2 -0.1 0.2 l-0.02 0 l0.02 0.02 l-0.08 0.24 l-0.12 0.24 c0 0.02 0 0.02 -0.02 0.02 s-0.06 0.08 -0.08 0.18 c-0.06 0.16 -0.08 0.2 -0.16 0.34 l-0.06 0.18 c-0.02 0.06 -0.04 0.12 -0.06 0.12 l-0.02 0.08 c0 0.02 -0.02 0.06 -0.04 0.06 c-0.1 0 -0.12 0.02 -0.12 0.06 s0 0.06 0.02 0.06 l0.06 -0.04 l0.04 -0.02 l0 0.04 l-0.02 0.06 c-0.02 0 -0.06 0.12 -0.1 0.26 l-0.1 0.32 c-0.02 0.04 -0.06 0.24 -0.06 0.32 l-0.08 0.5 l0.04 0.22 l-0.04 0.14 c-0.04 0.12 -0.04 0.1 -0.04 0.14 c0 0.02 -0.06 0.04 -0.12 0.04 c-0.16 0 -0.3 0.08 -0.3 0.12 l0 0.04 c0 0.02 0 0.04 -0.02 0.04 z M19.2 11.94 c0 0 0.02 -0.04 0.06 -0.06 l0.06 -0.08 c0 0.02 -0.02 0.04 -0.04 0.06 c-0.02 0.04 -0.06 0.06 -0.08 0.08 z M19.2 12.04 c-0.02 0 -0.02 0 -0.02 -0.04 l0 -0.02 l0.02 0 l0 0.06 z M19.84 13.16 l0.02 -0.06 l-0.02 0 c-0.02 0 -0.02 0.04 -0.02 0.04 c0 0.02 0 0.02 0.02 0.02 z M19.68 13.4 l0.04 -0.06 l-0.04 0 l-0.04 0.04 c0 0.02 0.02 0.02 0.04 0.02 z M20.259999999999998 13.52 l-0.02 -0.02 l0 -0.02 c0 -0.02 0.02 -0.02 0.04 -0.02 l0 0.02 z M22.62 13.46 l0.04 -0.04 c0 -0.02 0 -0.02 -0.02 -0.02 l-0.04 0.02 z M22.64 14.02 l0.02 -0.04 l-0.02 -0.04 l-0.02 0.04 z M19.46 14.719999999999999 l0.02 -0.02 l-0.02 -0.02 c0 -0.02 0 -0.04 0.02 -0.06 s0.04 -0.04 0.04 -0.06 c-0.02 0 -0.04 0.02 -0.06 0.04 l-0.06 0.08 z M19.24 15.18 l-0.02 -0.04 l-0.04 0.02 c0 0.02 0.02 0.02 0.04 0.02 l0.02 0 z M19.14 15.379999999999999 c0 -0.02 0 -0.04 -0.02 -0.04 l-0.04 -0.02 l0 0.02 c0 0.02 0.02 0.04 0.04 0.04 l0.02 0 z M22.54 15.9 l0 -0.12 c0 -0.08 0 -0.12 -0.02 -0.12 l-0.02 0.12 c0 0.08 0.02 0.12 0.04 0.12 z M22.62 16.02 l0 -0.06 c-0.02 0 -0.02 0.02 -0.02 0.02 l0 0.04 l0.02 0 z M21.96 17.54 c-0.02 0 -0.04 0 -0.04 -0.02 l0.06 -0.04 l0.04 0.02 c0 0.02 -0.04 0.04 -0.06 0.04 z M26.92 19.4 c-0.06 0 -0.12 -0.02 -0.16 -0.06 l-0.14 -0.12 c-0.06 -0.08 -0.28 -0.2 -0.38 -0.2 l-0.04 0 l-0.28 -0.16 c-0.16 -0.1 -0.22 -0.14 -0.3 -0.14 l-0.14 0.02 c-0.12 0.02 -0.4 0.02 -0.6 0.02 c-0.38 0 -0.38 0 -0.62 -0.14 c-0.26 -0.16 -0.32 -0.2 -0.32 -0.24 l0 -0.02 c0 -0.02 -0.04 -0.06 -0.08 -0.1 c-0.06 -0.06 -0.12 -0.12 -0.12 -0.14 s-0.04 -0.1 -0.12 -0.18 c-0.06 -0.06 -0.1 -0.16 -0.12 -0.18 c0 -0.04 -0.02 -0.1 -0.06 -0.16 s-0.06 -0.16 -0.06 -0.26 c0 -0.18 0 -0.18 0.16 -0.2 c0.1 -0.02 0.38 -0.04 0.62 -0.06 c0.22 0 0.44 -0.02 0.46 -0.04 s0.14 -0.02 0.26 -0.04 c0.4 -0.02 0.44 -0.02 0.46 -0.24 l0 -0.42 c0 -0.2 0.04 -0.46 0.08 -0.46 c0.02 0 0.04 -0.02 0.04 -0.04 s-0.02 -0.06 -0.06 -0.08 c-0.02 -0.02 -0.02 -0.04 -0.02 -0.1 s0 -0.16 0.02 -0.3 l0.04 -0.46 c0 -0.16 0.04 -0.28 0.06 -0.28 s0.04 -0.02 0.04 -0.04 l-0.02 -0.06 c-0.02 -0.06 -0.04 -0.16 -0.04 -0.28 c0 -0.2 0.04 -0.48 0.1 -0.74 c0.02 -0.02 0.02 -0.1 0.02 -0.16 l0 -0.1 c0 -0.18 0.02 -0.4 0.04 -0.52 c0.02 -0.06 0.04 -0.22 0.04 -0.36 c0.02 -0.12 0.04 -0.24 0.06 -0.24 s0.02 -0.06 0.02 -0.14 l0 -0.08 c0 -0.06 0 -0.1 0.02 -0.1 c0.02 -0.02 0.04 -0.04 0.04 -0.08 l-0.02 -0.1 l0 -0.12 c0 -0.12 0.02 -0.22 0.08 -0.3 c0.02 -0.02 0.02 -0.04 0.02 -0.08 l0 -0.14 c0 -0.24 0.04 -0.54 0.1 -0.54 l0.02 -0.02 l-0.04 -0.14 l0.02 -0.12 c0.04 -0.06 0.04 -0.14 0.04 -0.2 l0 -0.1 c0 -0.16 0.02 -0.42 0.06 -0.42 c0.02 0 0.02 -0.06 0.02 -0.12 l0.02 -0.3 c0.02 -0.08 0.04 -0.26 0.04 -0.38 c0.02 -0.2 0.12 -1.04 0.16 -1.14 l0 -0.1 c0 -0.02 0.02 -0.02 0.04 -0.02 s0.02 -0.06 0.02 -0.1 l0 -0.16 c0 -0.26 0.02 -0.72 0.08 -1.16 l0.02 -0.64 c0 -0.04 0 -0.06 0.02 -0.06 c0.04 -0.02 0.04 -0.04 0.04 -0.06 l-0.06 -0.02 l-0.1 0.04 l-0.24 0.04 c-0.16 0.02 -0.88 0.18 -0.9 0.2 c0 0.02 -0.02 0.04 -0.04 0.04 s-0.02 -0.02 -0.02 -0.04 l-0.04 -0.02 c-0.1 0 -0.38 0.06 -0.48 0.1 c-0.04 0.02 -0.08 0.02 -0.12 0.02 c-0.02 0 -0.06 0 -0.1 -0.02 c-0.12 -0.06 -0.46 -0.38 -0.46 -0.44 c-0.02 -0.04 -0.02 -0.06 -0.04 -0.06 c-0.08 -0.04 -0.24 -0.38 -0.28 -0.58 l-0.02 -0.14 c0 -0.14 0.06 -0.2 0.26 -0.36 c0.14 -0.1 0.64 -0.22 1.06 -0.22 c0.18 0 0.36 -0.02 0.82 -0.1 c0.1 -0.02 0.24 -0.02 0.3 -0.04 c0.06 0 0.14 -0.02 0.14 -0.04 c0.02 -0.02 0.12 -0.06 0.26 -0.08 c0.12 -0.02 0.22 -0.06 0.24 -0.08 c0.04 -0.04 0.06 -0.2 0.12 -0.64 c0 -0.12 0.02 -0.16 0.1 -0.18 l0.08 -0.02 l0.08 0.04 c0.02 0.02 0.06 0.06 0.1 0.06 c0.06 0 0.42 0.2 0.46 0.26 l0.16 0.12 l0.1 0.02 c0.06 0 0.14 -0.02 0.28 -0.08 c0.28 -0.1 0.38 -0.12 0.56 -0.14 c0.08 0 0.2 -0.04 0.28 -0.08 c0.1 -0.02 0.22 -0.06 0.28 -0.06 s0.16 -0.02 0.18 -0.06 l0.1 -0.02 c0.02 0 0.04 0 0.04 -0.02 s0.04 -0.04 0.1 -0.04 c0.28 0 0.6 -0.06 0.68 -0.1 c0.08 -0.06 0.38 -0.1 0.5 -0.1 l0.04 0 c0.02 0 0.06 0 0.1 -0.02 c0.06 -0.04 0.2 -0.06 0.36 -0.06 l0.28 0.02 c0.08 0 0.18 0 0.22 -0.02 l0.06 0 c0.06 0 0.14 0.02 0.2 0.06 c0 0.02 -0.02 0.04 -0.06 0.08 l-0.04 0.02 c0 0.02 0.06 0.04 0.16 0.06 c0.2 0.02 0.26 0.08 0.28 0.18 c0 0.04 0.06 0.1 0.1 0.14 s0.06 0.06 0.06 0.08 l-0.04 0.1 l0.04 0.06 l0.08 0.02 c0.02 0 0.04 0.06 0.04 0.1 l-0.02 0.06 c-0.02 0 -0.02 0 -0.02 0.02 l0 0.02 c0 0.04 -0.08 0.06 -0.26 0.1 c-0.14 0.02 -0.22 0.02 -0.22 0.04 l0.22 0 c0.18 0 0.3 0.02 0.3 0.04 c-0.02 0.02 -0.08 0.04 -0.14 0.04 c-0.16 0 -0.24 0.04 -0.24 0.08 l0 0.04 c0 0.04 -0.12 0.06 -0.76 0.12 c-0.24 0.02 -0.46 0.06 -0.48 0.08 l-0.06 0.02 l-0.04 -0.02 l-0.08 0.02 c-0.06 0.06 -0.44 0.12 -0.74 0.12 c-0.06 0 -0.1 0 -0.1 0.02 l0.04 0.02 l0.02 0.04 l-0.06 0 c-0.06 0 -0.12 0 -0.14 0.02 l-0.04 0.02 l-0.04 -0.02 l-0.12 0.04 c-0.04 0.02 -0.1 0.04 -0.14 0.04 l-0.02 0 c-0.04 0 -0.06 0 -0.06 0.02 s-0.02 0.04 -0.06 0.04 s-0.04 -0.02 -0.04 -0.06 l-0.04 0.02 c-0.04 0.04 -0.08 0.08 -0.1 0.08 c-0.06 0 -0.46 0.16 -0.46 0.2 c0 0.02 0.02 0.02 0.04 0.02 l0.12 -0.06 c0.04 -0.02 0.12 -0.04 0.18 -0.04 s0.2 -0.04 0.3 -0.06 l0.16 -0.04 c0 0.02 0 0.02 -0.04 0.06 c-0.04 0.02 -0.16 0.06 -0.26 0.08 s-0.24 0.04 -0.3 0.08 c-0.08 0.04 -0.16 0.06 -0.22 0.08 c-0.12 0.02 -0.48 0.12 -0.56 0.16 c-0.04 0 -0.06 0.06 -0.06 0.1 c-0.02 0.04 -0.04 0.28 -0.08 0.52 s-0.08 0.58 -0.08 0.76 c-0.02 0.16 -0.04 0.34 -0.06 0.4 l-0.04 0.44 c-0.02 0.54 -0.08 0.82 -0.16 0.86 c-0.02 0.02 -0.04 0.02 -0.04 0.04 l0.02 0 l-0.02 0.04 l-0.02 0.02 l0.1 -0.02 c0.02 0 0.02 0.04 0.02 0.1 l0 0.16 c-0.02 0.04 -0.04 0.24 -0.06 0.44 l-0.04 0.52 l-0.04 0.24 c-0.02 0.34 -0.16 1.46 -0.22 1.76 l-0.04 0.44 c0 0.06 0 0.12 -0.02 0.12 l-0.02 0.2 c0 0.1 -0.02 0.2 -0.04 0.2 l-0.02 0.04 l0.04 0.08 l-0.02 0.02 c-0.02 0 -0.04 0.08 -0.06 0.18 c0 0.3 -0.1 0.76 -0.14 0.76 s-0.06 0.04 -0.06 0.08 l0 0.04 l0.04 -0.02 l0.04 -0.04 c0.02 0 0.02 0.06 0.02 0.16 c0 0.08 -0.02 0.18 -0.04 0.22 c-0.02 0.02 -0.02 0.04 -0.02 0.06 c0.02 0.02 0.02 0.08 0.02 0.14 c-0.04 0.2 -0.16 1.6 -0.2 2.2 c0 0.12 -0.02 0.28 -0.04 0.34 l-0.02 0.26 c0 0.1 0 0.12 0.04 0.12 l0.08 0 c0.08 0 0.14 -0.02 0.16 -0.04 c0 -0.02 0.1 -0.04 0.2 -0.04 c0.24 0 0.3 -0.02 0.3 -0.04 l-0.06 -0.04 c0 -0.02 0 -0.02 0.02 -0.02 c0.04 0 0.1 0.02 0.12 0.04 l0.06 0.02 l0.06 -0.02 c0.04 -0.02 0.12 -0.04 0.22 -0.04 l0.28 -0.06 c0.08 -0.02 0.24 -0.06 0.34 -0.06 l0.48 -0.1 c0.16 -0.04 0.38 -0.1 0.5 -0.1 c0.1 0 0.18 -0.04 0.2 -0.04 c0 -0.02 0.04 -0.04 0.06 -0.04 l0.64 -0.06 c0.1 0 0.18 0.02 0.2 0.04 l0.02 0.02 c0 0.02 -0.06 0.04 -0.16 0.06 l-0.14 0.02 c0 0.02 0.04 0.02 0.08 0.02 l0.4 -0.04 c0.06 0 0.08 0 0.1 0.02 s0.06 0.04 0.1 0.04 s0.08 0.04 0.12 0.12 c0.02 0.06 0.06 0.12 0.1 0.14 l0.02 0.02 l-0.02 0.04 c-0.04 0 -0.04 0.02 -0.04 0.04 s0.02 0.04 0.08 0.04 c0.04 0 0.06 0 0.06 0.02 l-0.02 0.06 c-0.02 0.04 -0.02 0.1 -0.02 0.12 l0 0.02 l-0.06 0.04 c-0.22 0.04 -0.34 0.06 -0.34 0.08 l0.04 0.02 l0.16 -0.02 c0.06 0 0.1 0.02 0.1 0.02 c0 0.04 -0.08 0.06 -0.18 0.08 c-0.08 0.02 -0.18 0.06 -0.2 0.08 l-0.04 0.04 l-0.02 -0.02 c0 -0.02 -0.02 -0.04 -0.04 -0.04 s-0.04 0.02 -0.04 0.06 l0 0.02 c0 0.02 0 0.04 -0.02 0.04 l-0.04 0.02 c0 0.02 0.04 0.02 0.06 0.02 l0.12 0 c0.04 0 0.04 0 0.04 0.02 s-0.06 0.06 -0.16 0.08 c-0.08 0 -0.24 0.06 -0.36 0.1 c-0.12 0.06 -0.28 0.1 -0.36 0.14 c-0.32 0.08 -1.02 0.22 -1.2 0.24 l-0.24 0.06 c-0.02 0.02 -0.18 0.06 -0.34 0.08 l-0.24 0.06 l0.04 0 l0.34 -0.04 l0.32 -0.02 c0 0.06 -0.2 0.12 -0.36 0.12 l-0.06 0 c-0.16 0 -0.2 0.02 -0.22 0.06 c0 0.06 -0.06 0.06 -0.28 0.08 c-0.16 0 -0.28 0.02 -0.3 0.04 c-0.02 0.06 -0.26 0.1 -0.48 0.1 c-0.16 0 -0.22 0.02 -0.22 0.16 l0.02 0.22 l0.06 0.34 c0.02 0.04 0.06 0.1 0.06 0.16 l0.02 0.04 c0 0.02 -0.02 0.02 -0.04 0.02 l-0.06 -0.02 l-0.02 0.02 c-0.02 0.02 -0.06 0.04 -0.1 0.04 z M31.540000000000003 2.5 l0 -0.02 l-0.1 0 l0 0.02 l0.1 0 z M30.700000000000003 2.5799999999999983 c0.04 0 0.06 0 0.06 -0.02 l-0.08 0 l-0.02 0.02 l0.04 0 z M30.300000000000004 2.66 c0.04 0 0.04 -0.02 0.04 -0.04 l-0.08 -0.04 l-0.02 0.04 c0 0.02 0.02 0.04 0.06 0.04 z M28.160000000000004 3.1999999999999993 l-0.02 -0.02 c0 -0.02 -0.02 -0.02 -0.02 -0.02 s-0.02 0 -0.02 0.02 l0 0.02 l0.06 0 z M32.2 3.4200000000000017 l0 -0.02 l-0.08 0 l-0.02 0.02 l0.1 0 z M31.940000000000005 3.460000000000001 c0 -0.02 0 -0.04 -0.02 -0.06 c-0.02 0 -0.02 0.02 -0.02 0.04 l0.02 0.02 l0.02 0 z M32.260000000000005 3.6000000000000014 c0.02 0 0.06 0 0.08 -0.02 c0 -0.02 -0.02 -0.04 -0.06 -0.04 l-0.08 0.02 l0 0.02 c0 0.02 0.02 0.02 0.06 0.02 z M31.080000000000002 3.960000000000001 l-0.02 0 c-0.04 0 -0.04 0 -0.04 -0.02 l0.06 0 l0 0.02 z M30.560000000000002 4.1 l-0.02 0 c-0.02 0 -0.04 0 -0.04 -0.02 s0.02 -0.04 0.06 -0.04 c0.08 -0.04 0.26 -0.06 0.34 -0.06 l0.04 0 c0 0.02 -0.06 0.04 -0.16 0.06 c-0.08 0.02 -0.18 0.06 -0.22 0.06 z M30.000000000000004 4.24 c-0.08 0 -0.14 -0.02 -0.14 -0.02 c0.02 -0.02 0.12 -0.04 0.24 -0.08 l0.28 -0.08 l0.06 0 c0 0.02 -0.02 0.08 -0.08 0.12 l-0.06 0.04 l0 -0.02 c0 -0.02 0 -0.04 -0.04 -0.04 s-0.06 0.02 -0.08 0.04 c0 0.02 -0.08 0.04 -0.18 0.04 z M28.520000000000003 4.5600000000000005 c0.04 0 0.18 -0.02 0.3 -0.06 l0.06 -0.04 l-0.2 0.02 c-0.12 0.02 -0.2 0.06 -0.2 0.08 l0.04 0 z M28.380000000000003 4.640000000000001 c0.04 -0.02 0.06 -0.04 0.06 -0.06 l-0.02 -0.02 l-0.06 0 c-0.04 0.02 -0.06 0.04 -0.06 0.06 s0.04 0.02 0.08 0.02 z M28.180000000000003 4.699999999999999 c0.02 0 0.06 -0.02 0.06 -0.04 l0 -0.02 c0 -0.02 0 -0.02 -0.02 -0.02 s-0.04 0.02 -0.06 0.04 c0 0.02 0 0.04 0.02 0.04 z M29.000000000000004 4.699999999999999 c-0.02 0 -0.02 -0.02 -0.02 -0.02 l0 -0.02 l0.02 -0.04 c0.02 0 0.02 0.02 0.04 0.04 c0 0.02 -0.02 0.04 -0.04 0.04 z M28.42 4.800000000000001 l0.02 -0.02 c0.08 -0.04 0.22 -0.06 0.28 -0.06 l0.06 0 c-0.04 0.02 -0.14 0.06 -0.26 0.06 z M28.180000000000003 5.0600000000000005 c0.02 0 0.04 -0.1 0.04 -0.16 l-0.04 0.02 c-0.02 0.04 -0.02 0.08 -0.02 0.12 z M28.14 5.34 l0.02 -0.04 l-0.04 -0.02 l0 0.02 c0 0.04 0.02 0.04 0.02 0.04 z M26.300000000000004 5.359999999999999 c-0.06 0 -0.1 0 -0.1 -0.02 c0.02 -0.02 0.04 -0.02 0.08 -0.02 l0.04 0 c0.04 0 0.06 0 0.06 0.02 z M26.120000000000005 5.380000000000001 l-0.1 0 l0.02 -0.02 l0.08 0 l0 0.02 z M28.000000000000004 6.4 l0.02 -0.02 l-0.02 -0.02 s0 -0.02 -0.02 -0.02 l0 0.04 z M27.660000000000004 9.36 c0.02 0 0.04 -0.02 0.04 -0.06 l0.04 -0.08 c0.02 0 0.02 -0.02 0.02 -0.04 c0 -0.04 -0.02 -0.12 -0.06 -0.18 l-0.04 -0.02 s-0.02 0.02 -0.02 0.08 l-0.02 0.1 c0 0.02 0.02 0.04 0.04 0.06 l0.02 0.02 l-0.02 0.04 c-0.02 0 -0.04 0.02 -0.04 0.04 s0.02 0.04 0.04 0.04 z M27.700000000000003 9.2 l-0.02 0 l-0.02 -0.04 c0 -0.02 0 -0.04 0.02 -0.04 l0 0.02 c0.02 0.02 0.02 0.06 0.02 0.06 z M27.660000000000004 9.52 l0 -0.04 c0 -0.02 -0.02 -0.04 -0.04 -0.04 l-0.02 0.02 l0.02 0.02 c0 0.02 0.02 0.04 0.04 0.04 z M27.580000000000002 9.82 l0.02 -0.04 l-0.04 -0.02 l0 0.02 c0 0.04 0 0.04 0.02 0.04 z M27.620000000000005 10.06 c0.02 0 0.04 -0.04 0.04 -0.1 s0 -0.1 -0.02 -0.1 s-0.04 0.02 -0.04 0.04 l0 0.12 c0 0.02 0 0.04 0.02 0.04 z M27.540000000000003 10.28 c0.04 0 0.04 -0.04 0.04 -0.1 c-0.02 -0.1 -0.02 -0.12 -0.04 -0.12 l-0.02 0.04 c-0.02 0.04 -0.02 0.08 -0.02 0.1 c0 0.04 0 0.08 0.04 0.08 z M27.560000000000002 10.66 c0 0 0.02 0 0.02 -0.02 c0 -0.18 0 -0.24 -0.02 -0.26 l-0.04 0 l-0.02 0.06 l0 0.08 c0 0.02 0 0.04 -0.02 0.04 l-0.02 0.02 l0.02 0.04 c0.02 0.04 0.06 0.04 0.08 0.04 z M27.400000000000002 11.36 c0.02 0 0.04 -0.02 0.04 -0.04 l-0.04 -0.04 c-0.04 0 -0.04 0.02 -0.04 0.04 s0.02 0.04 0.04 0.04 z M27.240000000000002 12.36 l0.04 -0.02 c0 -0.02 -0.02 -0.02 -0.04 -0.02 l-0.04 0 l-0.02 0.02 c0 0.02 0.02 0.02 0.06 0.02 z M25.700000000000003 12.76 l0.04 -0.02 l-0.02 -0.02 c0 -0.02 -0.02 -0.02 -0.02 -0.02 l0 0.06 z M27.180000000000003 12.76 c0 -0.02 0 -0.04 -0.02 -0.04 l0 -0.02 c-0.02 0 -0.02 0.02 -0.02 0.04 z M27.14 13.379999999999999 c0 -0.02 0 -0.04 -0.02 -0.06 c-0.02 0 -0.02 0 -0.02 0.04 z M27.180000000000003 13.46 l0 -0.02 l-0.06 0 l-0.02 0.02 l0.08 0 z M27.14 13.66 c0.02 0 0.04 -0.02 0.04 -0.06 l-0.02 -0.06 c-0.02 0 -0.02 0.02 -0.04 0.06 c0 0.04 0 0.06 0.02 0.06 z M27.040000000000003 13.98 l0.04 -0.04 c0.02 -0.04 0.04 -0.1 0.04 -0.14 l-0.02 0 z M26.6 14 l0 -0.02 l-0.04 -0.02 l-0.06 0.02 c0 0.02 0.02 0.02 0.06 0.02 l0.04 0 z M27.060000000000002 14.6 c0 -0.02 0 -0.04 -0.02 -0.04 l0 -0.02 c-0.02 0 -0.02 0.02 -0.02 0.04 z M27.060000000000002 14.8 l-0.04 -0.02 c-0.02 0 -0.02 -0.02 -0.02 -0.04 l0 -0.08 l-0.04 0.02 l-0.02 0.04 c0 0.04 0.04 0.08 0.08 0.08 l0.04 0 z M26.92 15.26 l0.1 -0.04 l0.02 -0.1 l-0.08 -0.04 l-0.04 0.02 l0.02 0.04 l-0.02 0.02 c-0.02 0 -0.04 0.02 -0.04 0.04 c0.02 0.04 0.02 0.06 0.04 0.06 z M26.96 15.34 c0.04 0 0.04 0 0.04 -0.02 l-0.04 -0.02 s-0.02 0 -0.02 0.02 l0 0.02 l0.02 0 z M26.94 15.440000000000001 c0.04 0 0.08 0 0.08 -0.02 s-0.04 -0.04 -0.08 -0.04 l-0.02 -0.02 l-0.02 0.02 c-0.02 0 -0.02 0 -0.02 0.02 s0.02 0.04 0.06 0.04 z M26.900000000000002 15.719999999999999 c0.04 -0.02 0.1 -0.06 0.1 -0.1 l0.02 -0.06 l-0.02 -0.02 s-0.04 0 -0.08 0.04 c-0.06 0.02 -0.08 0.06 -0.08 0.1 c0 0.02 0.02 0.04 0.06 0.04 z M26.94 16.04 c0.02 0 0.02 -0.04 0.02 -0.06 l0 -0.04 c0 -0.02 0 -0.04 -0.02 -0.06 l0 0.02 c-0.02 0 -0.02 0.04 -0.02 0.06 c0 0.04 0 0.08 0.02 0.08 z M30.540000000000003 16 c-0.04 0 -0.04 -0.02 -0.04 -0.04 l0.06 0 l0 0.02 z M26.840000000000003 16.259999999999998 c0.02 0 0.06 -0.02 0.06 -0.04 l0.02 -0.04 l-0.02 -0.02 l-0.08 0.08 z M26.92 16.52 c0.02 0 0.04 -0.02 0.04 -0.04 c-0.02 -0.04 -0.04 -0.06 -0.06 -0.06 s-0.02 0.02 -0.02 0.06 c0 0.02 0.02 0.04 0.04 0.04 z M31.580000000000002 17.14 l-0.04 0 c-0.04 0 -0.06 0 -0.06 -0.02 l0.06 -0.02 l0.04 0.02 l0 0.02 z M31.14 17.22 l-0.02 -0.02 l0 -0.02 c0.02 -0.02 0.12 -0.04 0.2 -0.04 l0.12 0 c0 0.02 -0.02 0.04 -0.04 0.04 z M30.740000000000002 17.38 c0.04 0 0.08 -0.02 0.1 -0.04 c0 -0.02 -0.02 -0.04 -0.06 -0.04 s-0.1 0.02 -0.1 0.04 l0 0.02 s0.02 0.02 0.06 0.02 z M30.560000000000002 17.4 c0.02 0 0.02 0 0.02 -0.02 s-0.02 -0.04 -0.04 -0.04 s-0.04 0.02 -0.04 0.04 z M30.160000000000004 17.48 c0.04 0 0.06 -0.02 0.06 -0.04 c-0.02 -0.02 -0.02 -0.04 -0.04 -0.04 s-0.06 0.02 -0.06 0.04 l0 0.02 z M29.6 17.86 l-0.02 0 c-0.04 0 -0.04 0 -0.04 -0.02 l0.06 0 l0 0.02 z M29.000000000000004 18.02 c-0.02 0 -0.04 0 -0.04 -0.02 l0 -0.02 c0 -0.02 0.06 -0.04 0.1 -0.04 s0.06 0 0.06 0.02 z M28.1 18.14 l0.04 -0.02 c0 -0.02 -0.02 -0.02 -0.04 -0.02 l-0.06 0.02 c0 0.02 0.02 0.02 0.06 0.02 z M26.860000000000003 18.62 l0 -0.02 l-0.02 -0.04 l0 0.06 l0.02 0 z M35.02 19.9 c-0.02 0 -0.02 -0.02 -0.04 -0.04 c-0.02 -0.04 -0.08 -0.06 -0.16 -0.06 c-0.14 0 -0.78 -0.32 -0.8 -0.4 c0 -0.04 -0.08 -0.1 -0.18 -0.16 c-0.4 -0.28 -0.78 -0.96 -0.78 -1.36 l0 -0.02 c0 -0.1 -0.02 -0.24 -0.06 -0.3 l-0.02 -0.16 l0.02 -0.14 l-0.04 -0.2 c-0.02 -0.08 -0.04 -0.2 -0.04 -0.28 l0.02 -0.24 l-0.02 -0.14 c-0.02 -0.08 -0.02 -0.26 -0.04 -0.38 c0 -0.1 -0.02 -0.22 -0.04 -0.24 l0 -0.08 l0.02 -0.06 c0 -0.02 -0.02 -0.04 -0.06 -0.08 c-0.02 -0.04 -0.04 -0.04 -0.04 -0.06 l0.04 -0.02 c0.04 0 0.06 -0.06 0.06 -0.12 s-0.02 -0.16 -0.06 -0.22 c-0.02 -0.02 -0.02 -0.06 -0.02 -0.08 c0 -0.04 0 -0.06 0.02 -0.08 l0.02 -0.12 l0 -0.06 c-0.02 -0.1 -0.04 -0.24 -0.04 -0.36 c0 -0.14 0.02 -0.26 0.04 -0.3 c0.02 -0.02 0.04 -0.08 0.04 -0.14 l-0.02 -0.16 c-0.04 -0.28 -0.06 -0.52 -0.06 -0.76 c0 -0.2 0.02 -0.38 0.04 -0.58 l0 -0.2 l0.04 -0.16 l0.06 -0.16 l-0.02 -0.2 l0 -0.08 l0.02 -0.14 l0.04 -0.08 l-0.04 -0.04 c-0.02 -0.02 -0.04 -0.08 -0.04 -0.2 l0.02 -0.38 l-0.02 -0.12 l-0.02 -0.04 l0.04 -0.06 c0.02 -0.02 0.02 -0.1 0.02 -0.16 l0 -0.22 l0.02 -0.26 l0.04 -0.16 l-0.02 -0.14 c0 -0.02 0.02 -0.04 0.04 -0.04 c0.04 0 0.04 0 0.04 -0.02 l-0.02 -0.1 c-0.04 -0.08 -0.06 -0.32 -0.06 -0.54 l0.02 -0.3 c0.04 -0.12 0.1 -0.84 0.1 -0.92 l0 -0.08 c0 -0.14 0.02 -0.26 0.06 -0.3 l0.02 -0.04 l-0.02 -0.06 c-0.02 0 -0.02 -0.02 -0.02 -0.04 l0.04 -0.08 c0.08 -0.06 0.14 -0.4 0.14 -0.64 c0 -0.12 -0.02 -0.2 -0.04 -0.26 l0.02 -0.1 l-0.02 -0.12 l-0.02 -0.04 l0.04 -0.1 c0.02 -0.04 0.04 -0.08 0.04 -0.12 l-0.04 -0.14 c0 -0.04 0.02 -0.08 0.04 -0.1 l0.06 -0.08 c0 -0.04 -0.04 -0.04 -0.1 -0.08 c-0.04 -0.02 -0.1 -0.04 -0.18 -0.04 l-0.14 0.02 c-0.04 0 -0.08 -0.02 -0.1 -0.06 s-0.08 -0.06 -0.12 -0.06 s-0.04 0 -0.04 0.02 l0.02 0.08 l0.04 0.06 c0 0.02 -0.02 0.02 -0.04 0.02 l-0.1 0 c-0.02 0 -0.04 0 -0.04 0.02 s-0.02 0.04 -0.08 0.04 l-0.04 0.02 l0.1 0.08 l-0.14 -0.02 c-0.02 0 -0.06 0 -0.06 0.02 l-0.02 0.02 c-0.04 0 -0.06 -0.02 -0.12 -0.06 s-0.08 -0.06 -0.1 -0.06 s-0.02 0.02 -0.02 0.04 c0 0.04 -0.04 0.08 -0.1 0.08 c-0.04 0 -0.1 0.06 -0.14 0.1 c-0.04 0.08 -0.1 0.1 -0.2 0.1 l-0.06 0 c-0.04 0 -0.08 0 -0.08 0.02 s-0.08 0.04 -0.16 0.06 c-0.1 0.02 -0.22 0.06 -0.26 0.08 l-0.06 0.02 c-0.02 0 -0.02 -0.02 -0.02 -0.06 l0 -0.02 c0 -0.02 -0.02 -0.04 -0.04 -0.04 l-0.14 0.02 c-0.1 0.04 -0.22 0.06 -0.26 0.06 c-0.02 0 -0.04 0 -0.04 0.02 l0.08 0.06 l-0.3 0 l0.1 0.04 c0 0.02 -0.06 0.04 -0.22 0.08 c-0.12 0.04 -0.18 0.04 -0.26 0.04 c-0.04 0 -0.08 0 -0.12 -0.02 c-0.06 -0.04 -0.14 -0.04 -0.2 -0.04 c-0.04 0 -0.08 0 -0.08 0.04 s0.06 0.06 0.1 0.08 l-0.1 0 c-0.08 0 -0.14 0 -0.14 0.02 l0.02 0.04 l-0.02 0.02 c-0.06 0 -0.1 -0.06 -0.12 -0.16 c0 -0.02 -0.02 -0.04 -0.06 -0.04 l-0.14 0.04 l-0.04 0.04 l0.04 0.06 l-0.02 0.02 l-0.06 -0.02 c-0.1 -0.04 -0.22 -0.04 -0.32 -0.04 c-0.08 0 -0.16 0 -0.16 0.02 l-0.04 0.02 c-0.08 0 -0.3 -0.1 -0.32 -0.16 c0 -0.02 -0.08 -0.08 -0.16 -0.12 c-0.08 -0.06 -0.14 -0.12 -0.14 -0.16 l0 -0.02 c0 -0.02 -0.04 -0.06 -0.08 -0.1 c-0.16 -0.14 -0.3 -0.38 -0.4 -0.7 c-0.04 -0.14 -0.06 -0.22 -0.06 -0.28 s0.02 -0.1 0.06 -0.14 c0.08 -0.1 0.14 -0.12 0.58 -0.18 l0.52 -0.06 c0 -0.02 0.16 -0.04 0.34 -0.04 c0.18 -0.02 0.3 -0.04 0.3 -0.06 s0.08 -0.04 0.18 -0.06 l0.08 0 c0.04 0 0.08 0 0.08 0.02 s0.02 0.04 0.04 0.04 c0.04 0 0.04 -0.02 0.04 -0.06 c0 -0.02 0.06 -0.02 0.12 -0.02 l0.08 0 l-0.12 -0.06 l0.12 -0.04 l0.24 -0.06 l0.04 0 c0.04 0 0.04 0.02 0.06 0.06 l0.04 0.06 l0.04 -0.06 c0.02 -0.04 0.04 -0.06 0.06 -0.06 l0.04 0 l0.04 -0.02 c0.02 -0.06 0.24 -0.1 0.38 -0.1 c0.06 0 0.1 0 0.12 0.02 l0.06 0.04 c0.04 0 0.08 -0.02 0.14 -0.1 c0.06 -0.06 0.12 -0.1 0.16 -0.1 s0.06 0.02 0.06 0.04 l0.02 0.04 l0.04 -0.02 l0.02 -0.04 l-0.04 -0.06 c0 -0.02 0.02 -0.02 0.06 -0.02 s0.06 0.02 0.06 0.06 l0 0.02 l0.08 0.02 c0.06 0 0.08 -0.04 0.08 -0.08 l0 -0.04 c0 -0.02 0 -0.04 0.02 -0.04 s0.04 0.04 0.04 0.08 s0.02 0.06 0.04 0.06 l0.02 0 c0.04 0 0.08 -0.04 0.08 -0.1 c0 -0.04 0.02 -0.08 0.04 -0.08 s0.06 0.02 0.06 0.08 l0 0.04 l0.04 -0.06 c0.04 -0.06 0.14 -0.12 0.22 -0.14 l0.08 0 c0.04 0 0.08 0 0.08 0.02 s-0.02 0.04 -0.08 0.06 l-0.02 0 s0.04 0.02 0.1 0.02 c0.1 0 0.14 -0.02 0.14 -0.06 l0 -0.04 c0 -0.04 0.04 -0.06 0.16 -0.06 l0.08 0 c0.04 0 0.06 -0.02 0.06 -0.04 l0 -0.02 l0.02 -0.04 l0.04 0.04 l0.08 0.02 c0.02 0 0.04 0 0.04 -0.02 l0.06 -0.04 l0.16 0.08 l-0.04 -0.06 l0.04 -0.06 c0.04 -0.04 0.1 -0.08 0.14 -0.08 c0.02 0 0.04 0.02 0.04 0.04 l0 0.02 c0 0.02 0.04 0.04 0.1 0.04 c0.1 0 0.12 -0.04 0.12 -0.22 s0 -0.24 0.06 -0.24 c0.04 0 0.08 0.02 0.16 0.06 c0.14 0.08 0.38 0.16 0.48 0.16 c0.02 0 0.04 0 0.04 -0.02 s0.1 -0.04 0.2 -0.04 s0.2 -0.02 0.22 -0.06 l0.04 -0.02 l0 0.08 l0.04 -0.02 c0.02 -0.02 0.04 -0.02 0.04 -0.06 l-0.02 -0.04 l0.08 0.02 l0.12 0.02 c0.16 0 0.4 -0.06 0.4 -0.12 l-0.02 -0.04 l0.1 0 c0.04 0 0.04 0 0.04 -0.02 s0.02 -0.02 0.02 -0.02 l0.02 0 c0.06 0.02 0.12 0.04 0.2 0.04 c0.1 0 0.2 -0.02 0.22 -0.06 s0.04 -0.04 0.06 -0.04 s0.04 0 0.06 0.02 c0.04 0.02 0.14 0.04 0.2 0.04 s0.1 0 0.1 -0.02 l0 -0.04 c0 -0.04 0.02 -0.04 0.04 -0.06 l0.04 -0.02 l0.12 0.06 c0.02 0 0.02 0 0.02 -0.02 s0.1 -0.06 0.2 -0.06 c0.12 0 0.22 -0.02 0.24 -0.04 l0.18 -0.06 c0.06 0 0.16 -0.02 0.22 -0.04 c0.08 -0.04 0.24 -0.04 0.36 -0.04 c0.1 0 0.18 0 0.22 0.02 c0.04 0 0.1 -0.02 0.16 -0.06 c0.04 -0.04 0.12 -0.06 0.18 -0.06 l0.1 0.02 c0.12 0 0.28 -0.04 0.28 -0.1 l-0.02 -0.08 l0.08 0.06 c0.04 0.04 0.08 0.06 0.1 0.06 l0.04 -0.04 l0.02 -0.04 c0 -0.02 0 -0.02 -0.04 -0.02 l-0.04 0 l0.02 -0.04 l0.06 -0.04 l0.12 0.06 c0.02 0 0.02 0 0.02 -0.04 l0 -0.02 l0.02 0 l0.16 -0.02 l0.1 -0.02 c0.04 0 0.06 0 0.1 0.04 l0.06 0.06 l-0.06 -0.1 c0 -0.02 0.04 -0.04 0.14 -0.04 l0.3 0.02 c0.3 0 0.44 -0.02 0.44 -0.04 s0.02 -0.04 0.06 -0.04 l0.12 0 c0.04 0 0.06 0 0.06 -0.02 c0.02 -0.02 0.3 -0.04 0.64 -0.06 c0.32 0 0.6 -0.02 0.62 -0.06 c0 -0.02 0.04 -0.04 0.08 -0.04 s0.06 0.02 0.06 0.06 c0 0.02 0.08 0.04 0.16 0.04 c0.18 0 0.4 -0.04 0.54 -0.08 c0.06 -0.02 0.12 -0.02 0.18 -0.02 c0.08 0 0.16 0 0.28 0.04 c0.26 0.06 0.38 0.08 0.44 0.08 l0.02 0 l-0.04 -0.06 l0.04 0 c0.04 0 0.14 0.02 0.26 0.08 l0.16 0.06 c0.02 0 0.02 -0.02 0.02 -0.04 c0.02 -0.06 0.06 -0.08 0.12 -0.08 c0.08 0 0.16 0.02 0.22 0.08 c0.04 0.04 0.12 0.06 0.16 0.06 l0.04 0 c0.1 0 0.44 0.22 0.48 0.34 c0 0.02 0 0.04 -0.02 0.04 l-0.06 0 l0 0.02 c0 0.02 0.08 0.06 0.16 0.1 c0.06 0.02 0.1 0.04 0.1 0.06 l-0.16 0.04 c-0.22 0.04 -0.3 0.08 -0.3 0.14 l0.04 0.14 l-0.02 0.04 l0.02 0 c0.02 0 0.08 0.02 0.1 0.06 l0.08 0.04 l0.04 -0.02 c0.02 0 0 0.02 -0.02 0.04 c-0.02 0.04 -0.02 0.04 -0.04 0.04 l-0.04 -0.02 c-0.04 -0.04 -0.14 -0.06 -0.24 -0.06 c-0.1 -0.02 -0.2 -0.04 -0.2 -0.08 c-0.02 -0.02 -0.04 -0.06 -0.06 -0.06 l-0.04 0.02 l0.02 0.04 c0 0.04 -0.02 0.08 -0.08 0.1 l-0.04 0.02 c0 0.02 0.06 0.02 0.2 0.02 l0.12 0 c0.12 0 0.22 0.02 0.26 0.04 c0.06 0.02 0.16 0.04 0.24 0.04 c0.06 0 0.12 0.04 0.12 0.06 s-0.18 0.06 -0.48 0.06 c-0.24 0 -0.38 0.02 -0.38 0.04 l0.06 0.02 c0 0.02 -0.04 0.04 -0.1 0.06 l-0.1 0.02 c-0.04 0 -0.08 -0.02 -0.1 -0.04 c-0.04 -0.04 -0.12 -0.06 -0.18 -0.06 s-0.1 0.02 -0.1 0.04 s0 0.02 -0.02 0.02 l-0.02 -0.02 c-0.04 -0.04 -0.08 -0.06 -0.1 -0.06 l-0.02 0.02 l0.04 0.06 c0 0.02 -0.08 0.02 -0.36 0.04 l-0.14 0 c-0.1 0 -0.18 -0.02 -0.22 -0.04 c-0.08 -0.04 -0.2 -0.06 -0.34 -0.06 c-0.12 0 -0.22 -0.02 -0.22 -0.04 l-0.02 -0.04 l-0.02 0.04 c-0.02 0.04 -0.04 0.06 -0.06 0.06 c-0.08 0 -0.14 0.02 -0.14 0.02 c0 0.02 0.04 0.04 0.12 0.04 c0.16 0.02 0.24 0.1 0.24 0.16 c0 0.04 -0.02 0.08 -0.08 0.12 l-0.14 0.06 c-0.04 0 -0.06 -0.04 -0.08 -0.08 l0 -0.02 c0 -0.04 0.06 -0.08 0.2 -0.08 c0.04 0 0.06 0 0.06 -0.04 c0 -0.02 -0.06 -0.04 -0.1 -0.04 c-0.06 0 -0.14 0.02 -0.16 0.06 c0 0.02 -0.02 0.02 -0.04 0.02 l-0.08 -0.02 c-0.06 -0.02 -0.16 -0.04 -0.26 -0.04 c-0.18 0 -0.34 0.04 -0.36 0.1 c-0.02 0.02 -0.02 0.04 -0.04 0.04 c0 -0.02 -0.08 -0.04 -0.14 -0.04 s-0.14 0.02 -0.16 0.06 l-0.02 0.06 c0 0.04 0.04 0.06 0.1 0.06 l0.04 0 c0.02 0 0.02 0 0.02 0.02 c-0.02 0.02 -0.18 0.04 -0.38 0.06 l-0.22 0.02 c-0.12 0 -0.14 -0.02 -0.14 -0.08 c0 -0.04 0.02 -0.08 0.06 -0.08 c0.06 0 0.08 0 0.08 -0.02 c-0.02 -0.04 -0.22 -0.06 -0.38 -0.06 c-0.1 0 -0.16 0 -0.18 0.02 s-0.08 0.06 -0.14 0.08 l-0.04 0.02 l0.22 0 c0.06 0 0.08 0 0.08 0.02 l-0.06 0.1 c0 0.02 0.02 0.02 0.04 0.04 l-0.36 0.04 c-0.26 0.02 -0.44 0.04 -0.44 0.08 c0 0.02 -0.02 0.02 -0.04 0.02 l-0.08 -0.02 l-0.06 -0.04 c-0.02 0 -0.02 0 -0.02 0.02 l0 0.02 c0 0.02 0 0.02 -0.02 0.02 l-0.04 0 l-0.02 0.02 c0 0.02 0.04 0.06 0.08 0.06 l0.02 0.02 c0 0.02 0 0.02 -0.04 0.02 s-0.08 -0.04 -0.1 -0.08 s-0.06 -0.06 -0.1 -0.06 s-0.06 0.02 -0.06 0.04 s-0.06 0.04 -0.14 0.04 c-0.1 0 -0.12 0.02 -0.12 0.04 l0 0.08 c0 0.04 0 0.06 -0.02 0.06 s-0.04 -0.02 -0.06 -0.06 l-0.08 -0.02 l-0.36 0.04 c-0.04 0 -0.06 0 -0.06 -0.02 l0.04 -0.04 l-0.02 -0.06 c0 -0.02 0.02 -0.04 0.04 -0.06 l0.08 -0.04 l0 -0.02 c0 -0.02 -0.06 -0.04 -0.12 -0.04 c-0.08 0 -0.16 0.02 -0.22 0.06 c-0.04 0.02 -0.16 0.04 -0.26 0.06 c-0.1 0 -0.22 0.04 -0.26 0.08 l-0.02 0.04 c0 0.02 0 0.02 0.04 0.02 l0.24 -0.02 c0.14 0 0.18 0.02 0.18 0.06 l0 0.02 c0 0.04 0.02 0.06 0.06 0.06 l0.16 -0.02 l0.02 0.02 l0 0.02 l-0.08 0.02 c-0.18 0 -0.54 -0.06 -0.64 -0.12 l-0.26 -0.06 c-0.12 0 -0.26 -0.02 -0.32 -0.04 c-0.06 0 -0.08 0 -0.08 0.02 l0.02 0.06 c0.04 0.06 0.06 0.08 0.1 0.08 l0.1 -0.02 c0.04 0 0.08 0.04 0.08 0.08 l-0.02 0.06 c0 0.02 0 0.02 -0.02 0.02 l-0.02 -0.02 c0 -0.04 -0.04 -0.06 -0.06 -0.06 l-0.02 0.02 l0.04 0.1 c0 0.02 -0.04 0.02 -0.1 0.04 l-0.1 0 l0.1 0.06 l-0.2 0 c-0.18 0 -0.3 -0.04 -0.38 -0.1 l-0.08 -0.06 c-0.02 0 -0.04 0.02 -0.04 0.04 c-0.02 0.04 -0.08 0.08 -0.16 0.1 l-0.08 0.02 c-0.02 0 -0.02 0 -0.02 -0.02 l0.02 -0.06 c0 -0.02 -0.02 -0.04 -0.1 -0.06 l-0.06 0 c-0.02 0 -0.04 0 -0.04 0.02 l0 0.02 c0 0.04 0.04 0.06 0.06 0.06 s0.04 0.02 0.04 0.06 l0 0.02 s0.02 0.02 0.06 0.02 s0.08 0.02 0.08 0.04 l0 0.02 c0 0.02 -0.02 0.04 -0.04 0.04 l-0.02 0.02 l0.04 0.14 c0 0.02 0 0.04 -0.04 0.04 l-0.04 0.02 l0.06 0.1 l-0.06 0 c-0.02 0 -0.04 0 -0.04 0.02 s0.06 0.06 0.12 0.06 c0.06 0.02 0.1 0.06 0.1 0.08 s-0.02 0.04 -0.06 0.04 l-0.1 0.02 c0 0.02 0.02 0.02 0.08 0.04 c0.1 0.02 0.16 0.08 0.16 0.1 s-0.02 0.04 -0.06 0.04 l-0.1 0 c-0.04 0 -0.12 0.02 -0.14 0.04 s-0.04 0.02 -0.1 0.02 l-0.22 -0.02 l-0.26 -0.06 l-0.02 0.02 l-0.02 0.34 l-0.04 0.32 c0 0.2 -0.22 2.4 -0.28 2.78 l-0.1 1.5 l0 0.1 c0 0.08 0 0.3 -0.02 0.48 l-0.02 0.64 c0 0.26 -0.04 0.34 -0.2 0.4 l-0.04 0.02 c0 0.02 0.02 0.02 0.08 0.02 c0.08 0 0.14 0.02 0.14 0.04 l0 0.26 c0 0.34 0 0.92 -0.02 1.04 c-0.02 0.08 -0.02 0.2 -0.02 0.28 l0.02 0.6 l-0.02 1.12 l0.02 0.46 c0 0.08 0 0.2 0.02 0.26 c0 0.04 0 0.32 0.02 0.58 c0 0.6 0.04 1.2 0.08 1.42 l0.02 0.26 c0 0.06 0.02 0.14 0.04 0.18 c0 0.06 -0.02 0.08 -0.06 0.08 l-0.04 0 c-0.02 0 -0.04 0.02 -0.04 0.04 c0 0.04 0.02 0.08 0.08 0.08 c0.04 0.02 0.08 0.1 0.12 0.22 c0.04 0.1 0.1 0.24 0.14 0.28 c0.06 0.06 0.08 0.08 0.08 0.14 l-0.02 0.1 l-0.02 0.2 l0.04 -0.02 l0.06 0.02 l0.02 0.04 l-0.04 0.02 c-0.04 0 -0.1 0.02 -0.12 0.08 z M42.940000000000005 1.8999999999999986 l0.04 -0.02 l-0.06 -0.06 l-0.04 0 l0 0.04 c0 0.02 0.04 0.04 0.06 0.04 z M42.940000000000005 2.379999999999999 l0.02 -0.02 l-0.04 -0.02 c-0.02 0 -0.02 0 -0.02 0.02 l0 0.02 l0.04 0 z M36.040000000000006 2.8599999999999994 c0.02 0 0.04 0 0.04 -0.02 l-0.06 -0.04 l-0.04 -0.02 l0 0.04 c0 0.02 0.04 0.04 0.06 0.04 z M42.620000000000005 2.6400000000000006 l0.04 -0.02 l-0.02 -0.02 l-0.06 0 l0 0.02 z M43.72 2.6400000000000006 l0 -0.02 l-0.02 -0.06 l-0.02 0 l0 0.04 l0.02 0.04 l0.02 0 z M42.92 2.6799999999999997 l0.04 -0.02 l-0.02 -0.02 l-0.06 0 l0 0.02 z M44.06 2.6799999999999997 l0.02 -0.04 l-0.04 -0.04 c-0.02 0 -0.02 0.02 -0.02 0.04 z M44.6 2.6999999999999993 l-0.02 -0.02 l-0.22 0 l-0.02 0.02 l0.26 0 z M44.96 2.8999999999999986 l-0.06 -0.04 c-0.04 -0.02 -0.06 -0.06 -0.06 -0.1 c0 -0.02 0.02 -0.04 0.04 -0.04 l0.18 -0.04 c0.04 -0.02 0.08 -0.02 0.1 -0.02 l0.04 0.02 l0 0.04 l-0.04 0 c-0.04 0 -0.06 0.04 -0.1 0.08 c-0.04 0.06 -0.06 0.1 -0.1 0.1 z M44.080000000000005 3.0199999999999996 c0.06 0 0.12 -0.02 0.12 -0.04 s0 -0.02 -0.04 -0.02 l-0.08 0 c-0.04 0 -0.06 -0.02 -0.08 -0.04 c0 -0.06 -0.04 -0.08 -0.06 -0.08 s-0.04 0.02 -0.04 0.04 l0 0.02 l-0.12 0 l0.08 0.06 c0.06 0.04 0.16 0.06 0.22 0.06 z M42.440000000000005 2.9800000000000004 l0.02 -0.02 c0 -0.02 0 -0.04 -0.02 -0.06 l-0.02 0 l0 0.04 z M42.32000000000001 3.0799999999999983 l0.02 -0.02 l-0.04 -0.06 c-0.02 -0.06 -0.08 -0.08 -0.18 -0.08 c-0.06 0 -0.1 0.02 -0.1 0.02 l0 0.04 l-0.04 0.04 z M42.660000000000004 3.0199999999999996 l0.04 -0.04 c0 -0.04 0 -0.06 -0.02 -0.06 l-0.04 0.06 c0 0.02 0 0.04 0.02 0.04 z M43.06 2.960000000000001 l0.02 -0.02 l-0.04 -0.02 c-0.02 0 -0.02 0 -0.02 0.02 l0 0.02 l0.04 0 z M44.6 2.9200000000000017 l0.02 -0.04 l-0.04 -0.02 c-0.02 0 -0.02 0.02 -0.02 0.02 l0 0.02 z M41.7 3.16 l0.02 -0.02 l-0.04 -0.1 c0 -0.02 0.02 -0.04 0.08 -0.04 c0.04 0 0.08 0 0.08 -0.02 l-0.06 0 c-0.04 -0.02 -0.06 -0.02 -0.1 -0.02 c-0.04 0.02 -0.08 0.04 -0.08 0.08 l0.02 0.04 c0.02 0.04 0.06 0.08 0.08 0.08 z M41.440000000000005 3.1999999999999993 c0.04 0 0.1 -0.04 0.1 -0.1 c-0.02 -0.06 -0.04 -0.08 -0.1 -0.08 s-0.12 0.06 -0.12 0.1 c0 0.02 0.02 0.04 0.04 0.06 s0.04 0.02 0.08 0.02 z M41.160000000000004 3.1799999999999997 l0 -0.08 c-0.02 -0.04 -0.04 -0.06 -0.06 -0.06 l0 0.02 c-0.02 0 -0.02 0.02 -0.02 0.04 l0.02 0.04 z M40.74 3.1799999999999997 c0.02 0 0.06 -0.02 0.06 -0.04 s0 -0.04 -0.04 -0.04 c-0.02 0 -0.04 0.02 -0.06 0.04 l0.02 0.04 l0.02 0 z M40.38 3.1999999999999993 l0.04 -0.02 c0.02 -0.02 0.04 -0.04 0.04 -0.06 s-0.02 -0.02 -0.02 -0.02 c-0.02 0 -0.04 0.02 -0.06 0.04 l-0.02 0.04 z M40.96 3.1799999999999997 l0 -0.04 l-0.02 -0.04 l-0.02 0 l0 0.04 z M38.480000000000004 3.2600000000000016 l-0.02 -0.02 l-0.04 -0.02 s-0.02 0 -0.02 0.02 l0 0.02 l0.08 0 z M43.84 3.0799999999999983 c0.04 0 0.06 -0.02 0.06 -0.02 c-0.02 -0.02 -0.04 -0.02 -0.06 -0.02 l-0.06 0.02 c0 0.02 0.02 0.02 0.06 0.02 z M44.040000000000006 3.1799999999999997 c0.02 0 0.04 -0.02 0.04 -0.06 c-0.02 -0.02 -0.04 -0.04 -0.08 -0.04 c-0.02 0 -0.02 0 -0.02 0.02 l0 0.02 c0 0.04 0.04 0.06 0.06 0.06 z M40.14 3.3599999999999994 l0.04 -0.06 c0 -0.02 -0.02 -0.04 -0.04 -0.04 c-0.04 0 -0.04 0.02 -0.04 0.04 c0 0.04 0.02 0.06 0.04 0.06 z M39.300000000000004 3.379999999999999 l0.04 -0.02 l-0.06 -0.02 s-0.02 0 -0.02 0.02 l0 0.02 l0.04 0 z M43.22 3.3000000000000007 l0.08 -0.02 l-0.14 -0.06 l-0.02 0.04 c0 0.02 0.04 0.04 0.08 0.04 z M39.7 3.4200000000000017 c0.04 0 0.06 -0.02 0.06 -0.02 l0 -0.02 l-0.06 -0.04 c-0.02 0 -0.04 0 -0.04 0.02 l-0.06 0.04 c0 0.02 0.04 0.02 0.1 0.02 z M41.96 3.4200000000000017 l0.06 -0.04 c0 -0.02 -0.02 -0.04 -0.06 -0.06 l-0.08 -0.04 c-0.04 0 -0.04 0 -0.06 0.02 l0 0.02 c0 0.04 0.06 0.1 0.14 0.1 z M38.34 3.460000000000001 l0.04 -0.02 l-0.04 -0.02 l-0.04 0.02 c0 0.02 0.02 0.02 0.04 0.02 z M32.02 3.7399999999999984 l0.04 -0.02 l-0.02 -0.02 l-0.04 -0.02 l-0.02 0.04 z M40.940000000000005 3.4200000000000017 l0 -0.02 l-0.04 -0.02 l-0.04 0.02 c0 0.02 0.02 0.02 0.04 0.02 l0.04 0 z M42.64 3.460000000000001 c-0.02 0 -0.02 -0.02 -0.02 -0.04 l0.04 -0.06 c0.02 0 0.02 0.02 0.02 0.06 z M38.46 3.6000000000000014 l0.02 -0.04 l-0.04 -0.04 c-0.02 0 -0.02 0.02 -0.02 0.04 c0.02 0.04 0.04 0.04 0.04 0.04 z M37.64 3.6799999999999997 c0.02 0 0.06 -0.02 0.06 -0.04 s-0.02 -0.06 -0.08 -0.06 c0 -0.02 -0.02 -0.02 -0.02 -0.02 c-0.04 0 -0.04 0.02 -0.04 0.06 c0.02 0.04 0.06 0.06 0.08 0.06 z M38.28 3.66 c0.02 0 0.04 -0.02 0.04 -0.04 c0 -0.04 0 -0.06 -0.04 -0.06 c-0.02 0 -0.04 0.02 -0.04 0.06 z M37.480000000000004 3.6400000000000006 l0.04 -0.02 l-0.02 -0.02 l-0.04 0 s-0.02 0 -0.02 0.02 z M38.040000000000006 3.719999999999999 c0.04 0 0.06 -0.02 0.06 -0.04 l0 -0.02 c-0.04 -0.02 -0.08 -0.04 -0.12 -0.04 s-0.06 0.02 -0.06 0.06 c0.02 0.02 0.06 0.04 0.12 0.04 z M39.42 3.66 l0.08 -0.02 l0 -0.02 c0 -0.04 -0.04 -0.04 -0.08 -0.04 s-0.06 0.02 -0.08 0.04 c0 0.02 0.04 0.04 0.08 0.04 z M43.24 3.66 c-0.08 0 -0.16 -0.02 -0.24 -0.04 l-0.14 -0.04 c-0.04 0 -0.04 0 -0.06 0.04 c0 0.02 -0.02 0.02 -0.04 0.02 l-0.04 -0.02 l-0.04 -0.04 l0.02 0 l0.06 -0.02 c0.04 -0.04 0.22 -0.1 0.3 -0.1 c0.02 0 0.04 0 0.04 0.02 c0.02 0.02 0.12 0.02 0.24 0.02 l0.2 -0.02 c0.14 0 0.26 0.04 0.28 0.08 c0 0.04 -0.04 0.06 -0.1 0.06 s-0.2 0 -0.32 0.02 z M37.220000000000006 3.84 l-0.02 -0.06 c0 -0.04 -0.06 -0.08 -0.1 -0.08 s-0.08 0.04 -0.08 0.06 l0.04 0.02 l0.04 0 l0.06 0.02 z M41.580000000000005 3.879999999999999 l-0.08 0 c-0.06 0 -0.08 -0.02 -0.1 -0.08 l0 -0.04 c0 -0.02 0 -0.04 0.02 -0.04 l0.04 0 c0.08 0 0.2 -0.08 0.22 -0.14 c0.02 0 0.02 -0.02 0.06 -0.02 c0.06 0 0.18 0.04 0.18 0.08 c0 0.02 0.06 0.04 0.14 0.04 s0.12 0 0.12 0.02 l-0.04 0.04 c0 0.02 0.02 0.02 0.08 0.04 l0.04 0.02 l-0.2 0 l-0.18 0.02 l-0.04 -0.02 l0.16 -0.06 l-0.08 0 c-0.08 0 -0.16 0.02 -0.18 0.06 s-0.1 0.08 -0.16 0.08 z M38.74 3.8000000000000007 c0.02 0 0.04 -0.02 0.04 -0.06 l-0.04 -0.04 c-0.02 0 -0.04 0.02 -0.04 0.04 l0 0.02 c0 0.02 0.02 0.04 0.04 0.04 z M30.42 4.039999999999999 l0.02 -0.02 l0 -0.02 l-0.04 -0.02 c-0.02 0 -0.02 0.02 -0.02 0.02 l0 0.02 z M36.1 4 l0.06 -0.12 l-0.02 -0.06 l-0.1 0 c-0.02 0.02 -0.04 0.02 -0.04 0.04 l0.04 0.1 c0.02 0.02 0.04 0.04 0.06 0.04 z M36.46 3.9400000000000013 c0.04 0 0.06 -0.02 0.06 -0.06 l0 -0.02 c0 -0.02 -0.06 -0.04 -0.12 -0.04 c-0.08 0 -0.1 0 -0.1 0.02 l0.04 0.06 z M37.440000000000005 3.879999999999999 l0 -0.04 c0 -0.02 -0.04 -0.04 -0.06 -0.04 l-0.04 0.02 l0.02 0.02 z M36.580000000000005 4.02 c0.02 0 0.04 -0.04 0.06 -0.1 l0.04 -0.06 c-0.02 0 -0.02 0.02 -0.06 0.04 l-0.06 0.1 c0 0.02 0 0.02 0.02 0.02 z M38.2 3.8999999999999986 c0.04 0 0.08 -0.02 0.12 -0.04 l0.02 -0.04 c0 -0.02 -0.02 -0.02 -0.06 -0.02 c-0.06 0.02 -0.12 0.04 -0.14 0.06 l0 0.02 c0 0.02 0.02 0.02 0.06 0.02 z M40.96 3.7600000000000016 c0.04 0 0.06 -0.02 0.06 -0.02 c-0.02 -0.02 -0.06 -0.02 -0.08 -0.02 s-0.04 0 -0.04 0.02 l-0.02 0.02 l0.08 0 z M35.800000000000004 4 c0.08 -0.02 0.12 -0.04 0.12 -0.06 s-0.02 -0.02 -0.04 -0.02 l-0.08 0 c-0.06 0.02 -0.1 0.04 -0.1 0.06 c0 0 0.04 0.02 0.1 0.02 z M35.34 4.1 l0.02 -0.02 l0 -0.02 c0 -0.04 -0.02 -0.06 -0.02 -0.06 c-0.02 0 -0.04 0.04 -0.04 0.06 l0 0.02 z M37 4.1 c0.02 0 0.04 -0.02 0.04 -0.06 c0 -0.02 0 -0.04 -0.04 -0.04 c-0.02 0 -0.04 0.02 -0.04 0.04 z M35.580000000000005 4.26 c0.08 0 0.2 -0.06 0.2 -0.12 c0 -0.04 -0.06 -0.04 -0.12 -0.04 l-0.06 0.02 l0.02 0.04 c0 0.02 -0.02 0.04 -0.04 0.04 l-0.04 0.02 l0 0.02 z M37.2 4.08 l0 -0.02 l-0.04 -0.02 c-0.02 0 -0.02 0 -0.02 0.02 l0 0.02 l0.06 0 z M40.160000000000004 4.02 l-0.1 0 l0.02 -0.02 l0.18 0 c0 0.02 -0.04 0.02 -0.1 0.02 z M38.080000000000005 4.18 l-0.02 0 l-0.06 -0.02 l-0.02 -0.04 l0.02 -0.04 l0.04 0 l0.04 0.02 l0.02 0.04 z M36.56 4.199999999999999 c0.06 0 0.1 -0.02 0.1 -0.04 l-0.04 -0.02 l-0.08 0 c-0.06 0.02 -0.12 0.04 -0.12 0.06 l0.14 0 z M39.84 4.08 l-0.24 0 l0.02 -0.02 l0.2 0 c0.02 0 0.02 0 0.02 0.02 z M37.32 4.32 l-0.12 0 l0.02 -0.02 c0.02 -0.02 0.04 -0.02 0.06 -0.02 l0.04 0.02 l0 0.02 z M36.6 4.42 c0.06 0 0.16 -0.04 0.16 -0.08 l-0.02 -0.02 c-0.02 -0.02 -0.04 -0.02 -0.06 -0.02 l-0.1 0.02 c-0.06 0.02 -0.08 0.04 -0.08 0.06 z M32.540000000000006 4.720000000000001 l0.5 -0.08 c0.16 -0.02 0.26 -0.04 0.26 -0.08 c0 -0.02 -0.04 -0.04 -0.08 -0.06 l-0.08 -0.04 c-0.02 0 -0.04 0 -0.06 0.02 c-0.04 0.06 -0.1 0.06 -0.46 0.12 c-0.12 0.02 -0.18 0.06 -0.18 0.08 s0.04 0.04 0.1 0.04 z M33.400000000000006 4.5600000000000005 l0.04 -0.06 c0 -0.02 0 -0.04 -0.02 -0.04 l-0.04 0.06 c0 0.02 0 0.04 0.02 0.04 z M36.46 4.5600000000000005 c0.04 -0.02 0.06 -0.02 0.06 -0.04 s-0.04 -0.04 -0.06 -0.04 s-0.06 0 -0.06 0.02 l0 0.02 c0 0.02 0.02 0.04 0.06 0.04 z M36.080000000000005 4.699999999999999 l-0.08 0 l0 -0.02 c0 -0.02 0.02 -0.02 0.02 -0.02 c0.02 0 0.04 0 0.04 0.02 z M36.32 4.74 l-0.06 0 l0.02 -0.02 l0.04 -0.02 c0.02 0 0.04 0 0.06 0.02 c0 0.02 -0.02 0.02 -0.06 0.02 z M31.980000000000004 4.9 l0.06 -0.02 l-0.02 -0.02 l-0.12 0 l0 0.02 s0.02 0.02 0.08 0.02 z M31.660000000000004 5.02 l0.04 -0.02 l0.02 -0.04 c0 -0.02 -0.02 -0.04 -0.04 -0.06 l-0.04 -0.02 l-0.02 0 c-0.02 0 -0.04 0.02 -0.04 0.04 l0.02 0.06 c0.02 0.04 0.04 0.04 0.06 0.04 z M31.42 5.02 c0.02 0 0.06 -0.02 0.06 -0.06 l0 -0.02 c0 -0.02 0 -0.02 -0.02 -0.02 c-0.04 0 -0.06 0.02 -0.08 0.04 c0 0.04 0.02 0.06 0.04 0.06 z M30.820000000000004 5.08 l0.04 -0.02 l-0.06 -0.02 s-0.02 0 -0.02 0.02 l0 0.02 l0.04 0 z M33.36000000000001 5.34 c0.02 0 0.04 -0.02 0.04 -0.04 l-0.04 -0.08 c0 -0.02 0 -0.02 0.02 -0.02 l0.02 -0.04 l0 -0.02 c0 -0.02 -0.1 -0.04 -0.18 -0.04 c-0.1 0 -0.14 0 -0.14 0.02 l0.08 0.04 c0.06 0.02 0.12 0.06 0.14 0.1 c0 0.04 0.04 0.08 0.06 0.08 z M32.92 5.26 c0.02 0 0.04 -0.02 0.04 -0.06 l0 -0.04 c-0.02 0 -0.04 0.02 -0.04 0.04 l-0.02 0.04 z M31.660000000000004 5.539999999999999 c0.02 0 0.04 -0.02 0.04 -0.04 l0 -0.02 l-0.08 -0.04 c-0.02 0 -0.04 0.02 -0.04 0.06 c0 0.02 0.02 0.04 0.08 0.04 z M31.940000000000005 5.539999999999999 l0.04 -0.06 c0 -0.02 -0.02 -0.04 -0.04 -0.04 s-0.04 0.02 -0.04 0.04 z M33 5.5 l-0.04 -0.02 c0 -0.02 0.04 -0.04 0.1 -0.06 l0.04 0 c0.02 0 0.02 0.02 0.02 0.02 c0 0.02 -0.06 0.06 -0.12 0.06 z M32.7 5.5600000000000005 l-0.04 -0.02 l0.02 -0.04 l0.04 0.02 l0.02 0.02 z M30.780000000000005 5.74 l0.08 -0.02 c0.04 0 0.08 -0.02 0.08 -0.04 c0 0 -0.04 -0.02 -0.1 -0.02 c-0.04 0 -0.08 0.02 -0.08 0.04 z M31.080000000000002 5.699999999999999 l-0.02 -0.02 c0 -0.02 -0.02 -0.02 -0.02 -0.02 l-0.04 0.02 c0 0.02 0.02 0.02 0.04 0.02 l0.04 0 z M35.720000000000006 5.68 l-0.04 0 c-0.02 0 -0.04 -0.02 -0.06 -0.04 l-0.02 -0.02 c0 -0.02 0.02 -0.02 0.04 -0.02 c0.04 0 0.1 0.02 0.12 0.04 l0 0.02 z M35.42 5.699999999999999 c-0.04 0 -0.06 -0.02 -0.06 -0.04 l0.08 0 l0 0.02 z M31.320000000000004 5.84 l0.04 -0.02 l-0.04 -0.02 l-0.04 0.02 c0 0.02 0.02 0.02 0.04 0.02 z M34.980000000000004 5.76 c0 -0.02 0 -0.06 -0.02 -0.08 l-0.02 0 l-0.02 0.02 l0.02 0.02 c0 0.04 0.02 0.04 0.04 0.04 z M30.900000000000002 6 c-0.02 0 -0.04 0 -0.04 -0.02 l0.02 0 c0 -0.02 0.02 -0.02 0.04 -0.02 s0.04 0 0.04 0.02 c0 0 -0.02 0.02 -0.06 0.02 z M30.200000000000003 6.119999999999999 c0.04 0 0.04 -0.02 0.04 -0.04 c-0.02 -0.04 -0.08 -0.04 -0.14 -0.04 l-0.06 0 c0 0.02 0.02 0.02 0.04 0.04 z M34.96 6.199999999999999 c0 -0.02 0 -0.06 -0.04 -0.1 c0 -0.02 -0.02 -0.02 -0.02 -0.02 l0 0.04 c0.02 0.06 0.04 0.08 0.06 0.08 z M34.88 6.779999999999999 l0.02 -0.02 l-0.02 -0.02 c0 -0.02 -0.02 -0.04 -0.06 -0.04 l-0.02 0.02 z M34.86 7.16 c0 -0.02 0 -0.04 -0.02 -0.06 l-0.04 0 l0 0.04 l0.04 0.02 l0.02 0 z M34.82 7.42 l0.04 -0.04 c0 -0.04 0 -0.06 -0.02 -0.06 l-0.04 0.06 c0 0.02 0 0.04 0.02 0.04 z M34.7 8.44 c0.02 0 0.04 0 0.04 -0.02 l-0.02 0 c0 -0.02 -0.02 -0.02 -0.02 -0.02 l-0.04 0.02 c0 0.02 0.02 0.02 0.04 0.02 z M34.660000000000004 8.98 c0.02 0 0.06 -0.02 0.1 -0.06 l0.02 -0.04 l-0.06 0 c-0.04 0 -0.08 0.02 -0.08 0.06 l0 0.02 c0 0.02 0 0.02 0.02 0.02 z M34.64 9.22 c0.02 0 0.04 -0.02 0.04 -0.04 l-0.04 -0.06 l-0.04 0.06 c0 0.02 0.02 0.04 0.04 0.04 z M34.720000000000006 9.7 l-0.02 -0.12 c-0.02 -0.08 -0.04 -0.1 -0.06 -0.1 l-0.04 0.04 l-0.04 0.08 c0 0.02 0.02 0.04 0.04 0.04 l0.04 -0.02 l0.04 0.04 c0 0.02 0.02 0.04 0.04 0.04 z M34.620000000000005 9.9 l0.06 -0.08 l0.02 -0.06 s-0.02 0 -0.04 0.04 l-0.06 0.08 c0 0.02 0 0.02 0.02 0.02 z M34.580000000000005 10.38 c0 -0.02 0 -0.06 -0.02 -0.08 l-0.02 0 l-0.02 0.02 l0.04 0.06 l0.02 0 z M34.580000000000005 10.72 c0 -0.02 0 -0.06 -0.02 -0.08 l-0.02 0 l0 0.04 l0.02 0.04 l0.02 0 z M34.52 11.26 l0.02 -0.04 l-0.02 -0.04 l-0.02 0 l0 0.04 z M34.6 11.56 l0.02 -0.02 l-0.04 -0.08 c-0.06 -0.04 -0.08 -0.1 -0.08 -0.12 l0.02 0 l-0.02 0 l-0.02 0.04 c0 0.06 0.06 0.18 0.12 0.18 z M34.400000000000006 11.6 c0 -0.02 0 -0.06 -0.02 -0.1 l-0.04 -0.02 l0.02 0.06 c0 0.04 0.02 0.06 0.02 0.06 l0.02 0 z M34.540000000000006 11.78 l0 -0.02 l-0.02 -0.06 l-0.02 -0.02 l0 0.04 z M33.900000000000006 13.26 l0.02 -0.04 c0.02 -0.04 0.02 -0.08 0.02 -0.1 s-0.02 -0.02 -0.02 -0.02 l-0.04 0 c-0.02 0.02 -0.02 0.08 -0.02 0.12 c0.02 0.02 0.02 0.04 0.04 0.04 z M34.46 13.34 l0.04 -0.14 c-0.02 -0.02 -0.02 -0.04 -0.04 -0.04 s-0.04 0.04 -0.04 0.1 c0.02 0.06 0.02 0.08 0.04 0.08 z M34.56 13.68 l-0.02 -0.08 c-0.02 -0.08 -0.06 -0.1 -0.08 -0.1 l-0.02 0.02 l0.02 0.04 c0 0.06 0.08 0.12 0.1 0.12 z M33.96 13.6 l0 -0.02 c0 -0.02 0 -0.04 -0.02 -0.04 c0 -0.02 0 -0.02 -0.02 -0.02 l0.02 0.08 l0.02 0 z M34.440000000000005 13.82 l0.04 -0.02 l0.02 -0.06 l-0.02 -0.02 c-0.02 0 -0.04 0.02 -0.04 0.06 l0 0.04 z M34.46 14.08 c0.02 0 0.04 -0.04 0.04 -0.08 s0 -0.04 -0.02 -0.04 c-0.04 0.02 -0.04 0.04 -0.04 0.08 z M33.88 14.1 c0.02 0 0.04 -0.02 0.04 -0.06 l-0.04 -0.04 l-0.04 0.06 c0 0.02 0.02 0.04 0.04 0.04 z M34.02 14.04 c0.02 0 0.02 -0.02 0.02 -0.02 l-0.04 -0.02 c-0.02 0 -0.02 0 -0.02 0.02 l0 0.02 l0.04 0 z M34.24 14.18 l0.08 -0.06 c0.04 -0.02 0.06 -0.06 0.06 -0.08 l-0.02 0 c-0.02 0 -0.06 0.02 -0.08 0.06 z M34.540000000000006 14.76 c0 0 0.02 -0.02 0.02 -0.06 l0 -0.02 s-0.02 -0.02 -0.06 -0.02 c-0.02 0 -0.04 0 -0.04 0.02 l0.02 0.02 c0.02 0.04 0.04 0.06 0.06 0.06 z M34.480000000000004 14.879999999999999 l-0.02 -0.08 l-0.02 -0.02 l0.02 0.1 l0.02 0 z M34 15.2 l0 -0.02 l-0.06 -0.04 l-0.04 -0.02 l0.02 0.04 c0.02 0.04 0.06 0.04 0.06 0.04 l0.02 0 z M34.480000000000004 15.379999999999999 l0 -0.02 l-0.02 -0.06 l-0.02 0 l0 0.04 c0 0.04 0.02 0.04 0.04 0.04 z M34.46 15.68 l0.02 -0.08 c0 -0.04 0 -0.06 -0.04 -0.06 c-0.02 0 -0.02 0 -0.02 0.02 l0 0.04 c0.02 0.04 0.02 0.08 0.04 0.08 z M34.5 16.02 c0.02 0 0.04 -0.04 0.04 -0.08 s-0.02 -0.06 -0.04 -0.06 c-0.04 0 -0.04 0.02 -0.04 0.06 z M34.040000000000006 16.18 c0.04 0 0.06 -0.02 0.06 -0.06 l0.02 -0.02 l-0.02 0 l-0.04 0.02 c-0.04 0.02 -0.06 0.02 -0.06 0.04 s0.02 0.02 0.04 0.02 z M34.040000000000006 16.36 c0 -0.02 0 -0.06 -0.02 -0.1 l-0.04 -0.02 c0 0.02 0 0.04 0.02 0.06 c0 0.04 0.02 0.06 0.02 0.06 l0.02 0 z M34.52 16.4 c0.02 0 0.04 -0.02 0.04 -0.04 l0 -0.02 c0 -0.02 -0.02 -0.04 -0.04 -0.06 l-0.02 0 c-0.02 0 -0.02 0.02 -0.02 0.06 c0.02 0.04 0.02 0.06 0.04 0.06 z M34.02 17.4 c0.02 0 0.04 -0.04 0.04 -0.06 c-0.02 -0.02 -0.04 -0.04 -0.08 -0.04 c-0.02 0 -0.02 0 -0.02 0.02 l0 0.02 c0 0.04 0.04 0.06 0.06 0.06 z M34.580000000000005 17.740000000000002 l0.02 -0.04 l-0.04 -0.02 c-0.02 0 -0.02 0 -0.02 0.04 z M34.68000000000001 17.740000000000002 l0 -0.02 l-0.02 -0.04 l-0.02 0 l0 0.04 z M34.480000000000004 17.82 l0.04 -0.02 l-0.02 -0.02 l-0.04 -0.02 l-0.02 0.04 z M34.660000000000004 18.56 c0.02 0 0.04 0 0.06 -0.04 l0.02 -0.06 l-0.04 -0.1 c-0.02 -0.02 -0.02 -0.04 -0.04 -0.04 s-0.02 0.02 -0.04 0.08 l0 0.06 c0 0.06 0.02 0.1 0.04 0.1 z M35.160000000000004 19.92 c-0.04 0 -0.06 0 -0.06 -0.02 l0.02 0 c0.02 -0.02 0.04 -0.02 0.06 -0.02 l0.04 0.02 s-0.02 0.02 -0.06 0.02 z">
        </path>
    </g>
</svg>