<svg xmlns="http://www.w3.org/2000/svg" x="0px" y="0px" width="100" height="100" viewBox="0 0 172 172"
    style=" fill:#000000;">
    <g fill="none" fill-rule="nonzero" stroke="none" stroke-width="1" stroke-linecap="butt" stroke-linejoin="miter"
        stroke-miterlimit="10" stroke-dasharray="" stroke-dashoffset="0" font-family="none" font-weight="none"
        font-size="none" text-anchor="none" style="mix-blend-mode: normal">
        <path d="M0,172v-172h172v172z" fill="none"></path>
        <g>
            <path
                d="M159.27469,24.81234c4.50833,4.53415 6.04286,11.23899 3.95547,17.28269c-2.08738,6.0437 -7.43268,10.37237 -13.77828,11.15778c-0.67088,0.08333 -1.3463,0.12484 -2.02234,0.1243c-4.43007,0.00343 -8.67505,-1.77641 -11.77797,-4.93828c-4.3913,-4.41177 -5.97476,-10.89439 -4.11187,-16.83383h0.00336c1.7611,-5.55984 6.29288,-9.79967 11.95751,-11.18718c5.66463,-1.38751 11.64287,0.27797 15.77413,4.39452z"
                fill="#00efd1"></path>
            <path
                d="M149.45859,53.30992v77.01031h-29.15266v30.23773h-89.94727v-128.95969h101.16422l0.0168,0.00672c-1.86288,5.93944 -0.27942,12.42206 4.11187,16.83383c3.10291,3.16187 7.3479,4.94171 11.77797,4.93828c0.67604,0.00055 1.35146,-0.04097 2.02234,-0.1243z"
                fill="#00acea"></path>
            <path d="M149.45859,130.32023l-29.15266,30.23773v-30.23773z" fill="#fedb41"></path>
            <path d="M126.95078,11.44203v20.15625h-96.59211v108.80344h-22.50781v-128.95969z" fill="#fedb41"></path>
            <path
                d="M147.46313,17.92227c-4.96362,-0.0246 -9.73039,1.93946 -13.23594,5.45361c-1.77584,1.7586 -3.16971,3.86472 -4.09441,6.18662h-1.13278v-18.12047c-0.01408,-1.12368 -0.92547,-2.02909 -2.04922,-2.03578h-119.09992c-1.1418,0.00001 -2.08299,0.8954 -2.13992,2.03578v128.95969c0.05693,1.14038 0.99812,2.03577 2.13992,2.03578h20.36789v18.12047c0.05693,1.14038 0.99812,2.03577 2.13992,2.03578h89.94727c0.5486,-0.00372 1.0722,-0.22994 1.45091,-0.62686l29.16979,-30.24277c0.36687,-0.37593 0.57498,-0.87864 0.58117,-1.40388v-75.37362c3.48391,-0.80043 6.67391,-2.56086 9.20838,-5.08173c5.35621,-5.35364 6.95689,-13.40815 4.05472,-20.40299c-2.90218,-6.99484 -9.73479,-11.55035 -17.30779,-11.53963zM28.21875,31.59828v106.80797h-18.47656v-124.96875h115.22656v16.125h-94.61008c-1.1418,0.00001 -2.08299,0.8954 -2.13992,2.03578zM32.25,33.59375h96.75c-0.88021,5.24787 0.53161,10.6213 3.87773,14.75874l-20.31582,20.32086c-0.78852,0.78722 -0.78957,2.0646 -0.00235,2.85312c0.78722,0.78852 2.0646,0.78957 2.85312,0.00235l20.30843,-20.30809c3.30651,2.70739 7.45071,4.18232 11.72422,4.17268h0.03124v72.93472h-27.17062c-1.11649,-0.01424 -2.03497,0.87572 -2.05594,1.99211v28.24227h-86zM144.71549,132.35938l-22.43424,23.20388v-23.20388zM157.85065,47.01378c-2.32017,2.34679 -5.3656,3.84026 -8.64166,4.23785h-0.00571c-4.48127,0.5532 -8.96432,-1.01394 -12.12499,-4.23852c-3.8449,-3.84873 -5.24707,-9.50769 -3.64391,-14.70634c0.01243,-0.03359 0.02452,-0.06719 0.03527,-0.10448c1.844,-5.79936 7.07538,-9.85937 13.15095,-10.20629c6.07557,-0.34692 11.7351,3.0912 14.22727,8.64296c2.49216,5.55176 1.30002,12.06557 -2.99688,16.37482z"
                fill="#083863"></path>
        </g>
    </g>
</svg>