<?xml version="1.0" encoding="utf-8"?>

<svg width="240" height="210" viewBox="79 0 100 80" class="css-1j8o68f" xmlns='http://www.w3.org/2000/svg'>
    <defs id="SvgjsDefs2503"></defs>
    <rect x="68" width="100%" height="100%" fill="#c34ee8"></rect>
    <g id="SvgjsG2504" featurekey="symbolFeature-0"
        transform="matrix(0.7199544906616211,0,0,0.7199544906616211,84,0.0021598634124240764)" fill="#00ffca">
        <path xmlns="http://www.w3.org/2000/svg" fill-rule="evenodd" clip-rule="evenodd"
            d="M51.447,59.186c0,0-12.542,12.916-18.583,17.829  c-3.561-7.275,2.275-18.726,2.275-18.726L11.535,27.337c0,0-7.694,3.517-11.535,2.013C9.471,19.251,19.254,9.468,29.352-0.003  c1.434,3.76-2.012,11.284-2.012,11.284l30.701,23.856c0,0,11.578-5.927,18.977-2.275c-4.955,5.917-17.83,18.332-17.83,18.332  s27.875,31.665,40.66,48.651c0.352,0.301,0.021,0.098-0.252,0C83.035,86.804,51.447,59.186,51.447,59.186z">
        </path>
    </g>
</svg>