<svg xmlns="http://www.w3.org/2000/svg" x="0px" y="0px" width="100" height="100" viewBox="0 0 172 172"
    style=" fill:#000000;">
    <defs>
        <linearGradient x1="24.90058" y1="24.90058" x2="127.01125" y2="127.01125" gradientUnits="userSpaceOnUse"
            id="color-1_EQ81mUwjgToc_gr1">
            <stop offset="0" stop-color="#fede00"></stop>
            <stop offset="1" stop-color="#ffd000"></stop>
        </linearGradient>
        <linearGradient x1="106.038" y1="106.038" x2="127.82108" y2="127.82108" gradientUnits="userSpaceOnUse"
            id="color-2_EQ81mUwjgToc_gr2">
            <stop offset="0" stop-color="#4b4b4b"></stop>
            <stop offset="1" stop-color="#3b3b3b"></stop>
        </linearGradient>
    </defs>
    <g transform="translate(16.34,16.34) scale(0.81,0.81)">
        <g fill="none" fill-rule="nonzero" stroke="none" stroke-width="none" stroke-linecap="none"
            stroke-linejoin="none" stroke-miterlimit="10" stroke-dasharray="" stroke-dashoffset="0" font-family="none"
            font-weight="none" font-size="none" text-anchor="none" style="mix-blend-mode: normal">
            <path d="M0,172v-172h172v172z" fill="none" stroke="none" stroke-width="1" stroke-linecap="butt"
                stroke-linejoin="miter"></path>
            <g>
                <path
                    d="M103.91667,150.5h-75.25c-3.95958,0 -7.16667,-3.20708 -7.16667,-7.16667v-114.66667c0,-3.95958 3.20708,-7.16667 7.16667,-7.16667h114.66667c3.95958,0 7.16667,3.20708 7.16667,7.16667v75.25z"
                    fill="url(#color-1_EQ81mUwjgToc_gr1)" stroke="none" stroke-width="1" stroke-linecap="butt"
                    stroke-linejoin="miter"></path>
                <path
                    d="M111.08333,103.91667h39.41667l-46.58333,46.58333v-39.41667c0,-3.95958 3.20708,-7.16667 7.16667,-7.16667z"
                    fill="url(#color-2_EQ81mUwjgToc_gr2)" stroke="none" stroke-width="1" stroke-linecap="butt"
                    stroke-linejoin="miter"></path>
                <path d="M46.58333,64.5h78.83333" fill="none" stroke="#e8ba13" stroke-width="7.16667"
                    stroke-linecap="round" stroke-linejoin="round"></path>
                <path d="M46.58333,86h78.83333" fill="none" stroke="#e8ba13" stroke-width="7.16667"
                    stroke-linecap="round" stroke-linejoin="round"></path>
                <path d="M46.58333,107.5h35.83333" fill="none" stroke="#e8ba13" stroke-width="7.16667"
                    stroke-linecap="round" stroke-linejoin="round"></path>
            </g>
        </g>
    </g>
</svg>