<svg xmlns="http://www.w3.org/2000/svg" x="0px" y="0px" width="100" height="100" viewBox="0 0 172 172"
    style=" fill:#000000;">
    <g fill="none" fill-rule="nonzero" stroke="none" stroke-width="1" stroke-linecap="butt" stroke-linejoin="miter"
        stroke-miterlimit="10" stroke-dasharray="" stroke-dashoffset="0" font-family="none" font-weight="none"
        font-size="none" text-anchor="none" style="mix-blend-mode: normal">
        <path d="M0,172v-172h172v172z" fill="none"></path>
        <g>
            <path
                d="M150.0098,97.5412c1.9522,-3.7066 3.0702,-7.9206 3.0702,-12.4012c0,-11.38812 -7.15348,-21.08204 -17.20172,-24.90216c0,-0.01204 0.00172,-0.02408 0.00172,-0.03784c0,-19.94856 -16.17144,-36.12 -36.12,-36.12c-16.82848,0 -30.92732,11.52572 -34.93836,27.10204c-2.53872,-0.8342 -5.24428,-1.30204 -8.06164,-1.30204c-13.23024,0 -24.11956,9.96396 -25.6108,22.79344c-8.95088,1.89372 -15.6692,9.83324 -15.6692,19.34656c0,10.92372 8.85628,19.78 19.78,19.78c0.30444,0 0.60544,-0.02064 0.90472,-0.03784c-0.00688,0.301 -0.04472,0.59512 -0.04472,0.89784c0,19.47384 15.78616,35.26 35.26,35.26c11.07164,0 20.941,-5.11184 27.40648,-13.09608c3.74616,3.827 8.95432,6.21608 14.73352,6.21608c7.998,0 14.91928,-4.558 18.34552,-11.21096c1.80944,0.5762 3.73412,0.89096 5.73448,0.89096c10.449,0 18.92,-8.471 18.92,-18.92c0,-5.69492 -2.5284,-10.78956 -6.5102,-14.2588z"
                fill="#c7ede6"></path>
            <path
                d="M133.3,104.06v0.86h5.16v-0.86c0,0 7.29624,0 9.46,0c4.2742,0 7.74,-3.4658 7.74,-7.74c0,-4.01276 -3.06504,-7.27388 -6.9746,-7.6626c0.03784,-0.31132 0.0946,-0.61576 0.0946,-0.9374c0,-4.2742 -3.4658,-7.74 -7.74,-7.74c-2.47336,0 -4.64916,1.17992 -6.06644,2.98592c-0.2408,-4.53392 -3.95944,-8.14592 -8.55356,-8.14592c-4.74892,0 -8.6,3.85108 -8.6,8.6c0,0.76712 0.13244,1.4964 0.32164,2.20504c-1.10424,-1.33644 -2.75372,-2.20504 -4.62164,-2.20504c-3.06332,0 -5.56248,2.2962 -5.9426,5.2546c-0.31132,-0.03784 -0.61576,-0.0946 -0.9374,-0.0946c-4.2742,0 -7.74,3.4658 -7.74,7.74c0,4.2742 3.4658,7.74 7.74,7.74c4.2742,0 16.34,0 16.34,0z"
                fill="#fdfcef"></path>
            <path
                d="M126.42,73.96c-5.21676,0 -9.46,4.24324 -9.46,9.46c0,0.02752 0,0.05332 0,0.08084c-1.03544,-0.6106 -2.2188,-0.94084 -3.44,-0.94084c-3.14932,0 -5.86692,2.16892 -6.63576,5.1686c-0.08084,-0.00516 -0.16168,-0.0086 -0.24424,-0.0086c-4.74204,0 -8.6,3.85796 -8.6,8.6c0,4.74204 3.85796,8.6 8.6,8.6h26.66c0.47472,0 0.86,-0.38528 0.86,-0.86c0,-0.47472 -0.38528,-0.86 -0.86,-0.86h-26.66c-3.79432,0 -6.88,-3.08568 -6.88,-6.88c0,-3.79432 3.08568,-6.88 6.88,-6.88c0.20124,0 0.3956,0.02924 0.58996,0.05504l0.24252,0.03268c0.03612,0.00516 0.07052,0.00688 0.10664,0.00688c0.42312,0 0.79464,-0.3182 0.8514,-0.75164c0.32852,-2.56796 2.51636,-4.50296 5.08948,-4.50296c1.5222,0 2.96356,0.68972 3.95772,1.892c0.16856,0.20296 0.41452,0.31304 0.66392,0.31304c0.13416,0 0.26832,-0.03096 0.39216,-0.09632c0.35948,-0.18404 0.54008,-0.59512 0.43688,-0.98556c-0.1978,-0.7482 -0.29068,-1.37772 -0.29068,-1.98316c0,-4.26732 3.47268,-7.74 7.74,-7.74c4.09532,0 7.47684,3.21984 7.69528,7.33236c0.01892,0.35776 0.258,0.66564 0.60028,0.774c0.086,0.02752 0.17372,0.04128 0.26144,0.04128c0.258,0 0.50912,-0.11868 0.67424,-0.33024c1.32612,-1.68904 3.28864,-2.6574 5.38876,-2.6574c3.79432,0 6.88,3.08568 6.88,6.88c0,0.20124 -0.02924,0.3956 -0.05504,0.58996l-0.03268,0.24252c-0.02752,0.23048 0.03784,0.46096 0.18232,0.64156c0.14448,0.1806 0.35604,0.29584 0.5848,0.3182c3.53632,0.3526 6.2006,3.28004 6.2006,6.80776c0,3.79432 -3.08568,6.88 -6.88,6.88h-9.46c-0.47472,0 -0.86,0.38528 -0.86,0.86c0,0.47472 0.38528,0.86 0.86,0.86h9.46c4.74204,0 8.6,-3.85796 8.6,-8.6c0,-4.12284 -2.90508,-7.59036 -6.88516,-8.38844c0.00344,-0.07052 0.00516,-0.14104 0.00516,-0.21156c0,-4.74204 -3.85796,-8.6 -8.6,-8.6c-2.02272,0 -3.94396,0.71552 -5.47476,2.00208c-1.02856,-4.13488 -4.75064,-7.16208 -9.14524,-7.16208z"
                fill="#472b29"></path>
            <path
                d="M123.84,86c-2.41316,0 -4.48748,1.71828 -5.01036,4.02652c-0.63124,-0.38184 -1.35192,-0.58652 -2.08464,-0.58652c-2.06744,0 -3.78056,1.54284 -4.04716,3.55696c-0.34916,-0.07912 -0.68112,-0.11696 -1.00448,-0.11696c-2.62988,0 -4.83492,2.064 -5.01896,4.69904c-0.0172,0.23736 0.16168,0.44376 0.39732,0.46096c0.01032,0 0.02064,0 0.03096,0c0.2236,0 0.4128,-0.17372 0.42828,-0.39904c0.15308,-2.18612 1.97972,-3.90096 4.16068,-3.90096c0.39388,0 0.8084,0.07224 1.26936,0.21844c0.03784,0.01204 0.0774,0.0172 0.11524,0.0172c0.0946,0 0.1892,-0.0344 0.26832,-0.09288c0.11008,-0.07912 0.17544,-0.22016 0.17544,-0.35776c0,-1.77848 1.44652,-3.225 3.225,-3.225c0.76884,0 1.5222,0.28896 2.11732,0.81356c0.08084,0.07052 0.18232,0.10836 0.2838,0.10836c0.05504,0 0.10836,-0.01032 0.15996,-0.03268c0.15136,-0.0602 0.25456,-0.20124 0.2666,-0.36464c0.17888,-2.22396 2.05196,-3.9646 4.26732,-3.9646c0.35776,0 0.731,0.05848 1.17304,0.18404c0.03956,0.01204 0.08084,0.0172 0.1204,0.0172c0.18748,0 0.35604,-0.12556 0.41108,-0.31304c0.06536,-0.22876 -0.06708,-0.46612 -0.29584,-0.53148c-0.51944,-0.14792 -0.96836,-0.21672 -1.40868,-0.21672zM147.71876,88.58c-2.28072,0 -4.31376,1.54284 -4.94328,3.75304c-0.06536,0.22876 0.06708,0.46612 0.29584,0.53148c0.04128,0.01032 0.08084,0.01548 0.11868,0.01548c0.18748,0 0.35948,-0.12384 0.4128,-0.31304c0.5246,-1.8404 2.21708,-3.12696 4.11596,-3.12696c0.20124,0 0.3956,0.02408 0.58824,0.04988c0.02064,0.00344 0.03956,0.00516 0.0602,0.00516c0.20812,0 0.39388,-0.15824 0.42312,-0.37324c0.03268,-0.23564 -0.13244,-0.45236 -0.36808,-0.48332c-0.23048,-0.03096 -0.4644,-0.05848 -0.70348,-0.05848z"
                fill="#472b29"></path>
            <path
                d="M26.66,87.72h-17.2c-0.47472,0 -0.86,-0.38528 -0.86,-0.86c0,-0.47472 0.38528,-0.86 0.86,-0.86h17.2c0.47472,0 0.86,0.38528 0.86,0.86c0,0.47472 -0.38356,0.86 -0.86,0.86zM31.82,87.72h-1.72c-0.47472,0 -0.86,-0.38528 -0.86,-0.86c0,-0.47472 0.38528,-0.86 0.86,-0.86h1.72c0.47472,0 0.86,0.38528 0.86,0.86c0,0.47472 -0.38356,0.86 -0.86,0.86zM40.40452,91.16h-15.46452c-0.47472,0 -0.86,-0.38528 -0.86,-0.86c0,-0.47472 0.38528,-0.86 0.86,-0.86h15.46452c0.47472,0 0.86,0.38528 0.86,0.86c0,0.47472 -0.38528,0.86 -0.86,0.86zM21.5,91.16h-1.72c-0.47472,0 -0.86,-0.38528 -0.86,-0.86c0,-0.47472 0.38528,-0.86 0.86,-0.86h1.72c0.47472,0 0.86,0.38528 0.86,0.86c0,0.47472 -0.38356,0.86 -0.86,0.86zM16.34,91.16h-3.44c-0.47472,0 -0.86,-0.38528 -0.86,-0.86c0,-0.47472 0.38528,-0.86 0.86,-0.86h3.44c0.47472,0 0.86,0.38528 0.86,0.86c0,0.47472 -0.38356,0.86 -0.86,0.86zM26.66,94.6h-3.44c-0.47472,0 -0.86,-0.38528 -0.86,-0.86c0,-0.47472 0.38528,-0.86 0.86,-0.86h3.44c0.47472,0 0.86,0.38528 0.86,0.86c0,0.47472 -0.38528,0.86 -0.86,0.86zM31.82,79.12c-0.30444,0 -1.41556,0 -1.72,0c-0.47472,0 -0.86,0.38528 -0.86,0.86c0,0.47472 0.38528,0.86 0.86,0.86c0.30444,0 1.41556,0 1.72,0c0.47472,0 0.86,-0.38528 0.86,-0.86c0,-0.47472 -0.38528,-0.86 -0.86,-0.86zM31.82,82.56c-0.30444,0 -8.29556,0 -8.6,0c-0.47472,0 -0.86,0.38528 -0.86,0.86c0,0.47472 0.38528,0.86 0.86,0.86c0.30444,0 8.29556,0 8.6,0c0.47472,0 0.86,-0.38528 0.86,-0.86c0,-0.47472 -0.38528,-0.86 -0.86,-0.86zM40.42,86c-0.30444,0 -4.85556,0 -5.16,0c-0.47472,0 -0.86,0.38528 -0.86,0.86c0,0.47472 0.38528,0.86 0.86,0.86c0.30444,0 4.85556,0 5.16,0c0.47472,0 0.86,-0.38528 0.86,-0.86c0,-0.47472 -0.38528,-0.86 -0.86,-0.86zM124.7,41.28h-17.2c-0.47472,0 -0.86,-0.38528 -0.86,-0.86c0,-0.47472 0.38528,-0.86 0.86,-0.86h17.2c0.47472,0 0.86,0.38528 0.86,0.86c0,0.47472 -0.38528,0.86 -0.86,0.86zM131.58,41.28h-3.44c-0.47472,0 -0.86,-0.38528 -0.86,-0.86c0,-0.47472 0.38528,-0.86 0.86,-0.86h3.44c0.47472,0 0.86,0.38528 0.86,0.86c0,0.47472 -0.38528,0.86 -0.86,0.86zM140.18,44.72h-17.2c-0.47472,0 -0.86,-0.38528 -0.86,-0.86c0,-0.47472 0.38528,-0.86 0.86,-0.86h17.2c0.47472,0 0.86,0.38528 0.86,0.86c0,0.47472 -0.38356,0.86 -0.86,0.86zM119.54,44.72h-1.72c-0.47472,0 -0.86,-0.38528 -0.86,-0.86c0,-0.47472 0.38528,-0.86 0.86,-0.86h1.72c0.47472,0 0.86,0.38528 0.86,0.86c0,0.47472 -0.38528,0.86 -0.86,0.86zM114.3284,44.72h-3.3884c-0.47472,0 -0.86,-0.38528 -0.86,-0.86c0,-0.47472 0.38528,-0.86 0.86,-0.86h3.3884c0.47472,0 0.86,0.38528 0.86,0.86c0,0.47472 -0.38528,0.86 -0.86,0.86zM129.86,37.84h-8.6c-0.47472,0 -0.86,-0.38528 -0.86,-0.86c0,-0.47472 0.38528,-0.86 0.86,-0.86h8.6c0.47472,0 0.86,0.38528 0.86,0.86c0,0.47472 -0.38356,0.86 -0.86,0.86zM124.7,48.16h-3.44c-0.47472,0 -0.86,-0.38528 -0.86,-0.86c0,-0.47472 0.38528,-0.86 0.86,-0.86h3.44c0.47472,0 0.86,0.38528 0.86,0.86c0,0.47472 -0.38528,0.86 -0.86,0.86z"
                fill="#ffffff"></path>
            <g>
                <path
                    d="M89.44,46.01c-22.08587,0 -39.99,17.90413 -39.99,39.99c0,22.08587 17.90413,39.99 39.99,39.99c22.08587,0 39.99,-17.90413 39.99,-39.99c0,-22.08587 -17.90413,-39.99 -39.99,-39.99z"
                    fill="#60be92"></path>
                <path
                    d="M89.44,127.194c-22.71432,0 -41.194,-18.47968 -41.194,-41.194c0,-22.71432 18.47968,-41.194 41.194,-41.194c22.71432,0 41.194,18.47968 41.194,41.194c0,22.71432 -18.47968,41.194 -41.194,41.194zM89.44,47.214c-21.38648,0 -38.786,17.3978 -38.786,38.786c0,21.3882 17.39952,38.786 38.786,38.786c21.38648,0 38.786,-17.3978 38.786,-38.786c0,-21.3882 -17.39952,-38.786 -38.786,-38.786z"
                    fill="#472b29"></path>
            </g>
            <g fill="#472b29">
                <path
                    d="M121.47156,77.37764c-0.36808,0 -0.70864,-0.23736 -0.82216,-0.60716c-0.14448,-0.473 -0.301,-0.94256 -0.46612,-1.40352c-0.645,-1.80256 -1.46028,-3.55868 -2.42176,-5.22192c-0.23908,-0.41108 -0.09804,-0.9374 0.31304,-1.17476c0.4128,-0.2408 0.9374,-0.09632 1.17476,0.31476c1.01308,1.75268 1.87136,3.6034 2.55076,5.49884c0.17544,0.48676 0.33884,0.98212 0.49364,1.4792c0.13932,0.4558 -0.11524,0.93568 -0.56932,1.075c-0.08428,0.02752 -0.17028,0.03956 -0.25284,0.03956z">
                </path>
            </g>
            <g fill="#472b29">
                <path
                    d="M89.44,120.4602c-19.00084,0 -34.4602,-15.41292 -34.4602,-34.35872c0,-18.94408 15.45764,-34.357 34.4602,-34.357c9.86248,0 19.27088,4.22604 25.81204,11.5928c0.49364,0.55556 0.97008,1.13004 1.42932,1.72c0.29068,0.37496 0.2236,0.91504 -0.14964,1.20572c-0.37324,0.29584 -0.91504,0.22532 -1.20744,-0.15136c-0.43516,-0.559 -0.88752,-1.10424 -1.35708,-1.63228c-6.21608,-7.0004 -15.15492,-11.01488 -24.52548,-11.01488c-18.05312,0 -32.7402,14.64064 -32.7402,32.637c0,17.99636 14.68536,32.63872 32.73848,32.63872c18.05312,0 32.7402,-14.64236 32.7402,-32.63872c0,-1.6426 -0.12384,-3.28864 -0.36636,-4.89512c-0.07052,-0.46956 0.25284,-0.90816 0.7224,-0.97868c0.47128,-0.0774 0.90816,0.25112 0.97868,0.72068c0.25628,1.69076 0.38528,3.42452 0.38528,5.15312c0,18.9458 -15.45936,34.35872 -34.4602,34.35872z">
                </path>
            </g>
            <g>
                <path
                    d="M62.78,128.14c0,0 2.69524,0 6.02,0c3.32476,0 6.02,-2.69524 6.02,-6.02c0,-3.06332 -2.2962,-5.56248 -5.2546,-5.9426c0.04816,-0.30788 0.0946,-0.61576 0.0946,-0.9374c0,-3.32476 -2.69524,-6.02 -6.02,-6.02c-1.77504,0 -3.354,0.7826 -4.4548,2.0038c-0.66048,-3.10976 -3.41764,-5.4438 -6.7252,-5.4438c-3.79948,0 -6.88,3.08052 -6.88,6.88c0,0.32852 0.0516,0.64328 0.09632,0.95976c-0.73616,-0.59168 -1.65808,-0.95976 -2.67632,-0.95976c-2.11216,0 -3.8614,1.52564 -4.2226,3.5346c-0.30788,-0.04816 -0.61576,-0.0946 -0.9374,-0.0946c-3.32476,0 -6.02,2.69524 -6.02,6.02c0,3.32476 2.69524,6.02 6.02,6.02c3.32476,0 12.9,0 12.9,0v0.86h12.04z"
                    fill="#fdfcef"></path>
                <path
                    d="M65.79,120.4c-0.23736,0 -0.43,-0.19264 -0.43,-0.43c0,-2.10356 1.7114,-3.81496 3.81496,-3.81496c0.05848,0.01548 1.26764,-0.00172 2.13968,0.23392c0.22876,0.06192 0.36464,0.29756 0.30272,0.52632c-0.06192,0.23048 -0.29756,0.36636 -0.52632,0.30272c-0.76368,-0.2064 -1.892,-0.2064 -1.91436,-0.20296c-1.63056,0 -2.95668,1.32612 -2.95668,2.95496c0,0.23736 -0.19264,0.43 -0.43,0.43zM54.18,127.28c-0.47496,0 -0.86,0.38504 -0.86,0.86c0,0.47496 0.38504,0.86 0.86,0.86c0.47496,0 0.86,-0.38504 0.86,-0.86c0,-0.47496 -0.38504,-0.86 -0.86,-0.86z"
                    fill="#472b29"></path>
                <path
                    d="M68.8,129h-6.02c-0.47472,0 -0.86,-0.38528 -0.86,-0.86c0,-0.47472 0.38528,-0.86 0.86,-0.86h6.02c2.84488,0 5.16,-2.31512 5.16,-5.16c0,-2.57312 -1.935,-4.76096 -4.50296,-5.08948c-0.23048,-0.03096 -0.4386,-0.15136 -0.57792,-0.33712c-0.13932,-0.18576 -0.1978,-0.41968 -0.16168,-0.64844c0.03956,-0.26488 0.08256,-0.52976 0.08256,-0.80496c0,-2.84488 -2.31512,-5.16 -5.16,-5.16c-1.462,0 -2.81736,0.6106 -3.81668,1.72c-0.215,0.23908 -0.55212,0.34056 -0.86,0.25456c-0.31304,-0.08428 -0.55212,-0.3354 -0.6192,-0.65188c-0.58652,-2.75888 -3.0616,-4.76268 -5.88412,-4.76268c-3.3196,0 -6.02,2.7004 -6.02,6.02c0,0.24596 0.03612,0.4816 0.07052,0.71896c0.04988,0.34916 -0.10836,0.75336 -0.41624,0.9288c-0.30788,0.17544 -0.68112,0.20296 -0.95632,-0.0172c-0.6278,-0.50396 -1.36568,-0.77056 -2.13796,-0.77056c-1.66152,0 -3.08224,1.18852 -3.37636,2.82768c-0.08256,0.45924 -0.50912,0.76712 -0.97868,0.6966c-0.26488,-0.04128 -0.52976,-0.08428 -0.80496,-0.08428c-2.84488,0 -5.16,2.31512 -5.16,5.16c0,2.84488 2.31512,5.16 5.16,5.16h12.9c0.47472,0 0.86,0.38528 0.86,0.86c0,0.47472 -0.38528,0.86 -0.86,0.86h-12.9c-3.79432,0 -6.88,-3.08568 -6.88,-6.88c0,-3.79432 3.08568,-6.88 6.88,-6.88c0.10148,0 0.19952,0.00344 0.29928,0.01032c0.71208,-2.03992 2.64364,-3.45032 4.86072,-3.45032c0.60028,0 1.18508,0.10492 1.73892,0.3096c0.2838,-4.01276 3.6378,-7.1896 7.72108,-7.1896c3.14932,0 5.96152,1.93844 7.14316,4.77128c1.1696,-0.85656 2.58344,-1.33128 4.03684,-1.33128c3.79432,0 6.88,3.08568 6.88,6.88c0,0.08256 -0.00172,0.1634 -0.00688,0.24424c2.99796,0.77056 5.16688,3.48644 5.16688,6.63576c0,3.79432 -3.08568,6.88 -6.88,6.88z"
                    fill="#472b29"></path>
                <path
                    d="M59.34,127.28c-0.27348,0 -1.44652,0 -1.72,0c-0.47472,0 -0.86,0.38528 -0.86,0.86c0,0.47472 0.38528,0.86 0.86,0.86c0.27348,0 1.44652,0 1.72,0c0.47472,0 0.86,-0.38528 0.86,-0.86c0,-0.47472 -0.38528,-0.86 -0.86,-0.86z"
                    fill="#472b29"></path>
            </g>
            <g fill="#60be92">
                <path d="M67.94,86c0,-11.87488 9.62512,-21.5 21.5,-21.5c7.32032,0 13.7858,3.65844 17.66784,9.24672">
                </path>
            </g>
            <g fill="#60be92">
                <path
                    d="M110.94,86c0,11.87488 -9.62512,21.5 -21.5,21.5c-7.22572,0 -13.62068,-3.56556 -17.5182,-9.03344">
                </path>
            </g>
            <g fill="#fdfcee">
                <path
                    d="M107.5,61.92c-1.42588,0 -2.58,1.15584 -2.58,2.58v3.09256c-4.2914,-3.60684 -9.74896,-5.67256 -15.48,-5.67256c-13.2784,0 -24.08,10.8016 -24.08,24.08c0,1.42416 1.15412,2.58 2.58,2.58c1.42588,0 2.58,-1.15584 2.58,-2.58c0,-10.4318 8.4882,-18.92 18.92,-18.92c4.86072,0 9.46688,1.89372 12.94472,5.16h-5.20472c-1.42588,0 -2.58,1.15584 -2.58,2.58c0,1.42416 1.15412,2.58 2.58,2.58h10.32c1.42588,0 2.58,-1.15584 2.58,-2.58v-10.32c0,-1.42416 -1.15412,-2.58 -2.58,-2.58z">
                </path>
            </g>
            <g fill="#fdfcee">
                <path
                    d="M105.4704,103.95336c0.43172,-0.387 0.84968,-0.78776 1.25388,-1.204c4.20368,-4.33612 6.79572,-10.24604 6.79572,-16.74936c0,-1.42416 -1.15412,-2.58 -2.58,-2.58c-1.42588,0 -2.58,1.15584 -2.58,2.58c0,10.4318 -8.4882,18.92 -18.92,18.92c-4.84696,0 -9.45656,-1.89716 -12.93612,-5.16h5.19612c1.42588,0 2.58,-1.15584 2.58,-2.58c0,-1.42416 -1.15412,-2.58 -2.58,-2.58h-10.32c-1.42588,0 -2.58,1.15584 -2.58,2.58v10.32c0,1.42416 1.15412,2.58 2.58,2.58c1.42588,0 2.58,-1.15584 2.58,-2.58v-3.08224c4.29484,3.60168 9.76444,5.66224 15.48,5.66224c5.28384,0 10.17724,-1.7114 14.15216,-4.60788c0.65188,-0.47472 1.27796,-0.98212 1.87824,-1.51876">
                </path>
            </g>
            <g fill="#472b29">
                <path
                    d="M67.94,89.44c-1.89716,0 -3.44,-1.54284 -3.44,-3.44c0,-13.7514 11.1886,-24.94 24.94,-24.94c5.23568,0 10.363,1.68388 14.62,4.76956v-1.32956c0,-1.89716 1.54284,-3.44 3.44,-3.44c1.89716,0 3.44,1.54284 3.44,3.44v10.32c0,1.89716 -1.54284,3.44 -3.44,3.44h-10.32c-1.89716,0 -3.44,-1.54284 -3.44,-3.44c0,-1.89716 1.54284,-3.44 3.44,-3.44h2.81908c-3.07364,-2.23256 -6.74756,-3.44 -10.55908,-3.44c-0.47472,0 -0.86,-0.38528 -0.86,-0.86c0,-0.47472 0.38528,-0.86 0.86,-0.86c5.02584,0 9.83152,1.91436 13.53296,5.39392c0.25628,0.24252 0.34056,0.61404 0.21156,0.94428c-0.13072,0.3268 -0.4472,0.5418 -0.7998,0.5418h-5.20472c-0.94772,0 -1.72,0.77056 -1.72,1.72c0,0.94944 0.77228,1.72 1.72,1.72h10.32c0.94772,0 1.72,-0.77056 1.72,-1.72v-10.32c0,-0.94944 -0.77228,-1.72 -1.72,-1.72c-0.94772,0 -1.72,0.77056 -1.72,1.72v3.09256c0,0.33368 -0.19436,0.63812 -0.49708,0.77916c-0.30272,0.13932 -0.65876,0.09632 -0.91676,-0.1204c-4.19852,-3.52772 -9.49956,-5.47132 -14.92616,-5.47132c-12.80368,0 -23.22,10.41632 -23.22,23.22c0,0.94944 0.77228,1.72 1.72,1.72c0.94772,0 1.72,-0.77056 1.72,-1.72c0,-1.90404 0.27176,-3.78916 0.80668,-5.60032c0.13588,-0.4558 0.61232,-0.7138 1.06812,-0.58136c0.4558,0.13416 0.71552,0.61232 0.58136,1.06812c-0.48848,1.65292 -0.73616,3.37292 -0.73616,5.11356c0,1.89716 -1.54284,3.44 -3.44,3.44z">
                </path>
            </g>
            <g fill="#472b29">
                <path
                    d="M73.143,77.25552c-0.14792,0 -0.29928,-0.03784 -0.43688,-0.11868c-0.40936,-0.24252 -0.54352,-0.76884 -0.30272,-1.17992c2.51636,-4.25528 6.48956,-7.39944 11.18688,-8.85284c0.45924,-0.13932 0.93568,0.11524 1.075,0.56588c0.14104,0.4558 -0.11352,0.93568 -0.5676,1.07672c-4.28796,1.32784 -7.91716,4.20024 -10.21508,8.08744c-0.15996,0.27004 -0.44548,0.4214 -0.7396,0.4214z">
                </path>
            </g>
            <g fill="#472b29">
                <path
                    d="M89.44,110.94c-5.2374,0 -10.36472,-1.68044 -14.62,-4.7644v1.3244c0,1.89716 -1.54284,3.44 -3.44,3.44c-1.89716,0 -3.44,-1.54284 -3.44,-3.44v-10.32c0,-1.89716 1.54284,-3.44 3.44,-3.44h10.32c1.89716,0 3.44,1.54284 3.44,3.44c0,1.89716 -1.54284,3.44 -3.44,3.44h-2.80876c3.07708,2.23256 6.74756,3.44 10.54876,3.44c9.9588,0 18.06,-8.1012 18.06,-18.06c0,-1.89716 1.54284,-3.44 3.44,-3.44c1.89716,0 3.44,1.54284 3.44,3.44c0,5.35952 -1.68216,10.47136 -4.86416,14.7834c-0.2838,0.38356 -0.82044,0.45924 -1.20228,0.1806c-0.38184,-0.28208 -0.4644,-0.82216 -0.1806,-1.20228c2.96184,-4.01276 4.52704,-8.772 4.52704,-13.76172c0,-0.94944 -0.77228,-1.72 -1.72,-1.72c-0.94772,0 -1.72,0.77056 -1.72,1.72c0,10.90652 -8.87348,19.78 -19.78,19.78c-5.01208,0 -9.81604,-1.91436 -13.52436,-5.3922c-0.258,-0.24252 -0.34228,-0.61576 -0.21156,-0.94428c0.129,-0.32852 0.4472,-0.54352 0.7998,-0.54352h5.19612c0.94772,0 1.72,-0.77056 1.72,-1.72c0,-0.94944 -0.77228,-1.72 -1.72,-1.72h-10.32c-0.94772,0 -1.72,0.77056 -1.72,1.72v10.32c0,0.94944 0.77228,1.72 1.72,1.72c0.94772,0 1.72,-0.77056 1.72,-1.72v-3.08396c0,-0.33368 0.19436,-0.63812 0.49708,-0.77916c0.301,-0.14104 0.66048,-0.0946 0.91676,0.1204c4.1968,3.52256 9.49784,5.46272 14.92616,5.46272c5.76028,0 11.28836,-2.13108 15.566,-6.00452c0.3526,-0.31648 0.89612,-0.28896 1.21432,0.0602c0.31992,0.3526 0.29068,0.89612 -0.0602,1.21604c-4.59584,4.15724 -10.53328,6.44828 -16.72012,6.44828z">
                </path>
            </g>
        </g>
    </g>
</svg>