<svg xmlns="http://www.w3.org/2000/svg" x="0px" y="0px" width="100" height="100" viewBox="0 0 172 172"
    style=" fill:#000000;">
    <g fill="none" fill-rule="nonzero" stroke="none" stroke-width="1" stroke-linecap="butt" stroke-linejoin="miter"
        stroke-miterlimit="10" stroke-dasharray="" stroke-dashoffset="0" font-family="none" font-weight="none"
        font-size="none" text-anchor="none" style="mix-blend-mode: normal">
        <path d="M0,172v-172h172v172z" fill="none"></path>
        <rect x="5" y="9" width="67%" height="90%" fill="#f1c40f" />

        <g>
            <path d="M35.60938,8.73438v26.875h-26.875z" fill="#f1c40f"></path>
            <rect x="406" y="146" transform="scale(0.33594,0.33594)" width="80" height="50" fill="#ef727a"></rect>
            <rect x="406" y="196" transform="scale(0.33594,0.33594)" width="80" height="210" fill="#57606f"></rect>
            <path d="M163.26563,136.39063l-13.4375,16.79688l-13.4375,-16.79687z" fill="#f2deb9"></path>
            <path
                d="M35.60938,38.96875h-26.875c-1.85538,0 -3.35937,-1.50399 -3.35937,-3.35937c0,-1.85538 1.50399,-3.35937 3.35938,-3.35937h23.51563v-23.51562c0,-1.85538 1.50399,-3.35937 3.35938,-3.35937c1.85538,0 3.35938,1.50399 3.35938,3.35938v26.875c0,1.85538 -1.50399,3.35938 -3.35937,3.35938z"
                fill="#000000"></path>
            <path
                d="M116.23438,166.625h-107.5c-1.85538,0 -3.35937,-1.50433 -3.35937,-3.35937v-127.65625c0,-0.89091 0.35408,-1.74553 0.98396,-2.37541l26.875,-26.875c0.62988,-0.62988 1.48451,-0.98396 2.37541,-0.98396h80.625c1.85505,0 3.35938,1.50399 3.35938,3.35938v26.875c0,1.85538 -1.50433,3.35938 -3.35937,3.35938c-1.85505,0 -3.35937,-1.50399 -3.35937,-3.35937v-23.51562h-75.87417l-24.90708,24.90708v122.90542h104.14063c1.85505,0 3.35938,1.50433 3.35938,3.35938c0,1.85505 -1.50433,3.35938 -3.35937,3.35938z"
                fill="#000000"></path>
            <path
                d="M149.82813,156.54688c-1.02058,0 -1.98573,-0.46393 -2.62334,-1.26077l-13.4375,-16.79687c-0.4767,-0.59562 -0.73604,-1.33569 -0.73604,-2.0986v-87.34375c0,-1.85538 1.50433,-3.35937 3.35938,-3.35937h26.875c1.85505,0 3.35938,1.50399 3.35938,3.35938v87.34375c0,0.76291 -0.25934,1.50298 -0.73604,2.0986l-13.4375,16.79688c-0.63761,0.79684 -1.60276,1.26077 -2.62334,1.26077zM139.75,135.21216l10.07813,12.59766l10.07813,-12.59766v-82.80591h-20.15625z"
                fill="#000000"></path>
            <path
                d="M163.26563,69.20313h-26.875c-1.85505,0 -3.35937,-1.50399 -3.35937,-3.35937c0,-1.85538 1.50433,-3.35937 3.35938,-3.35937h26.875c1.85505,0 3.35938,1.50399 3.35938,3.35938c0,1.85538 -1.50433,3.35938 -3.35937,3.35938z"
                fill="#000000"></path>
            <path
                d="M163.26563,139.75h-26.875c-1.85505,0 -3.35937,-1.50433 -3.35937,-3.35937c0,-1.85505 1.50433,-3.35937 3.35938,-3.35937h26.875c1.85505,0 3.35938,1.50433 3.35938,3.35938c0,1.85505 -1.50433,3.35938 -3.35937,3.35938z"
                fill="#000000"></path>
            <path
                d="M99.4375,62.48438h-67.1875c-1.85538,0 -3.35937,-1.50399 -3.35937,-3.35937c0,-1.85538 1.50399,-3.35937 3.35938,-3.35937h67.1875c1.85505,0 3.35938,1.50399 3.35938,3.35938c0,1.85538 -1.50433,3.35938 -3.35937,3.35938z"
                fill="#000000"></path>
            <path
                d="M99.4375,82.64063h-67.1875c-1.85538,0 -3.35937,-1.50399 -3.35937,-3.35937c0,-1.85538 1.50399,-3.35937 3.35938,-3.35937h67.1875c1.85505,0 3.35938,1.50399 3.35938,3.35938c0,1.85538 -1.50433,3.35938 -3.35937,3.35938z"
                fill="#000000"></path>
            <path
                d="M99.4375,102.79688h-67.1875c-1.85538,0 -3.35937,-1.50433 -3.35937,-3.35937c0,-1.85505 1.50399,-3.35937 3.35938,-3.35937h67.1875c1.85505,0 3.35938,1.50433 3.35938,3.35938c0,1.85505 -1.50433,3.35938 -3.35937,3.35938z"
                fill="#000000"></path>
            <path
                d="M99.4375,122.95313h-67.1875c-1.85538,0 -3.35937,-1.50433 -3.35937,-3.35937c0,-1.85505 1.50399,-3.35937 3.35938,-3.35937h67.1875c1.85505,0 3.35938,1.50433 3.35938,3.35938c0,1.85505 -1.50433,3.35938 -3.35937,3.35938z"
                fill="#000000"></path>
            <path
                d="M99.4375,143.10938h-67.1875c-1.85538,0 -3.35937,-1.50433 -3.35937,-3.35937c0,-1.85505 1.50399,-3.35937 3.35938,-3.35937h67.1875c1.85505,0 3.35938,1.50433 3.35938,3.35938c0,1.85505 -1.50433,3.35938 -3.35937,3.35938z"
                fill="#000000"></path>
        </g>
    </g>
</svg>